ISO-10303-21;
HEADER;
FILE_DESCRIPTION(('FreeCAD Model'),'2;1');
FILE_NAME('Open CASCADE Shape Model','2026-09-25T09:03:57',('FreeCAD'),(
    'FreeCAD'),'Open CASCADE STEP processor 7.8','FreeCAD','Unknown');
FILE_SCHEMA(('AUTOMOTIVE_DESIGN { 1 0 10303 214 1 1 1 1 }'));
ENDSEC;
DATA;
#1 = APPLICATION_PROTOCOL_DEFINITION('international standard',
  'automotive_design',2000,#2);
#2 = APPLICATION_CONTEXT(
  'core data for automotive mechanical design processes');
#3 = SHAPE_DEFINITION_REPRESENTATION(#4,#10);
#4 = PRODUCT_DEFINITION_SHAPE('','',#5);
#5 = PRODUCT_DEFINITION('design','',#6,#9);
#6 = PRODUCT_DEFINITION_FORMATION('','',#7);
#7 = PRODUCT('Open CASCADE STEP translator 7.8 5',
  'Open CASCADE STEP translator 7.8 5','',(#8));
#8 = PRODUCT_CONTEXT('',#2,'mechanical');
#9 = PRODUCT_DEFINITION_CONTEXT('part definition',#2,'design');
#10 = ADVANCED_BREP_SHAPE_REPRESENTATION('',(#11,#15),#1641);
#11 = AXIS2_PLACEMENT_3D('',#12,#13,#14);
#12 = CARTESIAN_POINT('',(0.,0.,0.));
#13 = DIRECTION('',(0.,0.,1.));
#14 = DIRECTION('',(1.,0.,-0.));
#15 = MANIFOLD_SOLID_BREP('',#16);
#16 = CLOSED_SHELL('',(#17,#67,#109,#134,#222,#254,#304,#314,#349,#390,
    #405,#430,#446,#455,#513,#553,#584,#615,#678,#732,#763,#794,#825,
    #856,#887,#918,#949,#980,#1002,#1067,#1098,#1129,#1153,#1177,#1194,
    #1225,#1237,#1256,#1273,#1305,#1324,#1406,#1437,#1478,#1512,#1529,
    #1551,#1575,#1599,#1611,#1629));
#17 = ADVANCED_FACE('',(#18),#62,.T.);
#18 = FACE_BOUND('',#19,.T.);
#19 = EDGE_LOOP('',(#20,#31,#40,#48,#56));
#20 = ORIENTED_EDGE('',*,*,#21,.T.);
#21 = EDGE_CURVE('',#22,#24,#26,.T.);
#22 = VERTEX_POINT('',#23);
#23 = CARTESIAN_POINT('',(6.,85.022774424948,-71.13603778517));
#24 = VERTEX_POINT('',#25);
#25 = CARTESIAN_POINT('',(3.,96.562177826491,-77.79831544534));
#26 = CIRCLE('',#27,7.);
#27 = AXIS2_PLACEMENT_3D('',#28,#29,#30);
#28 = CARTESIAN_POINT('',(3.,90.5,-74.29831544534));
#29 = DIRECTION('',(0.,0.5,0.866025403784));
#30 = DIRECTION('',(0.,0.866025403784,-0.5));
#31 = ORIENTED_EDGE('',*,*,#32,.T.);
#32 = EDGE_CURVE('',#24,#33,#35,.T.);
#33 = VERTEX_POINT('',#34);
#34 = CARTESIAN_POINT('',(-1.33226762955E-15,85.022774424948,
    -71.13603778517));
#35 = CIRCLE('',#36,7.);
#36 = AXIS2_PLACEMENT_3D('',#37,#38,#39);
#37 = CARTESIAN_POINT('',(3.,90.5,-74.29831544534));
#38 = DIRECTION('',(0.,0.5,0.866025403784));
#39 = DIRECTION('',(0.,0.866025403784,-0.5));
#40 = ORIENTED_EDGE('',*,*,#41,.T.);
#41 = EDGE_CURVE('',#33,#42,#44,.T.);
#42 = VERTEX_POINT('',#43);
#43 = CARTESIAN_POINT('',(0.,95.140556806349,-76.97754216668));
#44 = LINE('',#45,#46);
#45 = CARTESIAN_POINT('',(0.,75.526203813233,-65.65319018612));
#46 = VECTOR('',#47,1.);
#47 = DIRECTION('',(0.,0.866025403784,-0.5));
#48 = ORIENTED_EDGE('',*,*,#49,.T.);
#49 = EDGE_CURVE('',#42,#50,#52,.T.);
#50 = VERTEX_POINT('',#51);
#51 = CARTESIAN_POINT('',(6.,95.140556806349,-76.97754216668));
#52 = LINE('',#53,#54);
#53 = CARTESIAN_POINT('',(1.5,95.140556806349,-76.97754216668));
#54 = VECTOR('',#55,1.);
#55 = DIRECTION('',(1.,0.,-0.));
#56 = ORIENTED_EDGE('',*,*,#57,.F.);
#57 = EDGE_CURVE('',#22,#50,#58,.T.);
#58 = LINE('',#59,#60);
#59 = CARTESIAN_POINT('',(6.,75.526203813233,-65.65319018612));
#60 = VECTOR('',#61,1.);
#61 = DIRECTION('',(0.,0.866025403784,-0.5));
#62 = PLANE('',#63);
#63 = AXIS2_PLACEMENT_3D('',#64,#65,#66);
#64 = CARTESIAN_POINT('',(3.,90.5,-74.29831544534));
#65 = DIRECTION('',(0.,0.5,0.866025403784));
#66 = DIRECTION('',(0.,0.866025403784,-0.5));
#67 = ADVANCED_FACE('',(#68,#93),#104,.T.);
#68 = FACE_BOUND('',#69,.T.);
#69 = EDGE_LOOP('',(#70,#78,#86,#92));
#70 = ORIENTED_EDGE('',*,*,#71,.F.);
#71 = EDGE_CURVE('',#72,#42,#74,.T.);
#72 = VERTEX_POINT('',#73);
#73 = CARTESIAN_POINT('',(0.,68.6,17.));
#74 = LINE('',#75,#76);
#75 = CARTESIAN_POINT('',(0.,68.6,17.));
#76 = VECTOR('',#77,1.);
#77 = DIRECTION('',(0.,0.271783332376,-0.962358467642));
#78 = ORIENTED_EDGE('',*,*,#79,.T.);
#79 = EDGE_CURVE('',#72,#80,#82,.T.);
#80 = VERTEX_POINT('',#81);
#81 = CARTESIAN_POINT('',(6.,68.6,17.));
#82 = LINE('',#83,#84);
#83 = CARTESIAN_POINT('',(0.,68.6,17.));
#84 = VECTOR('',#85,1.);
#85 = DIRECTION('',(1.,0.,0.));
#86 = ORIENTED_EDGE('',*,*,#87,.T.);
#87 = EDGE_CURVE('',#80,#50,#88,.T.);
#88 = LINE('',#89,#90);
#89 = CARTESIAN_POINT('',(6.,68.6,17.));
#90 = VECTOR('',#91,1.);
#91 = DIRECTION('',(0.,0.271783332376,-0.962358467642));
#92 = ORIENTED_EDGE('',*,*,#49,.F.);
#93 = FACE_BOUND('',#94,.T.);
#94 = EDGE_LOOP('',(#95));
#95 = ORIENTED_EDGE('',*,*,#96,.F.);
#96 = EDGE_CURVE('',#97,#97,#99,.T.);
#97 = VERTEX_POINT('',#98);
#98 = CARTESIAN_POINT('',(3.,94.05636246447,-73.13851496675));
#99 = ELLIPSE('',#100,3.488937606074,2.5);
#100 = AXIS2_PLACEMENT_3D('',#101,#102,#103);
#101 = CARTESIAN_POINT('',(3.,93.108127375441,-69.78090631847));
#102 = DIRECTION('',(-0.,0.962358467642,0.271783332376));
#103 = DIRECTION('',(0.,-0.271783332376,0.962358467642));
#104 = PLANE('',#105);
#105 = AXIS2_PLACEMENT_3D('',#106,#107,#108);
#106 = CARTESIAN_POINT('',(0.,68.6,17.));
#107 = DIRECTION('',(-0.,0.962358467642,0.271783332376));
#108 = DIRECTION('',(0.,0.271783332376,-0.962358467642));
#109 = ADVANCED_FACE('',(#110),#129,.F.);
#110 = FACE_BOUND('',#111,.F.);
#111 = EDGE_LOOP('',(#112,#113,#121,#128));
#112 = ORIENTED_EDGE('',*,*,#96,.F.);
#113 = ORIENTED_EDGE('',*,*,#114,.F.);
#114 = EDGE_CURVE('',#115,#97,#117,.T.);
#115 = VERTEX_POINT('',#116);
#116 = CARTESIAN_POINT('',(3.,86.165063509461,-86.80664569454));
#117 = LINE('',#118,#119);
#118 = CARTESIAN_POINT('',(3.,85.165063509461,-88.53869650211));
#119 = VECTOR('',#120,1.);
#120 = DIRECTION('',(0.,0.5,0.866025403784));
#121 = ORIENTED_EDGE('',*,*,#122,.T.);
#122 = EDGE_CURVE('',#115,#115,#123,.T.);
#123 = CIRCLE('',#124,2.5);
#124 = AXIS2_PLACEMENT_3D('',#125,#126,#127);
#125 = CARTESIAN_POINT('',(3.,84.,-85.55664569454));
#126 = DIRECTION('',(0.,0.5,0.866025403784));
#127 = DIRECTION('',(0.,0.866025403784,-0.5));
#128 = ORIENTED_EDGE('',*,*,#114,.T.);
#129 = CYLINDRICAL_SURFACE('',#130,2.5);
#130 = AXIS2_PLACEMENT_3D('',#131,#132,#133);
#131 = CARTESIAN_POINT('',(3.,83.,-87.28869650211));
#132 = DIRECTION('',(0.,0.5,0.866025403784));
#133 = DIRECTION('',(0.,0.866025403784,-0.5));
#134 = ADVANCED_FACE('',(#135),#217,.T.);
#135 = FACE_BOUND('',#136,.T.);
#136 = EDGE_LOOP('',(#137,#145,#146,#147,#155,#163,#171,#179,#187,#195,
    #203,#211));
#137 = ORIENTED_EDGE('',*,*,#138,.T.);
#138 = EDGE_CURVE('',#139,#72,#141,.T.);
#139 = VERTEX_POINT('',#140);
#140 = CARTESIAN_POINT('',(0.,54.6,17.));
#141 = LINE('',#142,#143);
#142 = CARTESIAN_POINT('',(0.,54.6,17.));
#143 = VECTOR('',#144,1.);
#144 = DIRECTION('',(0.,1.,0.));
#145 = ORIENTED_EDGE('',*,*,#71,.T.);
#146 = ORIENTED_EDGE('',*,*,#41,.F.);
#147 = ORIENTED_EDGE('',*,*,#148,.F.);
#148 = EDGE_CURVE('',#149,#33,#151,.T.);
#149 = VERTEX_POINT('',#150);
#150 = CARTESIAN_POINT('',(-2.04281036531E-14,78.522774424948,
    -82.39436803437));
#151 = LINE('',#152,#153);
#152 = CARTESIAN_POINT('',(0.,78.522774424948,-82.39436803437));
#153 = VECTOR('',#154,1.);
#154 = DIRECTION('',(0.,0.5,0.866025403784));
#155 = ORIENTED_EDGE('',*,*,#156,.T.);
#156 = EDGE_CURVE('',#149,#157,#159,.T.);
#157 = VERTEX_POINT('',#158);
#158 = CARTESIAN_POINT('',(0.,78.,-82.0925440794));
#159 = LINE('',#160,#161);
#160 = CARTESIAN_POINT('',(0.,90.,-89.02074730968));
#161 = VECTOR('',#162,1.);
#162 = DIRECTION('',(0.,-0.866025403784,0.5));
#163 = ORIENTED_EDGE('',*,*,#164,.T.);
#164 = EDGE_CURVE('',#157,#165,#167,.T.);
#165 = VERTEX_POINT('',#166);
#166 = CARTESIAN_POINT('',(0.,75.816453213842,-75.83187275463));
#167 = LINE('',#168,#169);
#168 = CARTESIAN_POINT('',(0.,78.,-82.0925440794));
#169 = VECTOR('',#170,1.);
#170 = DIRECTION('',(0.,-0.329317253734,0.94421933172));
#171 = ORIENTED_EDGE('',*,*,#172,.T.);
#172 = EDGE_CURVE('',#165,#173,#175,.T.);
#173 = VERTEX_POINT('',#174);
#174 = CARTESIAN_POINT('',(4.440892098501E-16,76.477225575052,
    -76.21336985524));
#175 = LINE('',#176,#177);
#176 = CARTESIAN_POINT('',(0.,63.608735567963,-68.78374368559));
#177 = VECTOR('',#178,1.);
#178 = DIRECTION('',(0.,0.866025403784,-0.5));
#179 = ORIENTED_EDGE('',*,*,#180,.T.);
#180 = EDGE_CURVE('',#173,#181,#183,.T.);
#181 = VERTEX_POINT('',#182);
#182 = CARTESIAN_POINT('',(4.440892098501E-16,81.977225575052,
    -66.68709041361));
#183 = LINE('',#184,#185);
#184 = CARTESIAN_POINT('',(0.,76.477225575052,-76.21336985524));
#185 = VECTOR('',#186,1.);
#186 = DIRECTION('',(0.,0.5,0.866025403784));
#187 = ORIENTED_EDGE('',*,*,#188,.F.);
#188 = EDGE_CURVE('',#189,#181,#191,.T.);
#189 = VERTEX_POINT('',#190);
#190 = CARTESIAN_POINT('',(-1.33226762955E-15,71.022774424948,
    -60.36253509328));
#191 = LINE('',#192,#193);
#192 = CARTESIAN_POINT('',(0.,69.108735567963,-59.25746424396));
#193 = VECTOR('',#194,1.);
#194 = DIRECTION('',(0.,0.866025403784,-0.5));
#195 = ORIENTED_EDGE('',*,*,#196,.F.);
#196 = EDGE_CURVE('',#197,#189,#199,.T.);
#197 = VERTEX_POINT('',#198);
#198 = CARTESIAN_POINT('',(0.,70.647737760108,-61.01211765148));
#199 = LINE('',#200,#201);
#200 = CARTESIAN_POINT('',(0.,65.522774424948,-69.88881453491));
#201 = VECTOR('',#202,1.);
#202 = DIRECTION('',(0.,0.5,0.866025403784));
#203 = ORIENTED_EDGE('',*,*,#204,.T.);
#204 = EDGE_CURVE('',#197,#205,#207,.T.);
#205 = VERTEX_POINT('',#206);
#206 = CARTESIAN_POINT('',(0.,54.6,-15.));
#207 = LINE('',#208,#209);
#208 = CARTESIAN_POINT('',(0.,78.,-82.0925440794));
#209 = VECTOR('',#210,1.);
#210 = DIRECTION('',(0.,-0.329317253734,0.94421933172));
#211 = ORIENTED_EDGE('',*,*,#212,.T.);
#212 = EDGE_CURVE('',#205,#139,#213,.T.);
#213 = LINE('',#214,#215);
#214 = CARTESIAN_POINT('',(0.,54.6,-15.));
#215 = VECTOR('',#216,1.);
#216 = DIRECTION('',(0.,0.,1.));
#217 = PLANE('',#218);
#218 = AXIS2_PLACEMENT_3D('',#219,#220,#221);
#219 = CARTESIAN_POINT('',(0.,73.274308644118,-34.6340771687));
#220 = DIRECTION('',(-1.,-0.,-0.));
#221 = DIRECTION('',(0.,0.,-1.));
#222 = ADVANCED_FACE('',(#223),#249,.T.);
#223 = FACE_BOUND('',#224,.T.);
#224 = EDGE_LOOP('',(#225,#226,#235,#243));
#225 = ORIENTED_EDGE('',*,*,#204,.F.);
#226 = ORIENTED_EDGE('',*,*,#227,.F.);
#227 = EDGE_CURVE('',#228,#197,#230,.T.);
#228 = VERTEX_POINT('',#229);
#229 = CARTESIAN_POINT('',(6.,70.647737760108,-61.01211765148));
#230 = ELLIPSE('',#231,9.243281910273,7.);
#231 = AXIS2_PLACEMENT_3D('',#232,#233,#234);
#232 = CARTESIAN_POINT('',(3.,73.397990711842,-68.89765044609));
#233 = DIRECTION('',(0.,-0.94421933172,-0.329317253734));
#234 = DIRECTION('',(0.,-0.329317253734,0.94421933172));
#235 = ORIENTED_EDGE('',*,*,#236,.T.);
#236 = EDGE_CURVE('',#228,#237,#239,.T.);
#237 = VERTEX_POINT('',#238);
#238 = CARTESIAN_POINT('',(6.,54.6,-15.));
#239 = LINE('',#240,#241);
#240 = CARTESIAN_POINT('',(6.,78.,-82.0925440794));
#241 = VECTOR('',#242,1.);
#242 = DIRECTION('',(0.,-0.329317253734,0.94421933172));
#243 = ORIENTED_EDGE('',*,*,#244,.F.);
#244 = EDGE_CURVE('',#205,#237,#245,.T.);
#245 = LINE('',#246,#247);
#246 = CARTESIAN_POINT('',(0.,54.6,-15.));
#247 = VECTOR('',#248,1.);
#248 = DIRECTION('',(1.,0.,0.));
#249 = PLANE('',#250);
#250 = AXIS2_PLACEMENT_3D('',#251,#252,#253);
#251 = CARTESIAN_POINT('',(0.,78.,-82.0925440794));
#252 = DIRECTION('',(0.,-0.94421933172,-0.329317253734));
#253 = DIRECTION('',(0.,-0.329317253734,0.94421933172));
#254 = ADVANCED_FACE('',(#255),#299,.T.);
#255 = FACE_BOUND('',#256,.T.);
#256 = EDGE_LOOP('',(#257,#264,#265,#274,#282,#291,#297,#298));
#257 = ORIENTED_EDGE('',*,*,#258,.F.);
#258 = EDGE_CURVE('',#181,#189,#259,.T.);
#259 = CIRCLE('',#260,7.);
#260 = AXIS2_PLACEMENT_3D('',#261,#262,#263);
#261 = CARTESIAN_POINT('',(3.,76.5,-63.52481275345));
#262 = DIRECTION('',(0.,0.5,0.866025403784));
#263 = DIRECTION('',(0.,0.866025403784,-0.5));
#264 = ORIENTED_EDGE('',*,*,#180,.F.);
#265 = ORIENTED_EDGE('',*,*,#266,.T.);
#266 = EDGE_CURVE('',#173,#267,#269,.T.);
#267 = VERTEX_POINT('',#268);
#268 = CARTESIAN_POINT('',(6.,76.477225575052,-76.21336985524));
#269 = CIRCLE('',#270,7.);
#270 = AXIS2_PLACEMENT_3D('',#271,#272,#273);
#271 = CARTESIAN_POINT('',(3.,71.,-73.05109219507));
#272 = DIRECTION('',(0.,0.5,0.866025403784));
#273 = DIRECTION('',(0.,0.866025403784,-0.5));
#274 = ORIENTED_EDGE('',*,*,#275,.T.);
#275 = EDGE_CURVE('',#267,#276,#278,.T.);
#276 = VERTEX_POINT('',#277);
#277 = CARTESIAN_POINT('',(6.,81.977225575052,-66.68709041361));
#278 = LINE('',#279,#280);
#279 = CARTESIAN_POINT('',(6.,76.477225575052,-76.21336985524));
#280 = VECTOR('',#281,1.);
#281 = DIRECTION('',(0.,0.5,0.866025403784));
#282 = ORIENTED_EDGE('',*,*,#283,.F.);
#283 = EDGE_CURVE('',#284,#276,#286,.T.);
#284 = VERTEX_POINT('',#285);
#285 = CARTESIAN_POINT('',(6.,71.022774424948,-60.36253509328));
#286 = CIRCLE('',#287,7.);
#287 = AXIS2_PLACEMENT_3D('',#288,#289,#290);
#288 = CARTESIAN_POINT('',(3.,76.5,-63.52481275345));
#289 = DIRECTION('',(0.,0.5,0.866025403784));
#290 = DIRECTION('',(0.,0.866025403784,-0.5));
#291 = ORIENTED_EDGE('',*,*,#292,.F.);
#292 = EDGE_CURVE('',#228,#284,#293,.T.);
#293 = LINE('',#294,#295);
#294 = CARTESIAN_POINT('',(6.,65.522774424948,-69.88881453491));
#295 = VECTOR('',#296,1.);
#296 = DIRECTION('',(0.,0.5,0.866025403784));
#297 = ORIENTED_EDGE('',*,*,#227,.T.);
#298 = ORIENTED_EDGE('',*,*,#196,.T.);
#299 = CYLINDRICAL_SURFACE('',#300,7.);
#300 = AXIS2_PLACEMENT_3D('',#301,#302,#303);
#301 = CARTESIAN_POINT('',(3.,71.,-73.05109219507));
#302 = DIRECTION('',(0.,0.5,0.866025403784));
#303 = DIRECTION('',(0.,0.866025403784,-0.5));
#304 = ADVANCED_FACE('',(#305),#309,.T.);
#305 = FACE_BOUND('',#306,.T.);
#306 = EDGE_LOOP('',(#307,#308));
#307 = ORIENTED_EDGE('',*,*,#188,.T.);
#308 = ORIENTED_EDGE('',*,*,#258,.T.);
#309 = PLANE('',#310);
#310 = AXIS2_PLACEMENT_3D('',#311,#312,#313);
#311 = CARTESIAN_POINT('',(3.,76.5,-63.52481275345));
#312 = DIRECTION('',(0.,0.5,0.866025403784));
#313 = DIRECTION('',(0.,0.866025403784,-0.5));
#314 = ADVANCED_FACE('',(#315,#333),#344,.F.);
#315 = FACE_BOUND('',#316,.F.);
#316 = EDGE_LOOP('',(#317,#318,#319,#327));
#317 = ORIENTED_EDGE('',*,*,#172,.T.);
#318 = ORIENTED_EDGE('',*,*,#266,.T.);
#319 = ORIENTED_EDGE('',*,*,#320,.F.);
#320 = EDGE_CURVE('',#321,#267,#323,.T.);
#321 = VERTEX_POINT('',#322);
#322 = CARTESIAN_POINT('',(6.,75.816453213842,-75.83187275463));
#323 = LINE('',#324,#325);
#324 = CARTESIAN_POINT('',(6.,63.608735567963,-68.78374368559));
#325 = VECTOR('',#326,1.);
#326 = DIRECTION('',(0.,0.866025403784,-0.5));
#327 = ORIENTED_EDGE('',*,*,#328,.T.);
#328 = EDGE_CURVE('',#321,#165,#329,.T.);
#329 = LINE('',#330,#331);
#330 = CARTESIAN_POINT('',(1.5,75.816453213842,-75.83187275463));
#331 = VECTOR('',#332,1.);
#332 = DIRECTION('',(-1.,-0.,0.));
#333 = FACE_BOUND('',#334,.F.);
#334 = EDGE_LOOP('',(#335));
#335 = ORIENTED_EDGE('',*,*,#336,.F.);
#336 = EDGE_CURVE('',#337,#337,#339,.T.);
#337 = VERTEX_POINT('',#338);
#338 = CARTESIAN_POINT('',(3.,73.165063509461,-74.30109219507));
#339 = CIRCLE('',#340,2.5);
#340 = AXIS2_PLACEMENT_3D('',#341,#342,#343);
#341 = CARTESIAN_POINT('',(3.,71.,-73.05109219507));
#342 = DIRECTION('',(0.,0.5,0.866025403784));
#343 = DIRECTION('',(0.,0.866025403784,-0.5));
#344 = PLANE('',#345);
#345 = AXIS2_PLACEMENT_3D('',#346,#347,#348);
#346 = CARTESIAN_POINT('',(3.,71.,-73.05109219507));
#347 = DIRECTION('',(0.,0.5,0.866025403784));
#348 = DIRECTION('',(0.,0.866025403784,-0.5));
#349 = ADVANCED_FACE('',(#350),#385,.T.);
#350 = FACE_BOUND('',#351,.T.);
#351 = EDGE_LOOP('',(#352,#353,#361,#370,#378,#384));
#352 = ORIENTED_EDGE('',*,*,#164,.F.);
#353 = ORIENTED_EDGE('',*,*,#354,.T.);
#354 = EDGE_CURVE('',#157,#355,#357,.T.);
#355 = VERTEX_POINT('',#356);
#356 = CARTESIAN_POINT('',(2.,78.,-82.0925440794));
#357 = LINE('',#358,#359);
#358 = CARTESIAN_POINT('',(0.,78.,-82.0925440794));
#359 = VECTOR('',#360,1.);
#360 = DIRECTION('',(1.,0.,0.));
#361 = ORIENTED_EDGE('',*,*,#362,.F.);
#362 = EDGE_CURVE('',#363,#355,#365,.T.);
#363 = VERTEX_POINT('',#364);
#364 = CARTESIAN_POINT('',(4.,78.,-82.0925440794));
#365 = ELLIPSE('',#366,9.243281910273,7.);
#366 = AXIS2_PLACEMENT_3D('',#367,#368,#369);
#367 = CARTESIAN_POINT('',(3.,81.01275116102,-90.7307124585));
#368 = DIRECTION('',(0.,-0.94421933172,-0.329317253734));
#369 = DIRECTION('',(0.,-0.329317253734,0.94421933172));
#370 = ORIENTED_EDGE('',*,*,#371,.T.);
#371 = EDGE_CURVE('',#363,#372,#374,.T.);
#372 = VERTEX_POINT('',#373);
#373 = CARTESIAN_POINT('',(6.,78.,-82.0925440794));
#374 = LINE('',#375,#376);
#375 = CARTESIAN_POINT('',(0.,78.,-82.0925440794));
#376 = VECTOR('',#377,1.);
#377 = DIRECTION('',(1.,0.,0.));
#378 = ORIENTED_EDGE('',*,*,#379,.T.);
#379 = EDGE_CURVE('',#372,#321,#380,.T.);
#380 = LINE('',#381,#382);
#381 = CARTESIAN_POINT('',(6.,78.,-82.0925440794));
#382 = VECTOR('',#383,1.);
#383 = DIRECTION('',(0.,-0.329317253734,0.94421933172));
#384 = ORIENTED_EDGE('',*,*,#328,.T.);
#385 = PLANE('',#386);
#386 = AXIS2_PLACEMENT_3D('',#387,#388,#389);
#387 = CARTESIAN_POINT('',(0.,78.,-82.0925440794));
#388 = DIRECTION('',(0.,-0.94421933172,-0.329317253734));
#389 = DIRECTION('',(0.,-0.329317253734,0.94421933172));
#390 = ADVANCED_FACE('',(#391),#400,.T.);
#391 = FACE_BOUND('',#392,.T.);
#392 = EDGE_LOOP('',(#393,#394));
#393 = ORIENTED_EDGE('',*,*,#283,.T.);
#394 = ORIENTED_EDGE('',*,*,#395,.F.);
#395 = EDGE_CURVE('',#284,#276,#396,.T.);
#396 = LINE('',#397,#398);
#397 = CARTESIAN_POINT('',(6.,69.108735567963,-59.25746424396));
#398 = VECTOR('',#399,1.);
#399 = DIRECTION('',(0.,0.866025403784,-0.5));
#400 = PLANE('',#401);
#401 = AXIS2_PLACEMENT_3D('',#402,#403,#404);
#402 = CARTESIAN_POINT('',(3.,76.5,-63.52481275345));
#403 = DIRECTION('',(0.,0.5,0.866025403784));
#404 = DIRECTION('',(0.,0.866025403784,-0.5));
#405 = ADVANCED_FACE('',(#406),#425,.F.);
#406 = FACE_BOUND('',#407,.F.);
#407 = EDGE_LOOP('',(#408,#416,#423,#424));
#408 = ORIENTED_EDGE('',*,*,#409,.T.);
#409 = EDGE_CURVE('',#337,#410,#412,.T.);
#410 = VERTEX_POINT('',#411);
#411 = CARTESIAN_POINT('',(3.,87.165063509461,-50.05238088911));
#412 = LINE('',#413,#414);
#413 = CARTESIAN_POINT('',(3.,72.165063509461,-76.03314300264));
#414 = VECTOR('',#415,1.);
#415 = DIRECTION('',(0.,0.5,0.866025403784));
#416 = ORIENTED_EDGE('',*,*,#417,.F.);
#417 = EDGE_CURVE('',#410,#410,#418,.T.);
#418 = CIRCLE('',#419,2.5);
#419 = AXIS2_PLACEMENT_3D('',#420,#421,#422);
#420 = CARTESIAN_POINT('',(3.,85.,-48.80238088911));
#421 = DIRECTION('',(0.,0.5,0.866025403784));
#422 = DIRECTION('',(0.,0.866025403784,-0.5));
#423 = ORIENTED_EDGE('',*,*,#409,.F.);
#424 = ORIENTED_EDGE('',*,*,#336,.T.);
#425 = CYLINDRICAL_SURFACE('',#426,2.5);
#426 = AXIS2_PLACEMENT_3D('',#427,#428,#429);
#427 = CARTESIAN_POINT('',(3.,70.,-74.78314300264));
#428 = DIRECTION('',(0.,0.5,0.866025403784));
#429 = DIRECTION('',(0.,0.866025403784,-0.5));
#430 = ADVANCED_FACE('',(#431),#441,.T.);
#431 = FACE_BOUND('',#432,.T.);
#432 = EDGE_LOOP('',(#433,#434));
#433 = ORIENTED_EDGE('',*,*,#362,.T.);
#434 = ORIENTED_EDGE('',*,*,#435,.T.);
#435 = EDGE_CURVE('',#355,#363,#436,.T.);
#436 = CIRCLE('',#437,7.);
#437 = AXIS2_PLACEMENT_3D('',#438,#439,#440);
#438 = CARTESIAN_POINT('',(3.,84.,-85.55664569454));
#439 = DIRECTION('',(0.,0.5,0.866025403784));
#440 = DIRECTION('',(0.,0.866025403784,-0.5));
#441 = CYLINDRICAL_SURFACE('',#442,7.);
#442 = AXIS2_PLACEMENT_3D('',#443,#444,#445);
#443 = CARTESIAN_POINT('',(3.,84.,-85.55664569454));
#444 = DIRECTION('',(0.,0.5,0.866025403784));
#445 = DIRECTION('',(0.,0.866025403784,-0.5));
#446 = ADVANCED_FACE('',(#447),#450,.F.);
#447 = FACE_BOUND('',#448,.F.);
#448 = EDGE_LOOP('',(#449));
#449 = ORIENTED_EDGE('',*,*,#417,.T.);
#450 = PLANE('',#451);
#451 = AXIS2_PLACEMENT_3D('',#452,#453,#454);
#452 = CARTESIAN_POINT('',(3.,85.,-48.80238088911));
#453 = DIRECTION('',(0.,0.5,0.866025403784));
#454 = DIRECTION('',(0.,0.866025403784,-0.5));
#455 = ADVANCED_FACE('',(#456,#474),#508,.T.);
#456 = FACE_BOUND('',#457,.T.);
#457 = EDGE_LOOP('',(#458,#459,#460,#468));
#458 = ORIENTED_EDGE('',*,*,#212,.F.);
#459 = ORIENTED_EDGE('',*,*,#244,.T.);
#460 = ORIENTED_EDGE('',*,*,#461,.T.);
#461 = EDGE_CURVE('',#237,#462,#464,.T.);
#462 = VERTEX_POINT('',#463);
#463 = CARTESIAN_POINT('',(6.,54.6,17.));
#464 = LINE('',#465,#466);
#465 = CARTESIAN_POINT('',(6.,54.6,-15.));
#466 = VECTOR('',#467,1.);
#467 = DIRECTION('',(0.,0.,1.));
#468 = ORIENTED_EDGE('',*,*,#469,.F.);
#469 = EDGE_CURVE('',#139,#462,#470,.T.);
#470 = LINE('',#471,#472);
#471 = CARTESIAN_POINT('',(0.,54.6,17.));
#472 = VECTOR('',#473,1.);
#473 = DIRECTION('',(1.,0.,0.));
#474 = FACE_BOUND('',#475,.T.);
#475 = EDGE_LOOP('',(#476,#486,#494,#502));
#476 = ORIENTED_EDGE('',*,*,#477,.T.);
#477 = EDGE_CURVE('',#478,#480,#482,.T.);
#478 = VERTEX_POINT('',#479);
#479 = CARTESIAN_POINT('',(5.8,54.6,-4.8));
#480 = VERTEX_POINT('',#481);
#481 = CARTESIAN_POINT('',(0.2,54.6,-4.8));
#482 = LINE('',#483,#484);
#483 = CARTESIAN_POINT('',(0.1,54.6,-4.8));
#484 = VECTOR('',#485,1.);
#485 = DIRECTION('',(-1.,0.,0.));
#486 = ORIENTED_EDGE('',*,*,#487,.T.);
#487 = EDGE_CURVE('',#480,#488,#490,.T.);
#488 = VERTEX_POINT('',#489);
#489 = CARTESIAN_POINT('',(0.2,54.6,-2.2));
#490 = LINE('',#491,#492);
#491 = CARTESIAN_POINT('',(0.2,54.6,-9.9));
#492 = VECTOR('',#493,1.);
#493 = DIRECTION('',(0.,0.,1.));
#494 = ORIENTED_EDGE('',*,*,#495,.F.);
#495 = EDGE_CURVE('',#496,#488,#498,.T.);
#496 = VERTEX_POINT('',#497);
#497 = CARTESIAN_POINT('',(5.8,54.6,-2.2));
#498 = LINE('',#499,#500);
#499 = CARTESIAN_POINT('',(0.1,54.6,-2.2));
#500 = VECTOR('',#501,1.);
#501 = DIRECTION('',(-1.,0.,0.));
#502 = ORIENTED_EDGE('',*,*,#503,.F.);
#503 = EDGE_CURVE('',#478,#496,#504,.T.);
#504 = LINE('',#505,#506);
#505 = CARTESIAN_POINT('',(5.8,54.6,-9.9));
#506 = VECTOR('',#507,1.);
#507 = DIRECTION('',(0.,0.,1.));
#508 = PLANE('',#509);
#509 = AXIS2_PLACEMENT_3D('',#510,#511,#512);
#510 = CARTESIAN_POINT('',(3.,54.6,1.));
#511 = DIRECTION('',(-0.,-1.,-0.));
#512 = DIRECTION('',(0.,0.,-1.));
#513 = ADVANCED_FACE('',(#514),#548,.F.);
#514 = FACE_BOUND('',#515,.F.);
#515 = EDGE_LOOP('',(#516,#526,#534,#542));
#516 = ORIENTED_EDGE('',*,*,#517,.T.);
#517 = EDGE_CURVE('',#518,#520,#522,.T.);
#518 = VERTEX_POINT('',#519);
#519 = CARTESIAN_POINT('',(0.2,-5.6,-7.6));
#520 = VERTEX_POINT('',#521);
#521 = CARTESIAN_POINT('',(5.8,-5.6,-7.6));
#522 = LINE('',#523,#524);
#523 = CARTESIAN_POINT('',(0.2,-5.6,-7.6));
#524 = VECTOR('',#525,1.);
#525 = DIRECTION('',(1.,0.,0.));
#526 = ORIENTED_EDGE('',*,*,#527,.T.);
#527 = EDGE_CURVE('',#520,#528,#530,.T.);
#528 = VERTEX_POINT('',#529);
#529 = CARTESIAN_POINT('',(5.8,-5.6,-4.8));
#530 = LINE('',#531,#532);
#531 = CARTESIAN_POINT('',(5.8,-5.6,-7.6));
#532 = VECTOR('',#533,1.);
#533 = DIRECTION('',(0.,0.,1.));
#534 = ORIENTED_EDGE('',*,*,#535,.F.);
#535 = EDGE_CURVE('',#536,#528,#538,.T.);
#536 = VERTEX_POINT('',#537);
#537 = CARTESIAN_POINT('',(0.2,-5.6,-4.8));
#538 = LINE('',#539,#540);
#539 = CARTESIAN_POINT('',(0.2,-5.6,-4.8));
#540 = VECTOR('',#541,1.);
#541 = DIRECTION('',(1.,0.,0.));
#542 = ORIENTED_EDGE('',*,*,#543,.F.);
#543 = EDGE_CURVE('',#518,#536,#544,.T.);
#544 = LINE('',#545,#546);
#545 = CARTESIAN_POINT('',(0.2,-5.6,-7.6));
#546 = VECTOR('',#547,1.);
#547 = DIRECTION('',(0.,0.,1.));
#548 = PLANE('',#549);
#549 = AXIS2_PLACEMENT_3D('',#550,#551,#552);
#550 = CARTESIAN_POINT('',(0.2,-5.6,-7.6));
#551 = DIRECTION('',(0.,-1.,0.));
#552 = DIRECTION('',(0.,0.,1.));
#553 = ADVANCED_FACE('',(#554),#579,.F.);
#554 = FACE_BOUND('',#555,.F.);
#555 = EDGE_LOOP('',(#556,#566,#572,#573));
#556 = ORIENTED_EDGE('',*,*,#557,.T.);
#557 = EDGE_CURVE('',#558,#560,#562,.T.);
#558 = VERTEX_POINT('',#559);
#559 = CARTESIAN_POINT('',(0.2,-9.,-7.6));
#560 = VERTEX_POINT('',#561);
#561 = CARTESIAN_POINT('',(5.8,-9.,-7.6));
#562 = LINE('',#563,#564);
#563 = CARTESIAN_POINT('',(0.2,-9.,-7.6));
#564 = VECTOR('',#565,1.);
#565 = DIRECTION('',(1.,0.,0.));
#566 = ORIENTED_EDGE('',*,*,#567,.T.);
#567 = EDGE_CURVE('',#560,#520,#568,.T.);
#568 = LINE('',#569,#570);
#569 = CARTESIAN_POINT('',(5.8,-9.,-7.6));
#570 = VECTOR('',#571,1.);
#571 = DIRECTION('',(0.,1.,0.));
#572 = ORIENTED_EDGE('',*,*,#517,.F.);
#573 = ORIENTED_EDGE('',*,*,#574,.F.);
#574 = EDGE_CURVE('',#558,#518,#575,.T.);
#575 = LINE('',#576,#577);
#576 = CARTESIAN_POINT('',(0.2,-9.,-7.6));
#577 = VECTOR('',#578,1.);
#578 = DIRECTION('',(0.,1.,0.));
#579 = PLANE('',#580);
#580 = AXIS2_PLACEMENT_3D('',#581,#582,#583);
#581 = CARTESIAN_POINT('',(0.2,-9.,-7.6));
#582 = DIRECTION('',(0.,0.,1.));
#583 = DIRECTION('',(0.,1.,0.));
#584 = ADVANCED_FACE('',(#585),#610,.F.);
#585 = FACE_BOUND('',#586,.F.);
#586 = EDGE_LOOP('',(#587,#595,#603,#609));
#587 = ORIENTED_EDGE('',*,*,#588,.F.);
#588 = EDGE_CURVE('',#589,#558,#591,.T.);
#589 = VERTEX_POINT('',#590);
#590 = CARTESIAN_POINT('',(0.2,-9.6,-7.32));
#591 = LINE('',#592,#593);
#592 = CARTESIAN_POINT('',(0.2,-15.,-4.8));
#593 = VECTOR('',#594,1.);
#594 = DIRECTION('',(0.,0.906183139995,-0.422885465331));
#595 = ORIENTED_EDGE('',*,*,#596,.F.);
#596 = EDGE_CURVE('',#597,#589,#599,.T.);
#597 = VERTEX_POINT('',#598);
#598 = CARTESIAN_POINT('',(5.8,-9.6,-7.32));
#599 = LINE('',#600,#601);
#600 = CARTESIAN_POINT('',(0.1,-9.6,-7.32));
#601 = VECTOR('',#602,1.);
#602 = DIRECTION('',(-1.,0.,0.));
#603 = ORIENTED_EDGE('',*,*,#604,.T.);
#604 = EDGE_CURVE('',#597,#560,#605,.T.);
#605 = LINE('',#606,#607);
#606 = CARTESIAN_POINT('',(5.8,-15.,-4.8));
#607 = VECTOR('',#608,1.);
#608 = DIRECTION('',(0.,0.906183139995,-0.422885465331));
#609 = ORIENTED_EDGE('',*,*,#557,.F.);
#610 = PLANE('',#611);
#611 = AXIS2_PLACEMENT_3D('',#612,#613,#614);
#612 = CARTESIAN_POINT('',(0.2,-15.,-4.8));
#613 = DIRECTION('',(-0.,0.422885465331,0.906183139995));
#614 = DIRECTION('',(0.,0.906183139995,-0.422885465331));
#615 = ADVANCED_FACE('',(#616),#673,.T.);
#616 = FACE_BOUND('',#617,.T.);
#617 = EDGE_LOOP('',(#618,#628,#636,#644,#652,#658,#659,#667));
#618 = ORIENTED_EDGE('',*,*,#619,.F.);
#619 = EDGE_CURVE('',#620,#622,#624,.T.);
#620 = VERTEX_POINT('',#621);
#621 = CARTESIAN_POINT('',(6.,-9.6,-9.));
#622 = VERTEX_POINT('',#623);
#623 = CARTESIAN_POINT('',(6.,-9.6,-2.2));
#624 = LINE('',#625,#626);
#625 = CARTESIAN_POINT('',(6.,-9.6,-9.));
#626 = VECTOR('',#627,1.);
#627 = DIRECTION('',(0.,0.,1.));
#628 = ORIENTED_EDGE('',*,*,#629,.F.);
#629 = EDGE_CURVE('',#630,#620,#632,.T.);
#630 = VERTEX_POINT('',#631);
#631 = CARTESIAN_POINT('',(0.,-9.6,-9.));
#632 = LINE('',#633,#634);
#633 = CARTESIAN_POINT('',(0.,-9.6,-9.));
#634 = VECTOR('',#635,1.);
#635 = DIRECTION('',(1.,0.,-0.));
#636 = ORIENTED_EDGE('',*,*,#637,.T.);
#637 = EDGE_CURVE('',#630,#638,#640,.T.);
#638 = VERTEX_POINT('',#639);
#639 = CARTESIAN_POINT('',(0.,-9.6,-2.2));
#640 = LINE('',#641,#642);
#641 = CARTESIAN_POINT('',(0.,-9.6,-9.));
#642 = VECTOR('',#643,1.);
#643 = DIRECTION('',(0.,0.,1.));
#644 = ORIENTED_EDGE('',*,*,#645,.T.);
#645 = EDGE_CURVE('',#638,#646,#648,.T.);
#646 = VERTEX_POINT('',#647);
#647 = CARTESIAN_POINT('',(0.2,-9.6,-2.2));
#648 = LINE('',#649,#650);
#649 = CARTESIAN_POINT('',(0.,-9.6,-2.2));
#650 = VECTOR('',#651,1.);
#651 = DIRECTION('',(1.,0.,-0.));
#652 = ORIENTED_EDGE('',*,*,#653,.T.);
#653 = EDGE_CURVE('',#646,#589,#654,.T.);
#654 = LINE('',#655,#656);
#655 = CARTESIAN_POINT('',(0.2,-9.6,-5.689008880312));
#656 = VECTOR('',#657,1.);
#657 = DIRECTION('',(0.,0.,-1.));
#658 = ORIENTED_EDGE('',*,*,#596,.F.);
#659 = ORIENTED_EDGE('',*,*,#660,.T.);
#660 = EDGE_CURVE('',#597,#661,#663,.T.);
#661 = VERTEX_POINT('',#662);
#662 = CARTESIAN_POINT('',(5.8,-9.6,-2.2));
#663 = LINE('',#664,#665);
#664 = CARTESIAN_POINT('',(5.8,-9.6,-7.410991119688));
#665 = VECTOR('',#666,1.);
#666 = DIRECTION('',(0.,-0.,1.));
#667 = ORIENTED_EDGE('',*,*,#668,.T.);
#668 = EDGE_CURVE('',#661,#622,#669,.T.);
#669 = LINE('',#670,#671);
#670 = CARTESIAN_POINT('',(0.,-9.6,-2.2));
#671 = VECTOR('',#672,1.);
#672 = DIRECTION('',(1.,0.,-0.));
#673 = PLANE('',#674);
#674 = AXIS2_PLACEMENT_3D('',#675,#676,#677);
#675 = CARTESIAN_POINT('',(0.,-9.6,-9.));
#676 = DIRECTION('',(-0.,1.,0.));
#677 = DIRECTION('',(0.,0.,1.));
#678 = ADVANCED_FACE('',(#679),#727,.T.);
#679 = FACE_BOUND('',#680,.T.);
#680 = EDGE_LOOP('',(#681,#682,#690,#698,#704,#705,#713,#721));
#681 = ORIENTED_EDGE('',*,*,#645,.F.);
#682 = ORIENTED_EDGE('',*,*,#683,.F.);
#683 = EDGE_CURVE('',#684,#638,#686,.T.);
#684 = VERTEX_POINT('',#685);
#685 = CARTESIAN_POINT('',(0.,-17.6,-2.2));
#686 = LINE('',#687,#688);
#687 = CARTESIAN_POINT('',(0.,-17.6,-2.2));
#688 = VECTOR('',#689,1.);
#689 = DIRECTION('',(-0.,1.,0.));
#690 = ORIENTED_EDGE('',*,*,#691,.T.);
#691 = EDGE_CURVE('',#684,#692,#694,.T.);
#692 = VERTEX_POINT('',#693);
#693 = CARTESIAN_POINT('',(6.,-17.6,-2.2));
#694 = LINE('',#695,#696);
#695 = CARTESIAN_POINT('',(0.,-17.6,-2.2));
#696 = VECTOR('',#697,1.);
#697 = DIRECTION('',(1.,0.,-0.));
#698 = ORIENTED_EDGE('',*,*,#699,.T.);
#699 = EDGE_CURVE('',#692,#622,#700,.T.);
#700 = LINE('',#701,#702);
#701 = CARTESIAN_POINT('',(6.,-17.6,-2.2));
#702 = VECTOR('',#703,1.);
#703 = DIRECTION('',(-0.,1.,0.));
#704 = ORIENTED_EDGE('',*,*,#668,.F.);
#705 = ORIENTED_EDGE('',*,*,#706,.F.);
#706 = EDGE_CURVE('',#707,#661,#709,.T.);
#707 = VERTEX_POINT('',#708);
#708 = CARTESIAN_POINT('',(5.8,-12.42857142857,-2.2));
#709 = LINE('',#710,#711);
#710 = CARTESIAN_POINT('',(5.8,-13.67764726786,-2.2));
#711 = VECTOR('',#712,1.);
#712 = DIRECTION('',(0.,1.,0.));
#713 = ORIENTED_EDGE('',*,*,#714,.T.);
#714 = EDGE_CURVE('',#707,#715,#717,.T.);
#715 = VERTEX_POINT('',#716);
#716 = CARTESIAN_POINT('',(0.2,-12.42857142857,-2.2));
#717 = LINE('',#718,#719);
#718 = CARTESIAN_POINT('',(0.1,-12.42857142857,-2.2));
#719 = VECTOR('',#720,1.);
#720 = DIRECTION('',(-1.,0.,0.));
#721 = ORIENTED_EDGE('',*,*,#722,.T.);
#722 = EDGE_CURVE('',#715,#646,#723,.T.);
#723 = LINE('',#724,#725);
#724 = CARTESIAN_POINT('',(0.2,-13.67764726786,-2.2));
#725 = VECTOR('',#726,1.);
#726 = DIRECTION('',(0.,1.,0.));
#727 = PLANE('',#728);
#728 = AXIS2_PLACEMENT_3D('',#729,#730,#731);
#729 = CARTESIAN_POINT('',(0.,-17.6,-2.2));
#730 = DIRECTION('',(0.,0.,1.));
#731 = DIRECTION('',(1.,0.,-0.));
#732 = ADVANCED_FACE('',(#733),#758,.T.);
#733 = FACE_BOUND('',#734,.T.);
#734 = EDGE_LOOP('',(#735,#743,#751,#757));
#735 = ORIENTED_EDGE('',*,*,#736,.F.);
#736 = EDGE_CURVE('',#737,#488,#739,.T.);
#737 = VERTEX_POINT('',#738);
#738 = CARTESIAN_POINT('',(0.2,-1.,-2.2));
#739 = LINE('',#740,#741);
#740 = CARTESIAN_POINT('',(0.2,-1.,-2.2));
#741 = VECTOR('',#742,1.);
#742 = DIRECTION('',(-0.,1.,0.));
#743 = ORIENTED_EDGE('',*,*,#744,.T.);
#744 = EDGE_CURVE('',#737,#745,#747,.T.);
#745 = VERTEX_POINT('',#746);
#746 = CARTESIAN_POINT('',(5.8,-1.,-2.2));
#747 = LINE('',#748,#749);
#748 = CARTESIAN_POINT('',(0.2,-1.,-2.2));
#749 = VECTOR('',#750,1.);
#750 = DIRECTION('',(1.,0.,-0.));
#751 = ORIENTED_EDGE('',*,*,#752,.T.);
#752 = EDGE_CURVE('',#745,#496,#753,.T.);
#753 = LINE('',#754,#755);
#754 = CARTESIAN_POINT('',(5.8,-1.,-2.2));
#755 = VECTOR('',#756,1.);
#756 = DIRECTION('',(-0.,1.,0.));
#757 = ORIENTED_EDGE('',*,*,#495,.T.);
#758 = PLANE('',#759);
#759 = AXIS2_PLACEMENT_3D('',#760,#761,#762);
#760 = CARTESIAN_POINT('',(0.2,-1.,-2.2));
#761 = DIRECTION('',(0.,0.,1.));
#762 = DIRECTION('',(1.,0.,-0.));
#763 = ADVANCED_FACE('',(#764),#789,.F.);
#764 = FACE_BOUND('',#765,.F.);
#765 = EDGE_LOOP('',(#766,#776,#782,#783));
#766 = ORIENTED_EDGE('',*,*,#767,.F.);
#767 = EDGE_CURVE('',#768,#770,#772,.T.);
#768 = VERTEX_POINT('',#769);
#769 = CARTESIAN_POINT('',(0.2,-1.,-3.4));
#770 = VERTEX_POINT('',#771);
#771 = CARTESIAN_POINT('',(5.8,-1.,-3.4));
#772 = LINE('',#773,#774);
#773 = CARTESIAN_POINT('',(0.2,-1.,-3.4));
#774 = VECTOR('',#775,1.);
#775 = DIRECTION('',(1.,0.,-0.));
#776 = ORIENTED_EDGE('',*,*,#777,.T.);
#777 = EDGE_CURVE('',#768,#737,#778,.T.);
#778 = LINE('',#779,#780);
#779 = CARTESIAN_POINT('',(0.2,-1.,-4.8));
#780 = VECTOR('',#781,1.);
#781 = DIRECTION('',(0.,0.,1.));
#782 = ORIENTED_EDGE('',*,*,#744,.T.);
#783 = ORIENTED_EDGE('',*,*,#784,.F.);
#784 = EDGE_CURVE('',#770,#745,#785,.T.);
#785 = LINE('',#786,#787);
#786 = CARTESIAN_POINT('',(5.8,-1.,-4.8));
#787 = VECTOR('',#788,1.);
#788 = DIRECTION('',(0.,0.,1.));
#789 = PLANE('',#790);
#790 = AXIS2_PLACEMENT_3D('',#791,#792,#793);
#791 = CARTESIAN_POINT('',(0.2,-1.,-4.8));
#792 = DIRECTION('',(-0.,1.,0.));
#793 = DIRECTION('',(0.,0.,1.));
#794 = ADVANCED_FACE('',(#795),#820,.T.);
#795 = FACE_BOUND('',#796,.T.);
#796 = EDGE_LOOP('',(#797,#805,#813,#819));
#797 = ORIENTED_EDGE('',*,*,#798,.F.);
#798 = EDGE_CURVE('',#799,#768,#801,.T.);
#799 = VERTEX_POINT('',#800);
#800 = CARTESIAN_POINT('',(0.2,-5.6,-3.4));
#801 = LINE('',#802,#803);
#802 = CARTESIAN_POINT('',(0.2,-22.,-3.4));
#803 = VECTOR('',#804,1.);
#804 = DIRECTION('',(-0.,1.,0.));
#805 = ORIENTED_EDGE('',*,*,#806,.T.);
#806 = EDGE_CURVE('',#799,#807,#809,.T.);
#807 = VERTEX_POINT('',#808);
#808 = CARTESIAN_POINT('',(5.8,-5.6,-3.4));
#809 = LINE('',#810,#811);
#810 = CARTESIAN_POINT('',(0.2,-5.6,-3.4));
#811 = VECTOR('',#812,1.);
#812 = DIRECTION('',(1.,0.,0.));
#813 = ORIENTED_EDGE('',*,*,#814,.T.);
#814 = EDGE_CURVE('',#807,#770,#815,.T.);
#815 = LINE('',#816,#817);
#816 = CARTESIAN_POINT('',(5.8,-22.,-3.4));
#817 = VECTOR('',#818,1.);
#818 = DIRECTION('',(-0.,1.,0.));
#819 = ORIENTED_EDGE('',*,*,#767,.F.);
#820 = PLANE('',#821);
#821 = AXIS2_PLACEMENT_3D('',#822,#823,#824);
#822 = CARTESIAN_POINT('',(0.2,-22.,-3.4));
#823 = DIRECTION('',(0.,0.,1.));
#824 = DIRECTION('',(1.,0.,-0.));
#825 = ADVANCED_FACE('',(#826),#851,.T.);
#826 = FACE_BOUND('',#827,.T.);
#827 = EDGE_LOOP('',(#828,#838,#844,#845));
#828 = ORIENTED_EDGE('',*,*,#829,.T.);
#829 = EDGE_CURVE('',#830,#832,#834,.T.);
#830 = VERTEX_POINT('',#831);
#831 = CARTESIAN_POINT('',(0.2,-5.6,-0.6));
#832 = VERTEX_POINT('',#833);
#833 = CARTESIAN_POINT('',(5.8,-5.6,-0.6));
#834 = LINE('',#835,#836);
#835 = CARTESIAN_POINT('',(0.2,-5.6,-0.6));
#836 = VECTOR('',#837,1.);
#837 = DIRECTION('',(1.,0.,0.));
#838 = ORIENTED_EDGE('',*,*,#839,.T.);
#839 = EDGE_CURVE('',#832,#807,#840,.T.);
#840 = LINE('',#841,#842);
#841 = CARTESIAN_POINT('',(5.8,-5.6,-0.6));
#842 = VECTOR('',#843,1.);
#843 = DIRECTION('',(0.,0.,-1.));
#844 = ORIENTED_EDGE('',*,*,#806,.F.);
#845 = ORIENTED_EDGE('',*,*,#846,.F.);
#846 = EDGE_CURVE('',#830,#799,#847,.T.);
#847 = LINE('',#848,#849);
#848 = CARTESIAN_POINT('',(0.2,-5.6,-0.6));
#849 = VECTOR('',#850,1.);
#850 = DIRECTION('',(0.,0.,-1.));
#851 = PLANE('',#852);
#852 = AXIS2_PLACEMENT_3D('',#853,#854,#855);
#853 = CARTESIAN_POINT('',(0.2,-5.6,-0.6));
#854 = DIRECTION('',(-0.,1.,0.));
#855 = DIRECTION('',(0.,0.,-1.));
#856 = ADVANCED_FACE('',(#857),#882,.T.);
#857 = FACE_BOUND('',#858,.T.);
#858 = EDGE_LOOP('',(#859,#869,#875,#876));
#859 = ORIENTED_EDGE('',*,*,#860,.T.);
#860 = EDGE_CURVE('',#861,#863,#865,.T.);
#861 = VERTEX_POINT('',#862);
#862 = CARTESIAN_POINT('',(0.2,-9.,-0.6));
#863 = VERTEX_POINT('',#864);
#864 = CARTESIAN_POINT('',(5.8,-9.,-0.6));
#865 = LINE('',#866,#867);
#866 = CARTESIAN_POINT('',(0.2,-9.,-0.6));
#867 = VECTOR('',#868,1.);
#868 = DIRECTION('',(1.,0.,0.));
#869 = ORIENTED_EDGE('',*,*,#870,.T.);
#870 = EDGE_CURVE('',#863,#832,#871,.T.);
#871 = LINE('',#872,#873);
#872 = CARTESIAN_POINT('',(5.8,-9.,-0.6));
#873 = VECTOR('',#874,1.);
#874 = DIRECTION('',(0.,1.,0.));
#875 = ORIENTED_EDGE('',*,*,#829,.F.);
#876 = ORIENTED_EDGE('',*,*,#877,.F.);
#877 = EDGE_CURVE('',#861,#830,#878,.T.);
#878 = LINE('',#879,#880);
#879 = CARTESIAN_POINT('',(0.2,-9.,-0.6));
#880 = VECTOR('',#881,1.);
#881 = DIRECTION('',(0.,1.,0.));
#882 = PLANE('',#883);
#883 = AXIS2_PLACEMENT_3D('',#884,#885,#886);
#884 = CARTESIAN_POINT('',(0.2,-9.,-0.6));
#885 = DIRECTION('',(0.,0.,1.));
#886 = DIRECTION('',(0.,1.,0.));
#887 = ADVANCED_FACE('',(#888),#913,.T.);
#888 = FACE_BOUND('',#889,.T.);
#889 = EDGE_LOOP('',(#890,#898,#906,#912));
#890 = ORIENTED_EDGE('',*,*,#891,.F.);
#891 = EDGE_CURVE('',#892,#861,#894,.T.);
#892 = VERTEX_POINT('',#893);
#893 = CARTESIAN_POINT('',(0.2,-10.,-1.066666666667));
#894 = LINE('',#895,#896);
#895 = CARTESIAN_POINT('',(0.2,-15.,-3.4));
#896 = VECTOR('',#897,1.);
#897 = DIRECTION('',(0.,0.906183139995,0.422885465331));
#898 = ORIENTED_EDGE('',*,*,#899,.F.);
#899 = EDGE_CURVE('',#900,#892,#902,.T.);
#900 = VERTEX_POINT('',#901);
#901 = CARTESIAN_POINT('',(5.8,-10.,-1.066666666667));
#902 = LINE('',#903,#904);
#903 = CARTESIAN_POINT('',(-3.9,-10.,-1.066666666667));
#904 = VECTOR('',#905,1.);
#905 = DIRECTION('',(-1.,-0.,0.));
#906 = ORIENTED_EDGE('',*,*,#907,.T.);
#907 = EDGE_CURVE('',#900,#863,#908,.T.);
#908 = LINE('',#909,#910);
#909 = CARTESIAN_POINT('',(5.8,-15.,-3.4));
#910 = VECTOR('',#911,1.);
#911 = DIRECTION('',(0.,0.906183139995,0.422885465331));
#912 = ORIENTED_EDGE('',*,*,#860,.F.);
#913 = PLANE('',#914);
#914 = AXIS2_PLACEMENT_3D('',#915,#916,#917);
#915 = CARTESIAN_POINT('',(0.2,-15.,-3.4));
#916 = DIRECTION('',(0.,-0.422885465331,0.906183139995));
#917 = DIRECTION('',(0.,0.906183139995,0.422885465331));
#918 = ADVANCED_FACE('',(#919),#944,.F.);
#919 = FACE_BOUND('',#920,.F.);
#920 = EDGE_LOOP('',(#921,#931,#937,#938));
#921 = ORIENTED_EDGE('',*,*,#922,.F.);
#922 = EDGE_CURVE('',#923,#925,#927,.T.);
#923 = VERTEX_POINT('',#924);
#924 = CARTESIAN_POINT('',(0.2,-10.,-1.4));
#925 = VERTEX_POINT('',#926);
#926 = CARTESIAN_POINT('',(5.8,-10.,-1.4));
#927 = LINE('',#928,#929);
#928 = CARTESIAN_POINT('',(-8.,-10.,-1.4));
#929 = VECTOR('',#930,1.);
#930 = DIRECTION('',(1.,0.,-0.));
#931 = ORIENTED_EDGE('',*,*,#932,.F.);
#932 = EDGE_CURVE('',#892,#923,#933,.T.);
#933 = LINE('',#934,#935);
#934 = CARTESIAN_POINT('',(0.2,-10.,-1.889008880312));
#935 = VECTOR('',#936,1.);
#936 = DIRECTION('',(0.,0.,-1.));
#937 = ORIENTED_EDGE('',*,*,#899,.F.);
#938 = ORIENTED_EDGE('',*,*,#939,.T.);
#939 = EDGE_CURVE('',#900,#925,#940,.T.);
#940 = LINE('',#941,#942);
#941 = CARTESIAN_POINT('',(5.8,-10.,-1.889008880312));
#942 = VECTOR('',#943,1.);
#943 = DIRECTION('',(0.,0.,-1.));
#944 = PLANE('',#945);
#945 = AXIS2_PLACEMENT_3D('',#946,#947,#948);
#946 = CARTESIAN_POINT('',(-8.,-10.,-1.4));
#947 = DIRECTION('',(-0.,1.,0.));
#948 = DIRECTION('',(0.,0.,1.));
#949 = ADVANCED_FACE('',(#950),#975,.T.);
#950 = FACE_BOUND('',#951,.T.);
#951 = EDGE_LOOP('',(#952,#953,#961,#969));
#952 = ORIENTED_EDGE('',*,*,#922,.F.);
#953 = ORIENTED_EDGE('',*,*,#954,.F.);
#954 = EDGE_CURVE('',#955,#923,#957,.T.);
#955 = VERTEX_POINT('',#956);
#956 = CARTESIAN_POINT('',(0.2,-10.71428571428,-1.4));
#957 = LINE('',#958,#959);
#958 = CARTESIAN_POINT('',(0.2,-11.37764726786,-1.4));
#959 = VECTOR('',#960,1.);
#960 = DIRECTION('',(0.,1.,0.));
#961 = ORIENTED_EDGE('',*,*,#962,.F.);
#962 = EDGE_CURVE('',#963,#955,#965,.T.);
#963 = VERTEX_POINT('',#964);
#964 = CARTESIAN_POINT('',(5.8,-10.71428571428,-1.4));
#965 = LINE('',#966,#967);
#966 = CARTESIAN_POINT('',(-3.9,-10.71428571428,-1.4));
#967 = VECTOR('',#968,1.);
#968 = DIRECTION('',(-1.,0.,0.));
#969 = ORIENTED_EDGE('',*,*,#970,.T.);
#970 = EDGE_CURVE('',#963,#925,#971,.T.);
#971 = LINE('',#972,#973);
#972 = CARTESIAN_POINT('',(5.8,-11.37764726786,-1.4));
#973 = VECTOR('',#974,1.);
#974 = DIRECTION('',(0.,1.,0.));
#975 = PLANE('',#976);
#976 = AXIS2_PLACEMENT_3D('',#977,#978,#979);
#977 = CARTESIAN_POINT('',(-8.,-13.,-1.4));
#978 = DIRECTION('',(0.,0.,1.));
#979 = DIRECTION('',(1.,0.,-0.));
#980 = ADVANCED_FACE('',(#981),#997,.T.);
#981 = FACE_BOUND('',#982,.T.);
#982 = EDGE_LOOP('',(#983,#989,#990,#996));
#983 = ORIENTED_EDGE('',*,*,#984,.F.);
#984 = EDGE_CURVE('',#715,#955,#985,.T.);
#985 = LINE('',#986,#987);
#986 = CARTESIAN_POINT('',(0.2,-15.,-3.4));
#987 = VECTOR('',#988,1.);
#988 = DIRECTION('',(0.,0.906183139995,0.422885465331));
#989 = ORIENTED_EDGE('',*,*,#714,.F.);
#990 = ORIENTED_EDGE('',*,*,#991,.T.);
#991 = EDGE_CURVE('',#707,#963,#992,.T.);
#992 = LINE('',#993,#994);
#993 = CARTESIAN_POINT('',(5.8,-15.,-3.4));
#994 = VECTOR('',#995,1.);
#995 = DIRECTION('',(0.,0.906183139995,0.422885465331));
#996 = ORIENTED_EDGE('',*,*,#962,.T.);
#997 = PLANE('',#998);
#998 = AXIS2_PLACEMENT_3D('',#999,#1000,#1001);
#999 = CARTESIAN_POINT('',(0.2,-15.,-3.4));
#1000 = DIRECTION('',(0.,-0.422885465331,0.906183139995));
#1001 = DIRECTION('',(0.,0.906183139995,0.422885465331));
#1002 = ADVANCED_FACE('',(#1003,#1028),#1062,.F.);
#1003 = FACE_BOUND('',#1004,.F.);
#1004 = EDGE_LOOP('',(#1005,#1015,#1021,#1022));
#1005 = ORIENTED_EDGE('',*,*,#1006,.T.);
#1006 = EDGE_CURVE('',#1007,#1009,#1011,.T.);
#1007 = VERTEX_POINT('',#1008);
#1008 = CARTESIAN_POINT('',(6.,-17.6,-5.5));
#1009 = VERTEX_POINT('',#1010);
#1010 = CARTESIAN_POINT('',(0.,-17.6,-5.5));
#1011 = LINE('',#1012,#1013);
#1012 = CARTESIAN_POINT('',(0.,-17.6,-5.5));
#1013 = VECTOR('',#1014,1.);
#1014 = DIRECTION('',(-1.,-0.,0.));
#1015 = ORIENTED_EDGE('',*,*,#1016,.T.);
#1016 = EDGE_CURVE('',#1009,#684,#1017,.T.);
#1017 = LINE('',#1018,#1019);
#1018 = CARTESIAN_POINT('',(0.,-17.6,-9.));
#1019 = VECTOR('',#1020,1.);
#1020 = DIRECTION('',(0.,0.,1.));
#1021 = ORIENTED_EDGE('',*,*,#691,.T.);
#1022 = ORIENTED_EDGE('',*,*,#1023,.F.);
#1023 = EDGE_CURVE('',#1007,#692,#1024,.T.);
#1024 = LINE('',#1025,#1026);
#1025 = CARTESIAN_POINT('',(6.,-17.6,-9.));
#1026 = VECTOR('',#1027,1.);
#1027 = DIRECTION('',(0.,0.,1.));
#1028 = FACE_BOUND('',#1029,.F.);
#1029 = EDGE_LOOP('',(#1030,#1040,#1048,#1056));
#1030 = ORIENTED_EDGE('',*,*,#1031,.F.);
#1031 = EDGE_CURVE('',#1032,#1034,#1036,.T.);
#1032 = VERTEX_POINT('',#1033);
#1033 = CARTESIAN_POINT('',(5.8,-17.6,-4.8));
#1034 = VERTEX_POINT('',#1035);
#1035 = CARTESIAN_POINT('',(0.2,-17.6,-4.8));
#1036 = LINE('',#1037,#1038);
#1037 = CARTESIAN_POINT('',(0.1,-17.6,-4.8));
#1038 = VECTOR('',#1039,1.);
#1039 = DIRECTION('',(-1.,-0.,0.));
#1040 = ORIENTED_EDGE('',*,*,#1041,.T.);
#1041 = EDGE_CURVE('',#1032,#1042,#1044,.T.);
#1042 = VERTEX_POINT('',#1043);
#1043 = CARTESIAN_POINT('',(5.8,-17.6,-3.4));
#1044 = LINE('',#1045,#1046);
#1045 = CARTESIAN_POINT('',(5.8,-17.6,-6.9));
#1046 = VECTOR('',#1047,1.);
#1047 = DIRECTION('',(0.,0.,1.));
#1048 = ORIENTED_EDGE('',*,*,#1049,.T.);
#1049 = EDGE_CURVE('',#1042,#1050,#1052,.T.);
#1050 = VERTEX_POINT('',#1051);
#1051 = CARTESIAN_POINT('',(0.2,-17.6,-3.4));
#1052 = LINE('',#1053,#1054);
#1053 = CARTESIAN_POINT('',(0.1,-17.6,-3.4));
#1054 = VECTOR('',#1055,1.);
#1055 = DIRECTION('',(-1.,-0.,0.));
#1056 = ORIENTED_EDGE('',*,*,#1057,.F.);
#1057 = EDGE_CURVE('',#1034,#1050,#1058,.T.);
#1058 = LINE('',#1059,#1060);
#1059 = CARTESIAN_POINT('',(0.2,-17.6,-6.9));
#1060 = VECTOR('',#1061,1.);
#1061 = DIRECTION('',(0.,0.,1.));
#1062 = PLANE('',#1063);
#1063 = AXIS2_PLACEMENT_3D('',#1064,#1065,#1066);
#1064 = CARTESIAN_POINT('',(0.,-17.6,-9.));
#1065 = DIRECTION('',(-0.,1.,0.));
#1066 = DIRECTION('',(0.,0.,1.));
#1067 = ADVANCED_FACE('',(#1068),#1093,.T.);
#1068 = FACE_BOUND('',#1069,.T.);
#1069 = EDGE_LOOP('',(#1070,#1078,#1086,#1092));
#1070 = ORIENTED_EDGE('',*,*,#1071,.F.);
#1071 = EDGE_CURVE('',#1072,#1009,#1074,.T.);
#1072 = VERTEX_POINT('',#1073);
#1073 = CARTESIAN_POINT('',(0.,-48.6,-5.5));
#1074 = LINE('',#1075,#1076);
#1075 = CARTESIAN_POINT('',(0.,-48.6,-5.5));
#1076 = VECTOR('',#1077,1.);
#1077 = DIRECTION('',(-0.,1.,0.));
#1078 = ORIENTED_EDGE('',*,*,#1079,.T.);
#1079 = EDGE_CURVE('',#1072,#1080,#1082,.T.);
#1080 = VERTEX_POINT('',#1081);
#1081 = CARTESIAN_POINT('',(6.,-48.6,-5.5));
#1082 = LINE('',#1083,#1084);
#1083 = CARTESIAN_POINT('',(0.,-48.6,-5.5));
#1084 = VECTOR('',#1085,1.);
#1085 = DIRECTION('',(1.,0.,-0.));
#1086 = ORIENTED_EDGE('',*,*,#1087,.T.);
#1087 = EDGE_CURVE('',#1080,#1007,#1088,.T.);
#1088 = LINE('',#1089,#1090);
#1089 = CARTESIAN_POINT('',(6.,-48.6,-5.5));
#1090 = VECTOR('',#1091,1.);
#1091 = DIRECTION('',(-0.,1.,0.));
#1092 = ORIENTED_EDGE('',*,*,#1006,.T.);
#1093 = PLANE('',#1094);
#1094 = AXIS2_PLACEMENT_3D('',#1095,#1096,#1097);
#1095 = CARTESIAN_POINT('',(0.,-48.6,-5.5));
#1096 = DIRECTION('',(0.,0.,1.));
#1097 = DIRECTION('',(1.,0.,-0.));
#1098 = ADVANCED_FACE('',(#1099),#1124,.F.);
#1099 = FACE_BOUND('',#1100,.F.);
#1100 = EDGE_LOOP('',(#1101,#1109,#1117,#1123));
#1101 = ORIENTED_EDGE('',*,*,#1102,.F.);
#1102 = EDGE_CURVE('',#1103,#1034,#1105,.T.);
#1103 = VERTEX_POINT('',#1104);
#1104 = CARTESIAN_POINT('',(0.2,-22.,-4.8));
#1105 = LINE('',#1106,#1107);
#1106 = CARTESIAN_POINT('',(0.2,-22.,-4.8));
#1107 = VECTOR('',#1108,1.);
#1108 = DIRECTION('',(-0.,1.,0.));
#1109 = ORIENTED_EDGE('',*,*,#1110,.T.);
#1110 = EDGE_CURVE('',#1103,#1111,#1113,.T.);
#1111 = VERTEX_POINT('',#1112);
#1112 = CARTESIAN_POINT('',(5.8,-22.,-4.8));
#1113 = LINE('',#1114,#1115);
#1114 = CARTESIAN_POINT('',(0.2,-22.,-4.8));
#1115 = VECTOR('',#1116,1.);
#1116 = DIRECTION('',(1.,0.,-0.));
#1117 = ORIENTED_EDGE('',*,*,#1118,.T.);
#1118 = EDGE_CURVE('',#1111,#1032,#1119,.T.);
#1119 = LINE('',#1120,#1121);
#1120 = CARTESIAN_POINT('',(5.8,-22.,-4.8));
#1121 = VECTOR('',#1122,1.);
#1122 = DIRECTION('',(-0.,1.,0.));
#1123 = ORIENTED_EDGE('',*,*,#1031,.T.);
#1124 = PLANE('',#1125);
#1125 = AXIS2_PLACEMENT_3D('',#1126,#1127,#1128);
#1126 = CARTESIAN_POINT('',(0.2,-22.,-4.8));
#1127 = DIRECTION('',(0.,0.,1.));
#1128 = DIRECTION('',(1.,0.,-0.));
#1129 = ADVANCED_FACE('',(#1130),#1148,.F.);
#1130 = FACE_BOUND('',#1131,.F.);
#1131 = EDGE_LOOP('',(#1132,#1140,#1146,#1147));
#1132 = ORIENTED_EDGE('',*,*,#1133,.F.);
#1133 = EDGE_CURVE('',#1134,#1050,#1136,.T.);
#1134 = VERTEX_POINT('',#1135);
#1135 = CARTESIAN_POINT('',(0.2,-22.,-3.4));
#1136 = LINE('',#1137,#1138);
#1137 = CARTESIAN_POINT('',(0.2,-22.,-3.4));
#1138 = VECTOR('',#1139,1.);
#1139 = DIRECTION('',(-0.,1.,0.));
#1140 = ORIENTED_EDGE('',*,*,#1141,.F.);
#1141 = EDGE_CURVE('',#1103,#1134,#1142,.T.);
#1142 = LINE('',#1143,#1144);
#1143 = CARTESIAN_POINT('',(0.2,-22.,-4.8));
#1144 = VECTOR('',#1145,1.);
#1145 = DIRECTION('',(0.,0.,1.));
#1146 = ORIENTED_EDGE('',*,*,#1102,.T.);
#1147 = ORIENTED_EDGE('',*,*,#1057,.T.);
#1148 = PLANE('',#1149);
#1149 = AXIS2_PLACEMENT_3D('',#1150,#1151,#1152);
#1150 = CARTESIAN_POINT('',(0.2,-22.,-4.8));
#1151 = DIRECTION('',(1.,0.,-0.));
#1152 = DIRECTION('',(0.,0.,1.));
#1153 = ADVANCED_FACE('',(#1154),#1172,.T.);
#1154 = FACE_BOUND('',#1155,.T.);
#1155 = EDGE_LOOP('',(#1156,#1157,#1165,#1171));
#1156 = ORIENTED_EDGE('',*,*,#1133,.F.);
#1157 = ORIENTED_EDGE('',*,*,#1158,.T.);
#1158 = EDGE_CURVE('',#1134,#1159,#1161,.T.);
#1159 = VERTEX_POINT('',#1160);
#1160 = CARTESIAN_POINT('',(5.8,-22.,-3.4));
#1161 = LINE('',#1162,#1163);
#1162 = CARTESIAN_POINT('',(0.2,-22.,-3.4));
#1163 = VECTOR('',#1164,1.);
#1164 = DIRECTION('',(1.,0.,-0.));
#1165 = ORIENTED_EDGE('',*,*,#1166,.T.);
#1166 = EDGE_CURVE('',#1159,#1042,#1167,.T.);
#1167 = LINE('',#1168,#1169);
#1168 = CARTESIAN_POINT('',(5.8,-22.,-3.4));
#1169 = VECTOR('',#1170,1.);
#1170 = DIRECTION('',(-0.,1.,0.));
#1171 = ORIENTED_EDGE('',*,*,#1049,.T.);
#1172 = PLANE('',#1173);
#1173 = AXIS2_PLACEMENT_3D('',#1174,#1175,#1176);
#1174 = CARTESIAN_POINT('',(0.2,-22.,-3.4));
#1175 = DIRECTION('',(0.,0.,1.));
#1176 = DIRECTION('',(1.,0.,-0.));
#1177 = ADVANCED_FACE('',(#1178),#1189,.T.);
#1178 = FACE_BOUND('',#1179,.T.);
#1179 = EDGE_LOOP('',(#1180,#1181,#1187,#1188));
#1180 = ORIENTED_EDGE('',*,*,#1166,.F.);
#1181 = ORIENTED_EDGE('',*,*,#1182,.F.);
#1182 = EDGE_CURVE('',#1111,#1159,#1183,.T.);
#1183 = LINE('',#1184,#1185);
#1184 = CARTESIAN_POINT('',(5.8,-22.,-4.8));
#1185 = VECTOR('',#1186,1.);
#1186 = DIRECTION('',(0.,0.,1.));
#1187 = ORIENTED_EDGE('',*,*,#1118,.T.);
#1188 = ORIENTED_EDGE('',*,*,#1041,.T.);
#1189 = PLANE('',#1190);
#1190 = AXIS2_PLACEMENT_3D('',#1191,#1192,#1193);
#1191 = CARTESIAN_POINT('',(5.8,-22.,-4.8));
#1192 = DIRECTION('',(1.,0.,-0.));
#1193 = DIRECTION('',(0.,0.,1.));
#1194 = ADVANCED_FACE('',(#1195),#1220,.F.);
#1195 = FACE_BOUND('',#1196,.F.);
#1196 = EDGE_LOOP('',(#1197,#1207,#1213,#1214));
#1197 = ORIENTED_EDGE('',*,*,#1198,.F.);
#1198 = EDGE_CURVE('',#1199,#1201,#1203,.T.);
#1199 = VERTEX_POINT('',#1200);
#1200 = CARTESIAN_POINT('',(0.,-48.6,-9.));
#1201 = VERTEX_POINT('',#1202);
#1202 = CARTESIAN_POINT('',(6.,-48.6,-9.));
#1203 = LINE('',#1204,#1205);
#1204 = CARTESIAN_POINT('',(0.,-48.6,-9.));
#1205 = VECTOR('',#1206,1.);
#1206 = DIRECTION('',(1.,0.,-0.));
#1207 = ORIENTED_EDGE('',*,*,#1208,.T.);
#1208 = EDGE_CURVE('',#1199,#1072,#1209,.T.);
#1209 = LINE('',#1210,#1211);
#1210 = CARTESIAN_POINT('',(0.,-48.6,-9.));
#1211 = VECTOR('',#1212,1.);
#1212 = DIRECTION('',(0.,0.,1.));
#1213 = ORIENTED_EDGE('',*,*,#1079,.T.);
#1214 = ORIENTED_EDGE('',*,*,#1215,.F.);
#1215 = EDGE_CURVE('',#1201,#1080,#1216,.T.);
#1216 = LINE('',#1217,#1218);
#1217 = CARTESIAN_POINT('',(6.,-48.6,-9.));
#1218 = VECTOR('',#1219,1.);
#1219 = DIRECTION('',(0.,0.,1.));
#1220 = PLANE('',#1221);
#1221 = AXIS2_PLACEMENT_3D('',#1222,#1223,#1224);
#1222 = CARTESIAN_POINT('',(0.,-48.6,-9.));
#1223 = DIRECTION('',(-0.,1.,0.));
#1224 = DIRECTION('',(0.,0.,1.));
#1225 = ADVANCED_FACE('',(#1226),#1232,.F.);
#1226 = FACE_BOUND('',#1227,.F.);
#1227 = EDGE_LOOP('',(#1228,#1229,#1230,#1231));
#1228 = ORIENTED_EDGE('',*,*,#1110,.F.);
#1229 = ORIENTED_EDGE('',*,*,#1141,.T.);
#1230 = ORIENTED_EDGE('',*,*,#1158,.T.);
#1231 = ORIENTED_EDGE('',*,*,#1182,.F.);
#1232 = PLANE('',#1233);
#1233 = AXIS2_PLACEMENT_3D('',#1234,#1235,#1236);
#1234 = CARTESIAN_POINT('',(0.2,-22.,-4.8));
#1235 = DIRECTION('',(-0.,1.,0.));
#1236 = DIRECTION('',(0.,0.,1.));
#1237 = ADVANCED_FACE('',(#1238),#1251,.T.);
#1238 = FACE_BOUND('',#1239,.T.);
#1239 = EDGE_LOOP('',(#1240,#1241,#1242,#1243,#1249,#1250));
#1240 = ORIENTED_EDGE('',*,*,#1016,.T.);
#1241 = ORIENTED_EDGE('',*,*,#683,.T.);
#1242 = ORIENTED_EDGE('',*,*,#637,.F.);
#1243 = ORIENTED_EDGE('',*,*,#1244,.F.);
#1244 = EDGE_CURVE('',#1199,#630,#1245,.T.);
#1245 = LINE('',#1246,#1247);
#1246 = CARTESIAN_POINT('',(0.,-17.6,-9.));
#1247 = VECTOR('',#1248,1.);
#1248 = DIRECTION('',(-0.,1.,0.));
#1249 = ORIENTED_EDGE('',*,*,#1208,.T.);
#1250 = ORIENTED_EDGE('',*,*,#1071,.T.);
#1251 = PLANE('',#1252);
#1252 = AXIS2_PLACEMENT_3D('',#1253,#1254,#1255);
#1253 = CARTESIAN_POINT('',(0.,-27.98318777292,-6.716812227074));
#1254 = DIRECTION('',(-1.,-0.,-0.));
#1255 = DIRECTION('',(0.,0.,-1.));
#1256 = ADVANCED_FACE('',(#1257),#1268,.T.);
#1257 = FACE_BOUND('',#1258,.T.);
#1258 = EDGE_LOOP('',(#1259,#1260,#1261,#1267));
#1259 = ORIENTED_EDGE('',*,*,#138,.F.);
#1260 = ORIENTED_EDGE('',*,*,#469,.T.);
#1261 = ORIENTED_EDGE('',*,*,#1262,.T.);
#1262 = EDGE_CURVE('',#462,#80,#1263,.T.);
#1263 = LINE('',#1264,#1265);
#1264 = CARTESIAN_POINT('',(6.,54.6,17.));
#1265 = VECTOR('',#1266,1.);
#1266 = DIRECTION('',(0.,1.,0.));
#1267 = ORIENTED_EDGE('',*,*,#79,.F.);
#1268 = PLANE('',#1269);
#1269 = AXIS2_PLACEMENT_3D('',#1270,#1271,#1272);
#1270 = CARTESIAN_POINT('',(3.,61.6,17.));
#1271 = DIRECTION('',(0.,0.,1.));
#1272 = DIRECTION('',(1.,0.,-0.));
#1273 = ADVANCED_FACE('',(#1274),#1300,.T.);
#1274 = FACE_BOUND('',#1275,.T.);
#1275 = EDGE_LOOP('',(#1276,#1277,#1278,#1279,#1280,#1281,#1282,#1283,
    #1291,#1297,#1298,#1299));
#1276 = ORIENTED_EDGE('',*,*,#461,.F.);
#1277 = ORIENTED_EDGE('',*,*,#236,.F.);
#1278 = ORIENTED_EDGE('',*,*,#292,.T.);
#1279 = ORIENTED_EDGE('',*,*,#395,.T.);
#1280 = ORIENTED_EDGE('',*,*,#275,.F.);
#1281 = ORIENTED_EDGE('',*,*,#320,.F.);
#1282 = ORIENTED_EDGE('',*,*,#379,.F.);
#1283 = ORIENTED_EDGE('',*,*,#1284,.F.);
#1284 = EDGE_CURVE('',#1285,#372,#1287,.T.);
#1285 = VERTEX_POINT('',#1286);
#1286 = CARTESIAN_POINT('',(6.,78.522774424948,-82.39436803437));
#1287 = LINE('',#1288,#1289);
#1288 = CARTESIAN_POINT('',(6.,90.,-89.02074730968));
#1289 = VECTOR('',#1290,1.);
#1290 = DIRECTION('',(0.,-0.866025403784,0.5));
#1291 = ORIENTED_EDGE('',*,*,#1292,.T.);
#1292 = EDGE_CURVE('',#1285,#22,#1293,.T.);
#1293 = LINE('',#1294,#1295);
#1294 = CARTESIAN_POINT('',(6.,78.522774424948,-82.39436803437));
#1295 = VECTOR('',#1296,1.);
#1296 = DIRECTION('',(0.,0.5,0.866025403784));
#1297 = ORIENTED_EDGE('',*,*,#57,.T.);
#1298 = ORIENTED_EDGE('',*,*,#87,.F.);
#1299 = ORIENTED_EDGE('',*,*,#1262,.F.);
#1300 = PLANE('',#1301);
#1301 = AXIS2_PLACEMENT_3D('',#1302,#1303,#1304);
#1302 = CARTESIAN_POINT('',(6.,73.274308644118,-34.6340771687));
#1303 = DIRECTION('',(1.,0.,0.));
#1304 = DIRECTION('',(-0.,0.,1.));
#1305 = ADVANCED_FACE('',(#1306),#1319,.T.);
#1306 = FACE_BOUND('',#1307,.T.);
#1307 = EDGE_LOOP('',(#1308,#1309,#1310,#1311,#1317,#1318));
#1308 = ORIENTED_EDGE('',*,*,#1023,.F.);
#1309 = ORIENTED_EDGE('',*,*,#1087,.F.);
#1310 = ORIENTED_EDGE('',*,*,#1215,.F.);
#1311 = ORIENTED_EDGE('',*,*,#1312,.T.);
#1312 = EDGE_CURVE('',#1201,#620,#1313,.T.);
#1313 = LINE('',#1314,#1315);
#1314 = CARTESIAN_POINT('',(6.,-48.6,-9.));
#1315 = VECTOR('',#1316,1.);
#1316 = DIRECTION('',(-0.,1.,0.));
#1317 = ORIENTED_EDGE('',*,*,#619,.T.);
#1318 = ORIENTED_EDGE('',*,*,#699,.F.);
#1319 = PLANE('',#1320);
#1320 = AXIS2_PLACEMENT_3D('',#1321,#1322,#1323);
#1321 = CARTESIAN_POINT('',(6.,-27.98318777292,-6.716812227074));
#1322 = DIRECTION('',(1.,0.,0.));
#1323 = DIRECTION('',(-0.,0.,1.));
#1324 = ADVANCED_FACE('',(#1325,#1398),#1401,.T.);
#1325 = FACE_BOUND('',#1326,.T.);
#1326 = EDGE_LOOP('',(#1327,#1328,#1337,#1345,#1353,#1362,#1371,#1379,
    #1387,#1394,#1395,#1396,#1397));
#1327 = ORIENTED_EDGE('',*,*,#156,.F.);
#1328 = ORIENTED_EDGE('',*,*,#1329,.F.);
#1329 = EDGE_CURVE('',#1330,#149,#1332,.T.);
#1330 = VERTEX_POINT('',#1331);
#1331 = CARTESIAN_POINT('',(4.840572387366E-14,89.477225575052,
    -88.71892335471));
#1332 = CIRCLE('',#1333,7.);
#1333 = AXIS2_PLACEMENT_3D('',#1334,#1335,#1336);
#1334 = CARTESIAN_POINT('',(3.,84.,-85.55664569454));
#1335 = DIRECTION('',(0.,0.5,0.866025403784));
#1336 = DIRECTION('',(0.,0.866025403784,-0.5));
#1337 = ORIENTED_EDGE('',*,*,#1338,.F.);
#1338 = EDGE_CURVE('',#1339,#1330,#1341,.T.);
#1339 = VERTEX_POINT('',#1340);
#1340 = CARTESIAN_POINT('',(0.,90.,-89.02074730968));
#1341 = LINE('',#1342,#1343);
#1342 = CARTESIAN_POINT('',(0.,90.,-89.02074730968));
#1343 = VECTOR('',#1344,1.);
#1344 = DIRECTION('',(0.,-0.866025403784,0.5));
#1345 = ORIENTED_EDGE('',*,*,#1346,.T.);
#1346 = EDGE_CURVE('',#1339,#1347,#1349,.T.);
#1347 = VERTEX_POINT('',#1348);
#1348 = CARTESIAN_POINT('',(1.999999999999,90.,-89.02074730968));
#1349 = LINE('',#1350,#1351);
#1350 = CARTESIAN_POINT('',(0.,90.,-89.02074730968));
#1351 = VECTOR('',#1352,1.);
#1352 = DIRECTION('',(1.,0.,0.));
#1353 = ORIENTED_EDGE('',*,*,#1354,.F.);
#1354 = EDGE_CURVE('',#1355,#1347,#1357,.T.);
#1355 = VERTEX_POINT('',#1356);
#1356 = CARTESIAN_POINT('',(3.,90.062177826491,-89.05664569454));
#1357 = CIRCLE('',#1358,7.);
#1358 = AXIS2_PLACEMENT_3D('',#1359,#1360,#1361);
#1359 = CARTESIAN_POINT('',(3.,84.,-85.55664569454));
#1360 = DIRECTION('',(0.,0.5,0.866025403784));
#1361 = DIRECTION('',(0.,0.866025403784,-0.5));
#1362 = ORIENTED_EDGE('',*,*,#1363,.F.);
#1363 = EDGE_CURVE('',#1364,#1355,#1366,.T.);
#1364 = VERTEX_POINT('',#1365);
#1365 = CARTESIAN_POINT('',(4.000000000001,90.,-89.02074730968));
#1366 = CIRCLE('',#1367,7.);
#1367 = AXIS2_PLACEMENT_3D('',#1368,#1369,#1370);
#1368 = CARTESIAN_POINT('',(3.,84.,-85.55664569454));
#1369 = DIRECTION('',(0.,0.5,0.866025403784));
#1370 = DIRECTION('',(0.,0.866025403784,-0.5));
#1371 = ORIENTED_EDGE('',*,*,#1372,.T.);
#1372 = EDGE_CURVE('',#1364,#1373,#1375,.T.);
#1373 = VERTEX_POINT('',#1374);
#1374 = CARTESIAN_POINT('',(6.,90.,-89.02074730968));
#1375 = LINE('',#1376,#1377);
#1376 = CARTESIAN_POINT('',(0.,90.,-89.02074730968));
#1377 = VECTOR('',#1378,1.);
#1378 = DIRECTION('',(1.,0.,0.));
#1379 = ORIENTED_EDGE('',*,*,#1380,.T.);
#1380 = EDGE_CURVE('',#1373,#1381,#1383,.T.);
#1381 = VERTEX_POINT('',#1382);
#1382 = CARTESIAN_POINT('',(6.,89.477225575052,-88.71892335471));
#1383 = LINE('',#1384,#1385);
#1384 = CARTESIAN_POINT('',(6.,90.,-89.02074730968));
#1385 = VECTOR('',#1386,1.);
#1386 = DIRECTION('',(0.,-0.866025403784,0.5));
#1387 = ORIENTED_EDGE('',*,*,#1388,.F.);
#1388 = EDGE_CURVE('',#1285,#1381,#1389,.T.);
#1389 = CIRCLE('',#1390,7.);
#1390 = AXIS2_PLACEMENT_3D('',#1391,#1392,#1393);
#1391 = CARTESIAN_POINT('',(3.,84.,-85.55664569454));
#1392 = DIRECTION('',(0.,0.5,0.866025403784));
#1393 = DIRECTION('',(0.,0.866025403784,-0.5));
#1394 = ORIENTED_EDGE('',*,*,#1284,.T.);
#1395 = ORIENTED_EDGE('',*,*,#371,.F.);
#1396 = ORIENTED_EDGE('',*,*,#435,.F.);
#1397 = ORIENTED_EDGE('',*,*,#354,.F.);
#1398 = FACE_BOUND('',#1399,.T.);
#1399 = EDGE_LOOP('',(#1400));
#1400 = ORIENTED_EDGE('',*,*,#122,.T.);
#1401 = PLANE('',#1402);
#1402 = AXIS2_PLACEMENT_3D('',#1403,#1404,#1405);
#1403 = CARTESIAN_POINT('',(3.,84.000229255549,-85.55677805529));
#1404 = DIRECTION('',(-0.,-0.5,-0.866025403784));
#1405 = DIRECTION('',(0.,-0.866025403784,0.5));
#1406 = ADVANCED_FACE('',(#1407),#1432,.T.);
#1407 = FACE_BOUND('',#1408,.T.);
#1408 = EDGE_LOOP('',(#1409,#1417,#1425,#1431));
#1409 = ORIENTED_EDGE('',*,*,#1410,.T.);
#1410 = EDGE_CURVE('',#1330,#1411,#1413,.T.);
#1411 = VERTEX_POINT('',#1412);
#1412 = CARTESIAN_POINT('',(0.,95.506993486341,-78.27505897451));
#1413 = LINE('',#1414,#1415);
#1414 = CARTESIAN_POINT('',(0.,89.477225575052,-88.71892335471));
#1415 = VECTOR('',#1416,1.);
#1416 = DIRECTION('',(0.,0.5,0.866025403784));
#1417 = ORIENTED_EDGE('',*,*,#1418,.T.);
#1418 = EDGE_CURVE('',#1411,#1419,#1421,.T.);
#1419 = VERTEX_POINT('',#1420);
#1420 = CARTESIAN_POINT('',(0.,96.,-80.02074730968));
#1421 = LINE('',#1422,#1423);
#1422 = CARTESIAN_POINT('',(0.,68.6,17.));
#1423 = VECTOR('',#1424,1.);
#1424 = DIRECTION('',(0.,0.271783332376,-0.962358467642));
#1425 = ORIENTED_EDGE('',*,*,#1426,.T.);
#1426 = EDGE_CURVE('',#1419,#1339,#1427,.T.);
#1427 = LINE('',#1428,#1429);
#1428 = CARTESIAN_POINT('',(0.,96.,-80.02074730968));
#1429 = VECTOR('',#1430,1.);
#1430 = DIRECTION('',(0.,-0.554700196225,-0.832050294338));
#1431 = ORIENTED_EDGE('',*,*,#1338,.T.);
#1432 = PLANE('',#1433);
#1433 = AXIS2_PLACEMENT_3D('',#1434,#1435,#1436);
#1434 = CARTESIAN_POINT('',(0.,73.337516095933,-34.8636074775));
#1435 = DIRECTION('',(-1.,-0.,-0.));
#1436 = DIRECTION('',(0.,0.,-1.));
#1437 = ADVANCED_FACE('',(#1438),#1473,.T.);
#1438 = FACE_BOUND('',#1439,.T.);
#1439 = EDGE_LOOP('',(#1440,#1441,#1450,#1459,#1467));
#1440 = ORIENTED_EDGE('',*,*,#1418,.F.);
#1441 = ORIENTED_EDGE('',*,*,#1442,.F.);
#1442 = EDGE_CURVE('',#1443,#1411,#1445,.T.);
#1443 = VERTEX_POINT('',#1444);
#1444 = CARTESIAN_POINT('',(3.,95.763185624723,-79.18221053366));
#1445 = ELLIPSE('',#1446,9.769025297008,7.);
#1446 = AXIS2_PLACEMENT_3D('',#1447,#1448,#1449);
#1447 = CARTESIAN_POINT('',(3.,93.108127375441,-69.78090631847));
#1448 = DIRECTION('',(-0.,0.962358467642,0.271783332376));
#1449 = DIRECTION('',(0.,-0.271783332376,0.962358467642));
#1450 = ORIENTED_EDGE('',*,*,#1451,.F.);
#1451 = EDGE_CURVE('',#1452,#1443,#1454,.T.);
#1452 = VERTEX_POINT('',#1453);
#1453 = CARTESIAN_POINT('',(6.,95.506993486341,-78.27505897451));
#1454 = ELLIPSE('',#1455,9.769025297008,7.);
#1455 = AXIS2_PLACEMENT_3D('',#1456,#1457,#1458);
#1456 = CARTESIAN_POINT('',(3.,93.108127375441,-69.78090631847));
#1457 = DIRECTION('',(-0.,0.962358467642,0.271783332376));
#1458 = DIRECTION('',(0.,-0.271783332376,0.962358467642));
#1459 = ORIENTED_EDGE('',*,*,#1460,.T.);
#1460 = EDGE_CURVE('',#1452,#1461,#1463,.T.);
#1461 = VERTEX_POINT('',#1462);
#1462 = CARTESIAN_POINT('',(6.,96.,-80.02074730968));
#1463 = LINE('',#1464,#1465);
#1464 = CARTESIAN_POINT('',(6.,68.6,17.));
#1465 = VECTOR('',#1466,1.);
#1466 = DIRECTION('',(0.,0.271783332376,-0.962358467642));
#1467 = ORIENTED_EDGE('',*,*,#1468,.F.);
#1468 = EDGE_CURVE('',#1419,#1461,#1469,.T.);
#1469 = LINE('',#1470,#1471);
#1470 = CARTESIAN_POINT('',(0.,96.,-80.02074730968));
#1471 = VECTOR('',#1472,1.);
#1472 = DIRECTION('',(1.,0.,0.));
#1473 = PLANE('',#1474);
#1474 = AXIS2_PLACEMENT_3D('',#1475,#1476,#1477);
#1475 = CARTESIAN_POINT('',(0.,68.6,17.));
#1476 = DIRECTION('',(-0.,0.962358467642,0.271783332376));
#1477 = DIRECTION('',(0.,0.271783332376,-0.962358467642));
#1478 = ADVANCED_FACE('',(#1479),#1507,.T.);
#1479 = FACE_BOUND('',#1480,.T.);
#1480 = EDGE_LOOP('',(#1481,#1482,#1483,#1489,#1490,#1499,#1506));
#1481 = ORIENTED_EDGE('',*,*,#1426,.F.);
#1482 = ORIENTED_EDGE('',*,*,#1468,.T.);
#1483 = ORIENTED_EDGE('',*,*,#1484,.T.);
#1484 = EDGE_CURVE('',#1461,#1373,#1485,.T.);
#1485 = LINE('',#1486,#1487);
#1486 = CARTESIAN_POINT('',(6.,96.,-80.02074730968));
#1487 = VECTOR('',#1488,1.);
#1488 = DIRECTION('',(0.,-0.554700196225,-0.832050294338));
#1489 = ORIENTED_EDGE('',*,*,#1372,.F.);
#1490 = ORIENTED_EDGE('',*,*,#1491,.F.);
#1491 = EDGE_CURVE('',#1492,#1364,#1494,.T.);
#1492 = VERTEX_POINT('',#1493);
#1493 = CARTESIAN_POINT('',(3.,90.618802153517,-88.0925440794));
#1494 = ELLIPSE('',#1495,108.76436584154,7.);
#1495 = AXIS2_PLACEMENT_3D('',#1496,#1497,#1498);
#1496 = CARTESIAN_POINT('',(3.,30.287187078898,-178.5899666913));
#1497 = DIRECTION('',(0.,0.832050294338,-0.554700196225));
#1498 = DIRECTION('',(0.,0.554700196225,0.832050294338));
#1499 = ORIENTED_EDGE('',*,*,#1500,.F.);
#1500 = EDGE_CURVE('',#1347,#1492,#1501,.T.);
#1501 = ELLIPSE('',#1502,108.76436584154,7.);
#1502 = AXIS2_PLACEMENT_3D('',#1503,#1504,#1505);
#1503 = CARTESIAN_POINT('',(3.,30.287187078898,-178.5899666913));
#1504 = DIRECTION('',(0.,0.832050294338,-0.554700196225));
#1505 = DIRECTION('',(0.,0.554700196225,0.832050294338));
#1506 = ORIENTED_EDGE('',*,*,#1346,.F.);
#1507 = PLANE('',#1508);
#1508 = AXIS2_PLACEMENT_3D('',#1509,#1510,#1511);
#1509 = CARTESIAN_POINT('',(0.,96.,-80.02074730968));
#1510 = DIRECTION('',(0.,0.832050294338,-0.554700196225));
#1511 = DIRECTION('',(0.,-0.554700196225,-0.832050294338));
#1512 = ADVANCED_FACE('',(#1513),#1524,.F.);
#1513 = FACE_BOUND('',#1514,.F.);
#1514 = EDGE_LOOP('',(#1515,#1521,#1522,#1523));
#1515 = ORIENTED_EDGE('',*,*,#1516,.T.);
#1516 = EDGE_CURVE('',#1381,#1452,#1517,.T.);
#1517 = LINE('',#1518,#1519);
#1518 = CARTESIAN_POINT('',(6.,89.477225575052,-88.71892335471));
#1519 = VECTOR('',#1520,1.);
#1520 = DIRECTION('',(0.,0.5,0.866025403784));
#1521 = ORIENTED_EDGE('',*,*,#1460,.T.);
#1522 = ORIENTED_EDGE('',*,*,#1484,.T.);
#1523 = ORIENTED_EDGE('',*,*,#1380,.T.);
#1524 = PLANE('',#1525);
#1525 = AXIS2_PLACEMENT_3D('',#1526,#1527,#1528);
#1526 = CARTESIAN_POINT('',(6.,73.337516095933,-34.8636074775));
#1527 = DIRECTION('',(-1.,-0.,-0.));
#1528 = DIRECTION('',(0.,0.,-1.));
#1529 = ADVANCED_FACE('',(#1530),#1546,.T.);
#1530 = FACE_BOUND('',#1531,.T.);
#1531 = EDGE_LOOP('',(#1532,#1533,#1539,#1540));
#1532 = ORIENTED_EDGE('',*,*,#477,.F.);
#1533 = ORIENTED_EDGE('',*,*,#1534,.F.);
#1534 = EDGE_CURVE('',#528,#478,#1535,.T.);
#1535 = LINE('',#1536,#1537);
#1536 = CARTESIAN_POINT('',(5.8,-1.,-4.8));
#1537 = VECTOR('',#1538,1.);
#1538 = DIRECTION('',(-0.,1.,0.));
#1539 = ORIENTED_EDGE('',*,*,#535,.F.);
#1540 = ORIENTED_EDGE('',*,*,#1541,.T.);
#1541 = EDGE_CURVE('',#536,#480,#1542,.T.);
#1542 = LINE('',#1543,#1544);
#1543 = CARTESIAN_POINT('',(0.2,-22.,-4.8));
#1544 = VECTOR('',#1545,1.);
#1545 = DIRECTION('',(-0.,1.,0.));
#1546 = PLANE('',#1547);
#1547 = AXIS2_PLACEMENT_3D('',#1548,#1549,#1550);
#1548 = CARTESIAN_POINT('',(3.,24.5,-4.8));
#1549 = DIRECTION('',(-0.,-0.,-1.));
#1550 = DIRECTION('',(-1.,0.,0.));
#1551 = ADVANCED_FACE('',(#1552),#1570,.T.);
#1552 = FACE_BOUND('',#1553,.T.);
#1553 = EDGE_LOOP('',(#1554,#1555,#1556,#1557,#1558,#1559,#1560,#1561,
    #1562,#1563,#1564,#1565,#1566,#1567,#1568,#1569));
#1554 = ORIENTED_EDGE('',*,*,#752,.F.);
#1555 = ORIENTED_EDGE('',*,*,#784,.F.);
#1556 = ORIENTED_EDGE('',*,*,#814,.F.);
#1557 = ORIENTED_EDGE('',*,*,#839,.F.);
#1558 = ORIENTED_EDGE('',*,*,#870,.F.);
#1559 = ORIENTED_EDGE('',*,*,#907,.F.);
#1560 = ORIENTED_EDGE('',*,*,#939,.T.);
#1561 = ORIENTED_EDGE('',*,*,#970,.F.);
#1562 = ORIENTED_EDGE('',*,*,#991,.F.);
#1563 = ORIENTED_EDGE('',*,*,#706,.T.);
#1564 = ORIENTED_EDGE('',*,*,#660,.F.);
#1565 = ORIENTED_EDGE('',*,*,#604,.T.);
#1566 = ORIENTED_EDGE('',*,*,#567,.T.);
#1567 = ORIENTED_EDGE('',*,*,#527,.T.);
#1568 = ORIENTED_EDGE('',*,*,#1534,.T.);
#1569 = ORIENTED_EDGE('',*,*,#503,.T.);
#1570 = PLANE('',#1571);
#1571 = AXIS2_PLACEMENT_3D('',#1572,#1573,#1574);
#1572 = CARTESIAN_POINT('',(5.8,19.295951984482,-3.560981720276));
#1573 = DIRECTION('',(1.,0.,0.));
#1574 = DIRECTION('',(-0.,0.,1.));
#1575 = ADVANCED_FACE('',(#1576),#1594,.T.);
#1576 = FACE_BOUND('',#1577,.T.);
#1577 = EDGE_LOOP('',(#1578,#1579,#1580,#1581,#1582,#1583,#1584,#1585,
    #1586,#1587,#1588,#1589,#1590,#1591,#1592,#1593));
#1578 = ORIENTED_EDGE('',*,*,#736,.T.);
#1579 = ORIENTED_EDGE('',*,*,#487,.F.);
#1580 = ORIENTED_EDGE('',*,*,#1541,.F.);
#1581 = ORIENTED_EDGE('',*,*,#543,.F.);
#1582 = ORIENTED_EDGE('',*,*,#574,.F.);
#1583 = ORIENTED_EDGE('',*,*,#588,.F.);
#1584 = ORIENTED_EDGE('',*,*,#653,.F.);
#1585 = ORIENTED_EDGE('',*,*,#722,.F.);
#1586 = ORIENTED_EDGE('',*,*,#984,.T.);
#1587 = ORIENTED_EDGE('',*,*,#954,.T.);
#1588 = ORIENTED_EDGE('',*,*,#932,.F.);
#1589 = ORIENTED_EDGE('',*,*,#891,.T.);
#1590 = ORIENTED_EDGE('',*,*,#877,.T.);
#1591 = ORIENTED_EDGE('',*,*,#846,.T.);
#1592 = ORIENTED_EDGE('',*,*,#798,.T.);
#1593 = ORIENTED_EDGE('',*,*,#777,.T.);
#1594 = PLANE('',#1595);
#1595 = AXIS2_PLACEMENT_3D('',#1596,#1597,#1598);
#1596 = CARTESIAN_POINT('',(0.2,19.295951984482,-3.560981720276));
#1597 = DIRECTION('',(-1.,-0.,-0.));
#1598 = DIRECTION('',(0.,0.,-1.));
#1599 = ADVANCED_FACE('',(#1600),#1606,.T.);
#1600 = FACE_BOUND('',#1601,.T.);
#1601 = EDGE_LOOP('',(#1602,#1603,#1604,#1605));
#1602 = ORIENTED_EDGE('',*,*,#1244,.T.);
#1603 = ORIENTED_EDGE('',*,*,#629,.T.);
#1604 = ORIENTED_EDGE('',*,*,#1312,.F.);
#1605 = ORIENTED_EDGE('',*,*,#1198,.F.);
#1606 = PLANE('',#1607);
#1607 = AXIS2_PLACEMENT_3D('',#1608,#1609,#1610);
#1608 = CARTESIAN_POINT('',(3.,-29.1,-9.));
#1609 = DIRECTION('',(-0.,-0.,-1.));
#1610 = DIRECTION('',(-1.,0.,0.));
#1611 = ADVANCED_FACE('',(#1612),#1624,.T.);
#1612 = FACE_BOUND('',#1613,.T.);
#1613 = EDGE_LOOP('',(#1614,#1615,#1616,#1617,#1618,#1619,#1620,#1621,
    #1622,#1623));
#1614 = ORIENTED_EDGE('',*,*,#21,.F.);
#1615 = ORIENTED_EDGE('',*,*,#1292,.F.);
#1616 = ORIENTED_EDGE('',*,*,#1388,.T.);
#1617 = ORIENTED_EDGE('',*,*,#1516,.T.);
#1618 = ORIENTED_EDGE('',*,*,#1451,.T.);
#1619 = ORIENTED_EDGE('',*,*,#1442,.T.);
#1620 = ORIENTED_EDGE('',*,*,#1410,.F.);
#1621 = ORIENTED_EDGE('',*,*,#1329,.T.);
#1622 = ORIENTED_EDGE('',*,*,#148,.T.);
#1623 = ORIENTED_EDGE('',*,*,#32,.F.);
#1624 = CYLINDRICAL_SURFACE('',#1625,7.);
#1625 = AXIS2_PLACEMENT_3D('',#1626,#1627,#1628);
#1626 = CARTESIAN_POINT('',(3.,84.,-85.55664569454));
#1627 = DIRECTION('',(0.,0.5,0.866025403784));
#1628 = DIRECTION('',(0.,0.866025403784,-0.5));
#1629 = ADVANCED_FACE('',(#1630),#1636,.T.);
#1630 = FACE_BOUND('',#1631,.T.);
#1631 = EDGE_LOOP('',(#1632,#1633,#1634,#1635));
#1632 = ORIENTED_EDGE('',*,*,#1354,.T.);
#1633 = ORIENTED_EDGE('',*,*,#1500,.T.);
#1634 = ORIENTED_EDGE('',*,*,#1491,.T.);
#1635 = ORIENTED_EDGE('',*,*,#1363,.T.);
#1636 = CYLINDRICAL_SURFACE('',#1637,7.);
#1637 = AXIS2_PLACEMENT_3D('',#1638,#1639,#1640);
#1638 = CARTESIAN_POINT('',(3.,84.,-85.55664569454));
#1639 = DIRECTION('',(0.,0.5,0.866025403784));
#1640 = DIRECTION('',(0.,0.866025403784,-0.5));
#1641 = ( GEOMETRIC_REPRESENTATION_CONTEXT(3) 
GLOBAL_UNCERTAINTY_ASSIGNED_CONTEXT((#1645)) 
GLOBAL_UNIT_ASSIGNED_CONTEXT((#1642,#1643,#1644)) REPRESENTATION_CONTEXT
('Context #1','3D Context with UNIT and UNCERTAINTY') );
#1642 = ( LENGTH_UNIT() NAMED_UNIT(*) SI_UNIT(.MILLI.,.METRE.) );
#1643 = ( NAMED_UNIT(*) PLANE_ANGLE_UNIT() SI_UNIT($,.RADIAN.) );
#1644 = ( NAMED_UNIT(*) SI_UNIT($,.STERADIAN.) SOLID_ANGLE_UNIT() );
#1645 = UNCERTAINTY_MEASURE_WITH_UNIT(LENGTH_MEASURE(1.E-07),#1642,
  'distance_accuracy_value','confusion accuracy');
#1646 = PRODUCT_RELATED_PRODUCT_CATEGORY('part',$,(#7));
ENDSEC;
END-ISO-10303-21;
