ISO-10303-21;
HEADER;
FILE_DESCRIPTION(('FreeCAD Model'),'2;1');
FILE_NAME('Open CASCADE Shape Model','2026-09-27T15:22:53',('FreeCAD'),(
    'FreeCAD'),'Open CASCADE STEP processor 7.8','FreeCAD','Unknown');
FILE_SCHEMA(('AUTOMOTIVE_DESIGN { 1 0 10303 214 1 1 1 1 }'));
ENDSEC;
DATA;
#1 = APPLICATION_PROTOCOL_DEFINITION('international standard',
  'automotive_design',2000,#2);
#2 = APPLICATION_CONTEXT(
  'core data for automotive mechanical design processes');
#3 = SHAPE_DEFINITION_REPRESENTATION(#4,#10);
#4 = PRODUCT_DEFINITION_SHAPE('','',#5);
#5 = PRODUCT_DEFINITION('design','',#6,#9);
#6 = PRODUCT_DEFINITION_FORMATION('','',#7);
#7 = PRODUCT('Open CASCADE STEP translator 7.8 5',
  'Open CASCADE STEP translator 7.8 5','',(#8));
#8 = PRODUCT_CONTEXT('',#2,'mechanical');
#9 = PRODUCT_DEFINITION_CONTEXT('part definition',#2,'design');
#10 = ADVANCED_BREP_SHAPE_REPRESENTATION('',(#11,#15),#1500);
#11 = AXIS2_PLACEMENT_3D('',#12,#13,#14);
#12 = CARTESIAN_POINT('',(0.,0.,0.));
#13 = DIRECTION('',(0.,0.,1.));
#14 = DIRECTION('',(1.,0.,-0.));
#15 = MANIFOLD_SOLID_BREP('',#16);
#16 = CLOSED_SHELL('',(#17,#79,#120,#184,#243,#268,#278,#312,#374,#424,
    #472,#488,#546,#577,#608,#639,#670,#701,#732,#763,#794,#825,#842,
    #871,#957,#988,#1029,#1063,#1080,#1111,#1142,#1173,#1204,#1235,#1266
    ,#1297,#1328,#1359,#1390,#1424,#1441,#1470,#1488));
#17 = ADVANCED_FACE('',(#18,#63),#74,.F.);
#18 = FACE_BOUND('',#19,.F.);
#19 = EDGE_LOOP('',(#20,#31,#40,#48,#57));
#20 = ORIENTED_EDGE('',*,*,#21,.T.);
#21 = EDGE_CURVE('',#22,#24,#26,.T.);
#22 = VERTEX_POINT('',#23);
#23 = CARTESIAN_POINT('',(6.,91.464365076099,-74.85509188163));
#24 = VERTEX_POINT('',#25);
#25 = CARTESIAN_POINT('',(3.,93.27128129211,-75.89831544534));
#26 = CIRCLE('',#27,3.2);
#27 = AXIS2_PLACEMENT_3D('',#28,#29,#30);
#28 = CARTESIAN_POINT('',(3.,90.5,-74.29831544534));
#29 = DIRECTION('',(0.,0.5,0.866025403784));
#30 = DIRECTION('',(0.,0.866025403784,-0.5));
#31 = ORIENTED_EDGE('',*,*,#32,.T.);
#32 = EDGE_CURVE('',#24,#33,#35,.T.);
#33 = VERTEX_POINT('',#34);
#34 = CARTESIAN_POINT('',(-2.57571741713E-14,91.464365076099,
    -74.85509188163));
#35 = CIRCLE('',#36,3.2);
#36 = AXIS2_PLACEMENT_3D('',#37,#38,#39);
#37 = CARTESIAN_POINT('',(3.,90.5,-74.29831544534));
#38 = DIRECTION('',(0.,0.5,0.866025403784));
#39 = DIRECTION('',(0.,0.866025403784,-0.5));
#40 = ORIENTED_EDGE('',*,*,#41,.F.);
#41 = EDGE_CURVE('',#42,#33,#44,.T.);
#42 = VERTEX_POINT('',#43);
#43 = CARTESIAN_POINT('',(-5.995204332976E-15,89.535634923901,
    -73.74153900906));
#44 = LINE('',#45,#46);
#45 = CARTESIAN_POINT('',(0.,75.526203813233,-65.65319018612));
#46 = VECTOR('',#47,1.);
#47 = DIRECTION('',(0.,0.866025403784,-0.5));
#48 = ORIENTED_EDGE('',*,*,#49,.T.);
#49 = EDGE_CURVE('',#42,#50,#52,.T.);
#50 = VERTEX_POINT('',#51);
#51 = CARTESIAN_POINT('',(6.,89.535634923901,-73.74153900906));
#52 = CIRCLE('',#53,3.2);
#53 = AXIS2_PLACEMENT_3D('',#54,#55,#56);
#54 = CARTESIAN_POINT('',(3.,90.5,-74.29831544534));
#55 = DIRECTION('',(0.,0.5,0.866025403784));
#56 = DIRECTION('',(0.,0.866025403784,-0.5));
#57 = ORIENTED_EDGE('',*,*,#58,.T.);
#58 = EDGE_CURVE('',#50,#22,#59,.T.);
#59 = LINE('',#60,#61);
#60 = CARTESIAN_POINT('',(6.,75.526203813233,-65.65319018612));
#61 = VECTOR('',#62,1.);
#62 = DIRECTION('',(0.,0.866025403784,-0.5));
#63 = FACE_BOUND('',#64,.F.);
#64 = EDGE_LOOP('',(#65));
#65 = ORIENTED_EDGE('',*,*,#66,.F.);
#66 = EDGE_CURVE('',#67,#67,#69,.T.);
#67 = VERTEX_POINT('',#68);
#68 = CARTESIAN_POINT('',(3.,92.924871130596,-75.69831544534));
#69 = CIRCLE('',#70,2.8);
#70 = AXIS2_PLACEMENT_3D('',#71,#72,#73);
#71 = CARTESIAN_POINT('',(3.,90.5,-74.29831544534));
#72 = DIRECTION('',(0.,0.5,0.866025403784));
#73 = DIRECTION('',(0.,0.866025403784,-0.5));
#74 = PLANE('',#75);
#75 = AXIS2_PLACEMENT_3D('',#76,#77,#78);
#76 = CARTESIAN_POINT('',(3.,90.5,-74.29831544534));
#77 = DIRECTION('',(0.,0.5,0.866025403784));
#78 = DIRECTION('',(0.,0.866025403784,-0.5));
#79 = ADVANCED_FACE('',(#80),#115,.F.);
#80 = FACE_BOUND('',#81,.F.);
#81 = EDGE_LOOP('',(#82,#90,#91,#98,#99,#106,#107,#108));
#82 = ORIENTED_EDGE('',*,*,#83,.T.);
#83 = EDGE_CURVE('',#84,#24,#86,.T.);
#84 = VERTEX_POINT('',#85);
#85 = CARTESIAN_POINT('',(3.,92.724871130596,-76.04472560686));
#86 = LINE('',#87,#88);
#87 = CARTESIAN_POINT('',(3.,92.724871130596,-76.04472560686));
#88 = VECTOR('',#89,1.);
#89 = DIRECTION('',(1.731912112471E-16,0.965925826289,0.258819045103));
#90 = ORIENTED_EDGE('',*,*,#21,.F.);
#91 = ORIENTED_EDGE('',*,*,#92,.F.);
#92 = EDGE_CURVE('',#50,#22,#93,.T.);
#93 = CIRCLE('',#94,3.2);
#94 = AXIS2_PLACEMENT_3D('',#95,#96,#97);
#95 = CARTESIAN_POINT('',(3.,90.5,-74.29831544534));
#96 = DIRECTION('',(0.,0.5,0.866025403784));
#97 = DIRECTION('',(0.,0.866025403784,-0.5));
#98 = ORIENTED_EDGE('',*,*,#49,.F.);
#99 = ORIENTED_EDGE('',*,*,#100,.F.);
#100 = EDGE_CURVE('',#33,#42,#101,.T.);
#101 = CIRCLE('',#102,3.2);
#102 = AXIS2_PLACEMENT_3D('',#103,#104,#105);
#103 = CARTESIAN_POINT('',(3.,90.5,-74.29831544534));
#104 = DIRECTION('',(0.,0.5,0.866025403784));
#105 = DIRECTION('',(0.,0.866025403784,-0.5));
#106 = ORIENTED_EDGE('',*,*,#32,.F.);
#107 = ORIENTED_EDGE('',*,*,#83,.F.);
#108 = ORIENTED_EDGE('',*,*,#109,.T.);
#109 = EDGE_CURVE('',#84,#84,#110,.T.);
#110 = CIRCLE('',#111,2.8);
#111 = AXIS2_PLACEMENT_3D('',#112,#113,#114);
#112 = CARTESIAN_POINT('',(3.,90.3,-74.64472560686));
#113 = DIRECTION('',(0.,0.5,0.866025403784));
#114 = DIRECTION('',(0.,0.866025403784,-0.5));
#115 = CONICAL_SURFACE('',#116,2.8,0.785398163397);
#116 = AXIS2_PLACEMENT_3D('',#117,#118,#119);
#117 = CARTESIAN_POINT('',(3.,90.3,-74.64472560686));
#118 = DIRECTION('',(0.,0.5,0.866025403784));
#119 = DIRECTION('',(0.,0.866025403784,-0.5));
#120 = ADVANCED_FACE('',(#121),#179,.T.);
#121 = FACE_BOUND('',#122,.T.);
#122 = EDGE_LOOP('',(#123,#131,#140,#149,#155,#156,#164,#172,#178));
#123 = ORIENTED_EDGE('',*,*,#124,.F.);
#124 = EDGE_CURVE('',#125,#50,#127,.T.);
#125 = VERTEX_POINT('',#126);
#126 = CARTESIAN_POINT('',(6.,85.022774424948,-71.13603778517));
#127 = LINE('',#128,#129);
#128 = CARTESIAN_POINT('',(6.,75.526203813233,-65.65319018612));
#129 = VECTOR('',#130,1.);
#130 = DIRECTION('',(0.,0.866025403784,-0.5));
#131 = ORIENTED_EDGE('',*,*,#132,.T.);
#132 = EDGE_CURVE('',#125,#133,#135,.T.);
#133 = VERTEX_POINT('',#134);
#134 = CARTESIAN_POINT('',(3.,96.562177826491,-77.79831544534));
#135 = CIRCLE('',#136,7.);
#136 = AXIS2_PLACEMENT_3D('',#137,#138,#139);
#137 = CARTESIAN_POINT('',(3.,90.5,-74.29831544534));
#138 = DIRECTION('',(0.,0.5,0.866025403784));
#139 = DIRECTION('',(0.,0.866025403784,-0.5));
#140 = ORIENTED_EDGE('',*,*,#141,.T.);
#141 = EDGE_CURVE('',#133,#142,#144,.T.);
#142 = VERTEX_POINT('',#143);
#143 = CARTESIAN_POINT('',(-1.33226762955E-15,85.022774424948,
    -71.13603778517));
#144 = CIRCLE('',#145,7.);
#145 = AXIS2_PLACEMENT_3D('',#146,#147,#148);
#146 = CARTESIAN_POINT('',(3.,90.5,-74.29831544534));
#147 = DIRECTION('',(0.,0.5,0.866025403784));
#148 = DIRECTION('',(0.,0.866025403784,-0.5));
#149 = ORIENTED_EDGE('',*,*,#150,.T.);
#150 = EDGE_CURVE('',#142,#42,#151,.T.);
#151 = LINE('',#152,#153);
#152 = CARTESIAN_POINT('',(0.,75.526203813233,-65.65319018612));
#153 = VECTOR('',#154,1.);
#154 = DIRECTION('',(0.,0.866025403784,-0.5));
#155 = ORIENTED_EDGE('',*,*,#100,.F.);
#156 = ORIENTED_EDGE('',*,*,#157,.T.);
#157 = EDGE_CURVE('',#33,#158,#160,.T.);
#158 = VERTEX_POINT('',#159);
#159 = CARTESIAN_POINT('',(0.,95.140556806349,-76.97754216668));
#160 = LINE('',#161,#162);
#161 = CARTESIAN_POINT('',(0.,75.526203813233,-65.65319018612));
#162 = VECTOR('',#163,1.);
#163 = DIRECTION('',(0.,0.866025403784,-0.5));
#164 = ORIENTED_EDGE('',*,*,#165,.T.);
#165 = EDGE_CURVE('',#158,#166,#168,.T.);
#166 = VERTEX_POINT('',#167);
#167 = CARTESIAN_POINT('',(6.,95.140556806349,-76.97754216668));
#168 = LINE('',#169,#170);
#169 = CARTESIAN_POINT('',(1.5,95.140556806349,-76.97754216668));
#170 = VECTOR('',#171,1.);
#171 = DIRECTION('',(1.,0.,-0.));
#172 = ORIENTED_EDGE('',*,*,#173,.F.);
#173 = EDGE_CURVE('',#22,#166,#174,.T.);
#174 = LINE('',#175,#176);
#175 = CARTESIAN_POINT('',(6.,75.526203813233,-65.65319018612));
#176 = VECTOR('',#177,1.);
#177 = DIRECTION('',(0.,0.866025403784,-0.5));
#178 = ORIENTED_EDGE('',*,*,#92,.F.);
#179 = PLANE('',#180);
#180 = AXIS2_PLACEMENT_3D('',#181,#182,#183);
#181 = CARTESIAN_POINT('',(3.,90.5,-74.29831544534));
#182 = DIRECTION('',(0.,0.5,0.866025403784));
#183 = DIRECTION('',(0.,0.866025403784,-0.5));
#184 = ADVANCED_FACE('',(#185,#210),#238,.T.);
#185 = FACE_BOUND('',#186,.T.);
#186 = EDGE_LOOP('',(#187,#195,#203,#209));
#187 = ORIENTED_EDGE('',*,*,#188,.F.);
#188 = EDGE_CURVE('',#189,#158,#191,.T.);
#189 = VERTEX_POINT('',#190);
#190 = CARTESIAN_POINT('',(0.,68.6,17.));
#191 = LINE('',#192,#193);
#192 = CARTESIAN_POINT('',(0.,68.6,17.));
#193 = VECTOR('',#194,1.);
#194 = DIRECTION('',(0.,0.271783332376,-0.962358467642));
#195 = ORIENTED_EDGE('',*,*,#196,.T.);
#196 = EDGE_CURVE('',#189,#197,#199,.T.);
#197 = VERTEX_POINT('',#198);
#198 = CARTESIAN_POINT('',(6.,68.6,17.));
#199 = LINE('',#200,#201);
#200 = CARTESIAN_POINT('',(0.,68.6,17.));
#201 = VECTOR('',#202,1.);
#202 = DIRECTION('',(1.,0.,0.));
#203 = ORIENTED_EDGE('',*,*,#204,.T.);
#204 = EDGE_CURVE('',#197,#166,#205,.T.);
#205 = LINE('',#206,#207);
#206 = CARTESIAN_POINT('',(6.,68.6,17.));
#207 = VECTOR('',#208,1.);
#208 = DIRECTION('',(0.,0.271783332376,-0.962358467642));
#209 = ORIENTED_EDGE('',*,*,#165,.F.);
#210 = FACE_BOUND('',#211,.T.);
#211 = EDGE_LOOP('',(#212,#223,#231));
#212 = ORIENTED_EDGE('',*,*,#213,.F.);
#213 = EDGE_CURVE('',#214,#216,#218,.T.);
#214 = VERTEX_POINT('',#215);
#215 = CARTESIAN_POINT('',(5.681752558897,92.802753695144,
    -68.69960768084));
#216 = VERTEX_POINT('',#217);
#217 = CARTESIAN_POINT('',(3.,94.170150675154,-73.54142800454));
#218 = ELLIPSE('',#219,3.907610118803,2.8);
#219 = AXIS2_PLACEMENT_3D('',#220,#221,#222);
#220 = CARTESIAN_POINT('',(3.,93.108127375441,-69.78090631847));
#221 = DIRECTION('',(-0.,0.962358467642,0.271783332376));
#222 = DIRECTION('',(0.,-0.271783332376,0.962358467642));
#223 = ORIENTED_EDGE('',*,*,#224,.F.);
#224 = EDGE_CURVE('',#225,#214,#227,.T.);
#225 = VERTEX_POINT('',#226);
#226 = CARTESIAN_POINT('',(0.318247441103,92.802753695144,
    -68.69960768084));
#227 = LINE('',#228,#229);
#228 = CARTESIAN_POINT('',(1.5,92.802753695144,-68.69960768084));
#229 = VECTOR('',#230,1.);
#230 = DIRECTION('',(1.,0.,-0.));
#231 = ORIENTED_EDGE('',*,*,#232,.F.);
#232 = EDGE_CURVE('',#216,#225,#233,.T.);
#233 = ELLIPSE('',#234,3.907610118803,2.8);
#234 = AXIS2_PLACEMENT_3D('',#235,#236,#237);
#235 = CARTESIAN_POINT('',(3.,93.108127375441,-69.78090631847));
#236 = DIRECTION('',(-0.,0.962358467642,0.271783332376));
#237 = DIRECTION('',(0.,-0.271783332376,0.962358467642));
#238 = PLANE('',#239);
#239 = AXIS2_PLACEMENT_3D('',#240,#241,#242);
#240 = CARTESIAN_POINT('',(0.,68.6,17.));
#241 = DIRECTION('',(-0.,0.962358467642,0.271783332376));
#242 = DIRECTION('',(0.,0.271783332376,-0.962358467642));
#243 = ADVANCED_FACE('',(#244),#263,.F.);
#244 = FACE_BOUND('',#245,.F.);
#245 = EDGE_LOOP('',(#246,#253,#254,#260,#261,#262));
#246 = ORIENTED_EDGE('',*,*,#247,.F.);
#247 = EDGE_CURVE('',#225,#214,#248,.T.);
#248 = CIRCLE('',#249,2.8);
#249 = AXIS2_PLACEMENT_3D('',#250,#251,#252);
#250 = CARTESIAN_POINT('',(3.,93.5,-69.10216302264));
#251 = DIRECTION('',(0.,0.5,0.866025403784));
#252 = DIRECTION('',(0.,0.866025403784,-0.5));
#253 = ORIENTED_EDGE('',*,*,#232,.F.);
#254 = ORIENTED_EDGE('',*,*,#255,.F.);
#255 = EDGE_CURVE('',#67,#216,#256,.T.);
#256 = LINE('',#257,#258);
#257 = CARTESIAN_POINT('',(3.,85.424871130596,-88.68869650211));
#258 = VECTOR('',#259,1.);
#259 = DIRECTION('',(0.,0.5,0.866025403784));
#260 = ORIENTED_EDGE('',*,*,#66,.T.);
#261 = ORIENTED_EDGE('',*,*,#255,.T.);
#262 = ORIENTED_EDGE('',*,*,#213,.F.);
#263 = CYLINDRICAL_SURFACE('',#264,2.8);
#264 = AXIS2_PLACEMENT_3D('',#265,#266,#267);
#265 = CARTESIAN_POINT('',(3.,83.,-87.28869650211));
#266 = DIRECTION('',(0.,0.5,0.866025403784));
#267 = DIRECTION('',(0.,0.866025403784,-0.5));
#268 = ADVANCED_FACE('',(#269),#273,.F.);
#269 = FACE_BOUND('',#270,.F.);
#270 = EDGE_LOOP('',(#271,#272));
#271 = ORIENTED_EDGE('',*,*,#224,.F.);
#272 = ORIENTED_EDGE('',*,*,#247,.T.);
#273 = PLANE('',#274);
#274 = AXIS2_PLACEMENT_3D('',#275,#276,#277);
#275 = CARTESIAN_POINT('',(3.,93.5,-69.10216302264));
#276 = DIRECTION('',(0.,0.5,0.866025403784));
#277 = DIRECTION('',(0.,0.866025403784,-0.5));
#278 = ADVANCED_FACE('',(#279),#307,.F.);
#279 = FACE_BOUND('',#280,.F.);
#280 = EDGE_LOOP('',(#281,#282,#290,#299,#306));
#281 = ORIENTED_EDGE('',*,*,#109,.F.);
#282 = ORIENTED_EDGE('',*,*,#283,.F.);
#283 = EDGE_CURVE('',#284,#84,#286,.T.);
#284 = VERTEX_POINT('',#285);
#285 = CARTESIAN_POINT('',(3.,86.624871130596,-86.61023553303));
#286 = LINE('',#287,#288);
#287 = CARTESIAN_POINT('',(3.,85.424871130596,-88.68869650211));
#288 = VECTOR('',#289,1.);
#289 = DIRECTION('',(0.,0.5,0.866025403784));
#290 = ORIENTED_EDGE('',*,*,#291,.F.);
#291 = EDGE_CURVE('',#292,#284,#294,.T.);
#292 = VERTEX_POINT('',#293);
#293 = CARTESIAN_POINT('',(3.,81.775128869404,-83.81023553303));
#294 = CIRCLE('',#295,2.8);
#295 = AXIS2_PLACEMENT_3D('',#296,#297,#298);
#296 = CARTESIAN_POINT('',(3.,84.2,-85.21023553303));
#297 = DIRECTION('',(-0.,-0.5,-0.866025403784));
#298 = DIRECTION('',(0.,-0.866025403784,0.5));
#299 = ORIENTED_EDGE('',*,*,#300,.F.);
#300 = EDGE_CURVE('',#284,#292,#301,.T.);
#301 = CIRCLE('',#302,2.8);
#302 = AXIS2_PLACEMENT_3D('',#303,#304,#305);
#303 = CARTESIAN_POINT('',(3.,84.2,-85.21023553303));
#304 = DIRECTION('',(-0.,-0.5,-0.866025403784));
#305 = DIRECTION('',(0.,-0.866025403784,0.5));
#306 = ORIENTED_EDGE('',*,*,#283,.T.);
#307 = CYLINDRICAL_SURFACE('',#308,2.8);
#308 = AXIS2_PLACEMENT_3D('',#309,#310,#311);
#309 = CARTESIAN_POINT('',(3.,83.,-87.28869650211));
#310 = DIRECTION('',(0.,0.5,0.866025403784));
#311 = DIRECTION('',(0.,0.866025403784,-0.5));
#312 = ADVANCED_FACE('',(#313),#369,.F.);
#313 = FACE_BOUND('',#314,.F.);
#314 = EDGE_LOOP('',(#315,#323,#332,#341,#350,#359,#366,#367,#368));
#315 = ORIENTED_EDGE('',*,*,#316,.T.);
#316 = EDGE_CURVE('',#292,#317,#319,.T.);
#317 = VERTEX_POINT('',#318);
#318 = CARTESIAN_POINT('',(3.,81.22871870789,-83.95664569454));
#319 = LINE('',#320,#321);
#320 = CARTESIAN_POINT('',(3.,81.775128869404,-83.81023553303));
#321 = VECTOR('',#322,1.);
#322 = DIRECTION('',(1.731912112471E-16,-0.965925826289,-0.258819045103)
  );
#323 = ORIENTED_EDGE('',*,*,#324,.F.);
#324 = EDGE_CURVE('',#325,#317,#327,.T.);
#325 = VERTEX_POINT('',#326);
#326 = CARTESIAN_POINT('',(6.,83.035634923901,-84.99986925826));
#327 = CIRCLE('',#328,3.2);
#328 = AXIS2_PLACEMENT_3D('',#329,#330,#331);
#329 = CARTESIAN_POINT('',(3.,84.,-85.55664569454));
#330 = DIRECTION('',(-0.,-0.5,-0.866025403784));
#331 = DIRECTION('',(0.,-0.866025403784,0.5));
#332 = ORIENTED_EDGE('',*,*,#333,.F.);
#333 = EDGE_CURVE('',#334,#325,#336,.T.);
#334 = VERTEX_POINT('',#335);
#335 = CARTESIAN_POINT('',(6.,84.964365076099,-86.11342213082));
#336 = CIRCLE('',#337,3.2);
#337 = AXIS2_PLACEMENT_3D('',#338,#339,#340);
#338 = CARTESIAN_POINT('',(3.,84.,-85.55664569454));
#339 = DIRECTION('',(-0.,-0.5,-0.866025403784));
#340 = DIRECTION('',(0.,-0.866025403784,0.5));
#341 = ORIENTED_EDGE('',*,*,#342,.F.);
#342 = EDGE_CURVE('',#343,#334,#345,.T.);
#343 = VERTEX_POINT('',#344);
#344 = CARTESIAN_POINT('',(-1.576516694968E-14,84.964365076099,
    -86.11342213082));
#345 = CIRCLE('',#346,3.2);
#346 = AXIS2_PLACEMENT_3D('',#347,#348,#349);
#347 = CARTESIAN_POINT('',(3.,84.,-85.55664569454));
#348 = DIRECTION('',(-0.,-0.5,-0.866025403784));
#349 = DIRECTION('',(0.,-0.866025403784,0.5));
#350 = ORIENTED_EDGE('',*,*,#351,.F.);
#351 = EDGE_CURVE('',#352,#343,#354,.T.);
#352 = VERTEX_POINT('',#353);
#353 = CARTESIAN_POINT('',(-1.265654248073E-14,83.035634923901,
    -84.99986925826));
#354 = CIRCLE('',#355,3.2);
#355 = AXIS2_PLACEMENT_3D('',#356,#357,#358);
#356 = CARTESIAN_POINT('',(3.,84.,-85.55664569454));
#357 = DIRECTION('',(-0.,-0.5,-0.866025403784));
#358 = DIRECTION('',(0.,-0.866025403784,0.5));
#359 = ORIENTED_EDGE('',*,*,#360,.F.);
#360 = EDGE_CURVE('',#317,#352,#361,.T.);
#361 = CIRCLE('',#362,3.2);
#362 = AXIS2_PLACEMENT_3D('',#363,#364,#365);
#363 = CARTESIAN_POINT('',(3.,84.,-85.55664569454));
#364 = DIRECTION('',(-0.,-0.5,-0.866025403784));
#365 = DIRECTION('',(0.,-0.866025403784,0.5));
#366 = ORIENTED_EDGE('',*,*,#316,.F.);
#367 = ORIENTED_EDGE('',*,*,#291,.T.);
#368 = ORIENTED_EDGE('',*,*,#300,.T.);
#369 = CONICAL_SURFACE('',#370,2.8,0.785398163397);
#370 = AXIS2_PLACEMENT_3D('',#371,#372,#373);
#371 = CARTESIAN_POINT('',(3.,84.2,-85.21023553303));
#372 = DIRECTION('',(-0.,-0.5,-0.866025403784));
#373 = DIRECTION('',(0.,-0.866025403784,0.5));
#374 = ADVANCED_FACE('',(#375),#419,.T.);
#375 = FACE_BOUND('',#376,.T.);
#376 = EDGE_LOOP('',(#377,#385,#386,#387,#388,#389,#397,#405,#413));
#377 = ORIENTED_EDGE('',*,*,#378,.T.);
#378 = EDGE_CURVE('',#379,#189,#381,.T.);
#379 = VERTEX_POINT('',#380);
#380 = CARTESIAN_POINT('',(0.,54.6,17.));
#381 = LINE('',#382,#383);
#382 = CARTESIAN_POINT('',(0.,54.6,17.));
#383 = VECTOR('',#384,1.);
#384 = DIRECTION('',(0.,1.,0.));
#385 = ORIENTED_EDGE('',*,*,#188,.T.);
#386 = ORIENTED_EDGE('',*,*,#157,.F.);
#387 = ORIENTED_EDGE('',*,*,#41,.F.);
#388 = ORIENTED_EDGE('',*,*,#150,.F.);
#389 = ORIENTED_EDGE('',*,*,#390,.F.);
#390 = EDGE_CURVE('',#391,#142,#393,.T.);
#391 = VERTEX_POINT('',#392);
#392 = CARTESIAN_POINT('',(-2.04281036531E-14,78.522774424948,
    -82.39436803437));
#393 = LINE('',#394,#395);
#394 = CARTESIAN_POINT('',(0.,78.522774424948,-82.39436803437));
#395 = VECTOR('',#396,1.);
#396 = DIRECTION('',(0.,0.5,0.866025403784));
#397 = ORIENTED_EDGE('',*,*,#398,.T.);
#398 = EDGE_CURVE('',#391,#399,#401,.T.);
#399 = VERTEX_POINT('',#400);
#400 = CARTESIAN_POINT('',(0.,78.,-82.0925440794));
#401 = LINE('',#402,#403);
#402 = CARTESIAN_POINT('',(0.,90.,-89.02074730968));
#403 = VECTOR('',#404,1.);
#404 = DIRECTION('',(0.,-0.866025403784,0.5));
#405 = ORIENTED_EDGE('',*,*,#406,.T.);
#406 = EDGE_CURVE('',#399,#407,#409,.T.);
#407 = VERTEX_POINT('',#408);
#408 = CARTESIAN_POINT('',(0.,54.6,-15.));
#409 = LINE('',#410,#411);
#410 = CARTESIAN_POINT('',(0.,78.,-82.0925440794));
#411 = VECTOR('',#412,1.);
#412 = DIRECTION('',(0.,-0.329317253734,0.94421933172));
#413 = ORIENTED_EDGE('',*,*,#414,.T.);
#414 = EDGE_CURVE('',#407,#379,#415,.T.);
#415 = LINE('',#416,#417);
#416 = CARTESIAN_POINT('',(0.,54.6,-15.));
#417 = VECTOR('',#418,1.);
#418 = DIRECTION('',(0.,0.,1.));
#419 = PLANE('',#420);
#420 = AXIS2_PLACEMENT_3D('',#421,#422,#423);
#421 = CARTESIAN_POINT('',(0.,72.827180523274,-33.42059439457));
#422 = DIRECTION('',(-1.,-0.,-0.));
#423 = DIRECTION('',(0.,0.,-1.));
#424 = ADVANCED_FACE('',(#425),#467,.T.);
#425 = FACE_BOUND('',#426,.T.);
#426 = EDGE_LOOP('',(#427,#428,#436,#445,#453,#461));
#427 = ORIENTED_EDGE('',*,*,#406,.F.);
#428 = ORIENTED_EDGE('',*,*,#429,.T.);
#429 = EDGE_CURVE('',#399,#430,#432,.T.);
#430 = VERTEX_POINT('',#431);
#431 = CARTESIAN_POINT('',(2.,78.,-82.0925440794));
#432 = LINE('',#433,#434);
#433 = CARTESIAN_POINT('',(0.,78.,-82.0925440794));
#434 = VECTOR('',#435,1.);
#435 = DIRECTION('',(1.,0.,0.));
#436 = ORIENTED_EDGE('',*,*,#437,.F.);
#437 = EDGE_CURVE('',#438,#430,#440,.T.);
#438 = VERTEX_POINT('',#439);
#439 = CARTESIAN_POINT('',(4.,78.,-82.0925440794));
#440 = ELLIPSE('',#441,9.243281910273,7.);
#441 = AXIS2_PLACEMENT_3D('',#442,#443,#444);
#442 = CARTESIAN_POINT('',(3.,81.01275116102,-90.7307124585));
#443 = DIRECTION('',(0.,-0.94421933172,-0.329317253734));
#444 = DIRECTION('',(0.,-0.329317253734,0.94421933172));
#445 = ORIENTED_EDGE('',*,*,#446,.T.);
#446 = EDGE_CURVE('',#438,#447,#449,.T.);
#447 = VERTEX_POINT('',#448);
#448 = CARTESIAN_POINT('',(6.,78.,-82.0925440794));
#449 = LINE('',#450,#451);
#450 = CARTESIAN_POINT('',(0.,78.,-82.0925440794));
#451 = VECTOR('',#452,1.);
#452 = DIRECTION('',(1.,0.,0.));
#453 = ORIENTED_EDGE('',*,*,#454,.T.);
#454 = EDGE_CURVE('',#447,#455,#457,.T.);
#455 = VERTEX_POINT('',#456);
#456 = CARTESIAN_POINT('',(6.,54.6,-15.));
#457 = LINE('',#458,#459);
#458 = CARTESIAN_POINT('',(6.,78.,-82.0925440794));
#459 = VECTOR('',#460,1.);
#460 = DIRECTION('',(0.,-0.329317253734,0.94421933172));
#461 = ORIENTED_EDGE('',*,*,#462,.F.);
#462 = EDGE_CURVE('',#407,#455,#463,.T.);
#463 = LINE('',#464,#465);
#464 = CARTESIAN_POINT('',(0.,54.6,-15.));
#465 = VECTOR('',#466,1.);
#466 = DIRECTION('',(1.,0.,0.));
#467 = PLANE('',#468);
#468 = AXIS2_PLACEMENT_3D('',#469,#470,#471);
#469 = CARTESIAN_POINT('',(0.,78.,-82.0925440794));
#470 = DIRECTION('',(0.,-0.94421933172,-0.329317253734));
#471 = DIRECTION('',(0.,-0.329317253734,0.94421933172));
#472 = ADVANCED_FACE('',(#473),#483,.T.);
#473 = FACE_BOUND('',#474,.T.);
#474 = EDGE_LOOP('',(#475,#476));
#475 = ORIENTED_EDGE('',*,*,#437,.T.);
#476 = ORIENTED_EDGE('',*,*,#477,.T.);
#477 = EDGE_CURVE('',#430,#438,#478,.T.);
#478 = CIRCLE('',#479,7.);
#479 = AXIS2_PLACEMENT_3D('',#480,#481,#482);
#480 = CARTESIAN_POINT('',(3.,84.,-85.55664569454));
#481 = DIRECTION('',(0.,0.5,0.866025403784));
#482 = DIRECTION('',(0.,0.866025403784,-0.5));
#483 = CYLINDRICAL_SURFACE('',#484,7.);
#484 = AXIS2_PLACEMENT_3D('',#485,#486,#487);
#485 = CARTESIAN_POINT('',(3.,84.,-85.55664569454));
#486 = DIRECTION('',(0.,0.5,0.866025403784));
#487 = DIRECTION('',(0.,0.866025403784,-0.5));
#488 = ADVANCED_FACE('',(#489,#507),#541,.T.);
#489 = FACE_BOUND('',#490,.T.);
#490 = EDGE_LOOP('',(#491,#492,#493,#501));
#491 = ORIENTED_EDGE('',*,*,#414,.F.);
#492 = ORIENTED_EDGE('',*,*,#462,.T.);
#493 = ORIENTED_EDGE('',*,*,#494,.T.);
#494 = EDGE_CURVE('',#455,#495,#497,.T.);
#495 = VERTEX_POINT('',#496);
#496 = CARTESIAN_POINT('',(6.,54.6,17.));
#497 = LINE('',#498,#499);
#498 = CARTESIAN_POINT('',(6.,54.6,-15.));
#499 = VECTOR('',#500,1.);
#500 = DIRECTION('',(0.,0.,1.));
#501 = ORIENTED_EDGE('',*,*,#502,.F.);
#502 = EDGE_CURVE('',#379,#495,#503,.T.);
#503 = LINE('',#504,#505);
#504 = CARTESIAN_POINT('',(0.,54.6,17.));
#505 = VECTOR('',#506,1.);
#506 = DIRECTION('',(1.,0.,0.));
#507 = FACE_BOUND('',#508,.T.);
#508 = EDGE_LOOP('',(#509,#519,#527,#535));
#509 = ORIENTED_EDGE('',*,*,#510,.T.);
#510 = EDGE_CURVE('',#511,#513,#515,.T.);
#511 = VERTEX_POINT('',#512);
#512 = CARTESIAN_POINT('',(5.5,54.6,-5.7));
#513 = VERTEX_POINT('',#514);
#514 = CARTESIAN_POINT('',(0.5,54.6,-5.7));
#515 = LINE('',#516,#517);
#516 = CARTESIAN_POINT('',(0.25,54.6,-5.7));
#517 = VECTOR('',#518,1.);
#518 = DIRECTION('',(-1.,0.,0.));
#519 = ORIENTED_EDGE('',*,*,#520,.T.);
#520 = EDGE_CURVE('',#513,#521,#523,.T.);
#521 = VERTEX_POINT('',#522);
#522 = CARTESIAN_POINT('',(0.5,54.6,-2.3));
#523 = LINE('',#524,#525);
#524 = CARTESIAN_POINT('',(0.5,54.6,-10.35));
#525 = VECTOR('',#526,1.);
#526 = DIRECTION('',(0.,0.,1.));
#527 = ORIENTED_EDGE('',*,*,#528,.F.);
#528 = EDGE_CURVE('',#529,#521,#531,.T.);
#529 = VERTEX_POINT('',#530);
#530 = CARTESIAN_POINT('',(5.5,54.6,-2.3));
#531 = LINE('',#532,#533);
#532 = CARTESIAN_POINT('',(0.25,54.6,-2.3));
#533 = VECTOR('',#534,1.);
#534 = DIRECTION('',(-1.,0.,0.));
#535 = ORIENTED_EDGE('',*,*,#536,.F.);
#536 = EDGE_CURVE('',#511,#529,#537,.T.);
#537 = LINE('',#538,#539);
#538 = CARTESIAN_POINT('',(5.5,54.6,-10.35));
#539 = VECTOR('',#540,1.);
#540 = DIRECTION('',(0.,0.,1.));
#541 = PLANE('',#542);
#542 = AXIS2_PLACEMENT_3D('',#543,#544,#545);
#543 = CARTESIAN_POINT('',(3.,54.6,1.));
#544 = DIRECTION('',(-0.,-1.,-0.));
#545 = DIRECTION('',(0.,0.,-1.));
#546 = ADVANCED_FACE('',(#547),#572,.T.);
#547 = FACE_BOUND('',#548,.T.);
#548 = EDGE_LOOP('',(#549,#557,#565,#571));
#549 = ORIENTED_EDGE('',*,*,#550,.F.);
#550 = EDGE_CURVE('',#551,#521,#553,.T.);
#551 = VERTEX_POINT('',#552);
#552 = CARTESIAN_POINT('',(0.5,-1.,-2.3));
#553 = LINE('',#554,#555);
#554 = CARTESIAN_POINT('',(0.5,-1.,-2.3));
#555 = VECTOR('',#556,1.);
#556 = DIRECTION('',(-0.,1.,0.));
#557 = ORIENTED_EDGE('',*,*,#558,.T.);
#558 = EDGE_CURVE('',#551,#559,#561,.T.);
#559 = VERTEX_POINT('',#560);
#560 = CARTESIAN_POINT('',(5.5,-1.,-2.3));
#561 = LINE('',#562,#563);
#562 = CARTESIAN_POINT('',(0.5,-1.,-2.3));
#563 = VECTOR('',#564,1.);
#564 = DIRECTION('',(1.,0.,-0.));
#565 = ORIENTED_EDGE('',*,*,#566,.T.);
#566 = EDGE_CURVE('',#559,#529,#567,.T.);
#567 = LINE('',#568,#569);
#568 = CARTESIAN_POINT('',(5.5,-1.,-2.3));
#569 = VECTOR('',#570,1.);
#570 = DIRECTION('',(-0.,1.,0.));
#571 = ORIENTED_EDGE('',*,*,#528,.T.);
#572 = PLANE('',#573);
#573 = AXIS2_PLACEMENT_3D('',#574,#575,#576);
#574 = CARTESIAN_POINT('',(0.5,-1.,-2.3));
#575 = DIRECTION('',(0.,0.,1.));
#576 = DIRECTION('',(1.,0.,-0.));
#577 = ADVANCED_FACE('',(#578),#603,.F.);
#578 = FACE_BOUND('',#579,.F.);
#579 = EDGE_LOOP('',(#580,#590,#596,#597));
#580 = ORIENTED_EDGE('',*,*,#581,.F.);
#581 = EDGE_CURVE('',#582,#584,#586,.T.);
#582 = VERTEX_POINT('',#583);
#583 = CARTESIAN_POINT('',(0.5,-1.,-4.3));
#584 = VERTEX_POINT('',#585);
#585 = CARTESIAN_POINT('',(5.5,-1.,-4.3));
#586 = LINE('',#587,#588);
#587 = CARTESIAN_POINT('',(0.5,-1.,-4.3));
#588 = VECTOR('',#589,1.);
#589 = DIRECTION('',(1.,0.,-0.));
#590 = ORIENTED_EDGE('',*,*,#591,.T.);
#591 = EDGE_CURVE('',#582,#551,#592,.T.);
#592 = LINE('',#593,#594);
#593 = CARTESIAN_POINT('',(0.5,-1.,-5.7));
#594 = VECTOR('',#595,1.);
#595 = DIRECTION('',(0.,0.,1.));
#596 = ORIENTED_EDGE('',*,*,#558,.T.);
#597 = ORIENTED_EDGE('',*,*,#598,.F.);
#598 = EDGE_CURVE('',#584,#559,#599,.T.);
#599 = LINE('',#600,#601);
#600 = CARTESIAN_POINT('',(5.5,-1.,-5.7));
#601 = VECTOR('',#602,1.);
#602 = DIRECTION('',(0.,0.,1.));
#603 = PLANE('',#604);
#604 = AXIS2_PLACEMENT_3D('',#605,#606,#607);
#605 = CARTESIAN_POINT('',(0.5,-1.,-5.7));
#606 = DIRECTION('',(-0.,1.,0.));
#607 = DIRECTION('',(0.,0.,1.));
#608 = ADVANCED_FACE('',(#609),#634,.T.);
#609 = FACE_BOUND('',#610,.T.);
#610 = EDGE_LOOP('',(#611,#619,#627,#633));
#611 = ORIENTED_EDGE('',*,*,#612,.F.);
#612 = EDGE_CURVE('',#613,#582,#615,.T.);
#613 = VERTEX_POINT('',#614);
#614 = CARTESIAN_POINT('',(0.5,-5.6,-4.3));
#615 = LINE('',#616,#617);
#616 = CARTESIAN_POINT('',(0.5,-22.,-4.3));
#617 = VECTOR('',#618,1.);
#618 = DIRECTION('',(-0.,1.,0.));
#619 = ORIENTED_EDGE('',*,*,#620,.T.);
#620 = EDGE_CURVE('',#613,#621,#623,.T.);
#621 = VERTEX_POINT('',#622);
#622 = CARTESIAN_POINT('',(5.5,-5.6,-4.3));
#623 = LINE('',#624,#625);
#624 = CARTESIAN_POINT('',(0.5,-5.6,-4.3));
#625 = VECTOR('',#626,1.);
#626 = DIRECTION('',(1.,0.,0.));
#627 = ORIENTED_EDGE('',*,*,#628,.T.);
#628 = EDGE_CURVE('',#621,#584,#629,.T.);
#629 = LINE('',#630,#631);
#630 = CARTESIAN_POINT('',(5.5,-22.,-4.3));
#631 = VECTOR('',#632,1.);
#632 = DIRECTION('',(-0.,1.,0.));
#633 = ORIENTED_EDGE('',*,*,#581,.F.);
#634 = PLANE('',#635);
#635 = AXIS2_PLACEMENT_3D('',#636,#637,#638);
#636 = CARTESIAN_POINT('',(0.5,-22.,-4.3));
#637 = DIRECTION('',(0.,0.,1.));
#638 = DIRECTION('',(1.,0.,-0.));
#639 = ADVANCED_FACE('',(#640),#665,.T.);
#640 = FACE_BOUND('',#641,.T.);
#641 = EDGE_LOOP('',(#642,#652,#658,#659));
#642 = ORIENTED_EDGE('',*,*,#643,.T.);
#643 = EDGE_CURVE('',#644,#646,#648,.T.);
#644 = VERTEX_POINT('',#645);
#645 = CARTESIAN_POINT('',(0.5,-5.6,-0.6));
#646 = VERTEX_POINT('',#647);
#647 = CARTESIAN_POINT('',(5.5,-5.6,-0.6));
#648 = LINE('',#649,#650);
#649 = CARTESIAN_POINT('',(0.5,-5.6,-0.6));
#650 = VECTOR('',#651,1.);
#651 = DIRECTION('',(1.,0.,0.));
#652 = ORIENTED_EDGE('',*,*,#653,.T.);
#653 = EDGE_CURVE('',#646,#621,#654,.T.);
#654 = LINE('',#655,#656);
#655 = CARTESIAN_POINT('',(5.5,-5.6,-0.6));
#656 = VECTOR('',#657,1.);
#657 = DIRECTION('',(0.,0.,-1.));
#658 = ORIENTED_EDGE('',*,*,#620,.F.);
#659 = ORIENTED_EDGE('',*,*,#660,.F.);
#660 = EDGE_CURVE('',#644,#613,#661,.T.);
#661 = LINE('',#662,#663);
#662 = CARTESIAN_POINT('',(0.5,-5.6,-0.6));
#663 = VECTOR('',#664,1.);
#664 = DIRECTION('',(0.,0.,-1.));
#665 = PLANE('',#666);
#666 = AXIS2_PLACEMENT_3D('',#667,#668,#669);
#667 = CARTESIAN_POINT('',(0.5,-5.6,-0.6));
#668 = DIRECTION('',(-0.,1.,0.));
#669 = DIRECTION('',(0.,0.,-1.));
#670 = ADVANCED_FACE('',(#671),#696,.T.);
#671 = FACE_BOUND('',#672,.T.);
#672 = EDGE_LOOP('',(#673,#683,#689,#690));
#673 = ORIENTED_EDGE('',*,*,#674,.T.);
#674 = EDGE_CURVE('',#675,#677,#679,.T.);
#675 = VERTEX_POINT('',#676);
#676 = CARTESIAN_POINT('',(0.5,-9.,-0.6));
#677 = VERTEX_POINT('',#678);
#678 = CARTESIAN_POINT('',(5.5,-9.,-0.6));
#679 = LINE('',#680,#681);
#680 = CARTESIAN_POINT('',(0.5,-9.,-0.6));
#681 = VECTOR('',#682,1.);
#682 = DIRECTION('',(1.,0.,0.));
#683 = ORIENTED_EDGE('',*,*,#684,.T.);
#684 = EDGE_CURVE('',#677,#646,#685,.T.);
#685 = LINE('',#686,#687);
#686 = CARTESIAN_POINT('',(5.5,-9.,-0.6));
#687 = VECTOR('',#688,1.);
#688 = DIRECTION('',(0.,1.,0.));
#689 = ORIENTED_EDGE('',*,*,#643,.F.);
#690 = ORIENTED_EDGE('',*,*,#691,.F.);
#691 = EDGE_CURVE('',#675,#644,#692,.T.);
#692 = LINE('',#693,#694);
#693 = CARTESIAN_POINT('',(0.5,-9.,-0.6));
#694 = VECTOR('',#695,1.);
#695 = DIRECTION('',(0.,1.,0.));
#696 = PLANE('',#697);
#697 = AXIS2_PLACEMENT_3D('',#698,#699,#700);
#698 = CARTESIAN_POINT('',(0.5,-9.,-0.6));
#699 = DIRECTION('',(0.,0.,1.));
#700 = DIRECTION('',(0.,1.,0.));
#701 = ADVANCED_FACE('',(#702),#727,.T.);
#702 = FACE_BOUND('',#703,.T.);
#703 = EDGE_LOOP('',(#704,#712,#720,#726));
#704 = ORIENTED_EDGE('',*,*,#705,.F.);
#705 = EDGE_CURVE('',#706,#675,#708,.T.);
#706 = VERTEX_POINT('',#707);
#707 = CARTESIAN_POINT('',(0.5,-10.,-1.216666666667));
#708 = LINE('',#709,#710);
#709 = CARTESIAN_POINT('',(0.5,-15.,-4.3));
#710 = VECTOR('',#711,1.);
#711 = DIRECTION('',(0.,0.851170869724,0.524888702996));
#712 = ORIENTED_EDGE('',*,*,#713,.F.);
#713 = EDGE_CURVE('',#714,#706,#716,.T.);
#714 = VERTEX_POINT('',#715);
#715 = CARTESIAN_POINT('',(5.5,-10.,-1.216666666667));
#716 = LINE('',#717,#718);
#717 = CARTESIAN_POINT('',(-3.75,-10.,-1.216666666667));
#718 = VECTOR('',#719,1.);
#719 = DIRECTION('',(-1.,-0.,0.));
#720 = ORIENTED_EDGE('',*,*,#721,.T.);
#721 = EDGE_CURVE('',#714,#677,#722,.T.);
#722 = LINE('',#723,#724);
#723 = CARTESIAN_POINT('',(5.5,-15.,-4.3));
#724 = VECTOR('',#725,1.);
#725 = DIRECTION('',(0.,0.851170869724,0.524888702996));
#726 = ORIENTED_EDGE('',*,*,#674,.F.);
#727 = PLANE('',#728);
#728 = AXIS2_PLACEMENT_3D('',#729,#730,#731);
#729 = CARTESIAN_POINT('',(0.5,-15.,-4.3));
#730 = DIRECTION('',(0.,-0.524888702996,0.851170869724));
#731 = DIRECTION('',(0.,0.851170869724,0.524888702996));
#732 = ADVANCED_FACE('',(#733),#758,.F.);
#733 = FACE_BOUND('',#734,.F.);
#734 = EDGE_LOOP('',(#735,#745,#751,#752));
#735 = ORIENTED_EDGE('',*,*,#736,.F.);
#736 = EDGE_CURVE('',#737,#739,#741,.T.);
#737 = VERTEX_POINT('',#738);
#738 = CARTESIAN_POINT('',(0.5,-10.,-1.3));
#739 = VERTEX_POINT('',#740);
#740 = CARTESIAN_POINT('',(5.5,-10.,-1.3));
#741 = LINE('',#742,#743);
#742 = CARTESIAN_POINT('',(-8.,-10.,-1.3));
#743 = VECTOR('',#744,1.);
#744 = DIRECTION('',(1.,0.,-0.));
#745 = ORIENTED_EDGE('',*,*,#746,.F.);
#746 = EDGE_CURVE('',#706,#737,#747,.T.);
#747 = LINE('',#748,#749);
#748 = CARTESIAN_POINT('',(0.5,-10.,-2.110677662303));
#749 = VECTOR('',#750,1.);
#750 = DIRECTION('',(0.,0.,-1.));
#751 = ORIENTED_EDGE('',*,*,#713,.F.);
#752 = ORIENTED_EDGE('',*,*,#753,.T.);
#753 = EDGE_CURVE('',#714,#739,#754,.T.);
#754 = LINE('',#755,#756);
#755 = CARTESIAN_POINT('',(5.5,-10.,-2.110677662303));
#756 = VECTOR('',#757,1.);
#757 = DIRECTION('',(0.,0.,-1.));
#758 = PLANE('',#759);
#759 = AXIS2_PLACEMENT_3D('',#760,#761,#762);
#760 = CARTESIAN_POINT('',(-8.,-10.,-1.3));
#761 = DIRECTION('',(-0.,1.,0.));
#762 = DIRECTION('',(0.,0.,1.));
#763 = ADVANCED_FACE('',(#764),#789,.T.);
#764 = FACE_BOUND('',#765,.T.);
#765 = EDGE_LOOP('',(#766,#767,#775,#783));
#766 = ORIENTED_EDGE('',*,*,#736,.F.);
#767 = ORIENTED_EDGE('',*,*,#768,.F.);
#768 = EDGE_CURVE('',#769,#737,#771,.T.);
#769 = VERTEX_POINT('',#770);
#770 = CARTESIAN_POINT('',(0.5,-10.13513513513,-1.3));
#771 = LINE('',#772,#773);
#772 = CARTESIAN_POINT('',(0.5,-11.31863917742,-1.3));
#773 = VECTOR('',#774,1.);
#774 = DIRECTION('',(0.,1.,0.));
#775 = ORIENTED_EDGE('',*,*,#776,.F.);
#776 = EDGE_CURVE('',#777,#769,#779,.T.);
#777 = VERTEX_POINT('',#778);
#778 = CARTESIAN_POINT('',(5.5,-10.13513513513,-1.3));
#779 = LINE('',#780,#781);
#780 = CARTESIAN_POINT('',(-3.75,-10.13513513513,-1.3));
#781 = VECTOR('',#782,1.);
#782 = DIRECTION('',(-1.,0.,0.));
#783 = ORIENTED_EDGE('',*,*,#784,.T.);
#784 = EDGE_CURVE('',#777,#739,#785,.T.);
#785 = LINE('',#786,#787);
#786 = CARTESIAN_POINT('',(5.5,-11.31863917742,-1.3));
#787 = VECTOR('',#788,1.);
#788 = DIRECTION('',(0.,1.,0.));
#789 = PLANE('',#790);
#790 = AXIS2_PLACEMENT_3D('',#791,#792,#793);
#791 = CARTESIAN_POINT('',(-8.,-13.,-1.3));
#792 = DIRECTION('',(0.,0.,1.));
#793 = DIRECTION('',(1.,0.,-0.));
#794 = ADVANCED_FACE('',(#795),#820,.T.);
#795 = FACE_BOUND('',#796,.T.);
#796 = EDGE_LOOP('',(#797,#805,#813,#819));
#797 = ORIENTED_EDGE('',*,*,#798,.F.);
#798 = EDGE_CURVE('',#799,#769,#801,.T.);
#799 = VERTEX_POINT('',#800);
#800 = CARTESIAN_POINT('',(0.5,-11.75675675675,-2.3));
#801 = LINE('',#802,#803);
#802 = CARTESIAN_POINT('',(0.5,-15.,-4.3));
#803 = VECTOR('',#804,1.);
#804 = DIRECTION('',(0.,0.851170869724,0.524888702996));
#805 = ORIENTED_EDGE('',*,*,#806,.F.);
#806 = EDGE_CURVE('',#807,#799,#809,.T.);
#807 = VERTEX_POINT('',#808);
#808 = CARTESIAN_POINT('',(5.5,-11.75675675675,-2.3));
#809 = LINE('',#810,#811);
#810 = CARTESIAN_POINT('',(0.5,-11.75675675675,-2.3));
#811 = VECTOR('',#812,1.);
#812 = DIRECTION('',(-1.,0.,0.));
#813 = ORIENTED_EDGE('',*,*,#814,.T.);
#814 = EDGE_CURVE('',#807,#777,#815,.T.);
#815 = LINE('',#816,#817);
#816 = CARTESIAN_POINT('',(5.5,-15.,-4.3));
#817 = VECTOR('',#818,1.);
#818 = DIRECTION('',(0.,0.851170869724,0.524888702996));
#819 = ORIENTED_EDGE('',*,*,#776,.T.);
#820 = PLANE('',#821);
#821 = AXIS2_PLACEMENT_3D('',#822,#823,#824);
#822 = CARTESIAN_POINT('',(0.5,-15.,-4.3));
#823 = DIRECTION('',(0.,-0.524888702996,0.851170869724));
#824 = DIRECTION('',(0.,0.851170869724,0.524888702996));
#825 = ADVANCED_FACE('',(#826),#837,.T.);
#826 = FACE_BOUND('',#827,.T.);
#827 = EDGE_LOOP('',(#828,#829,#830,#836));
#828 = ORIENTED_EDGE('',*,*,#378,.F.);
#829 = ORIENTED_EDGE('',*,*,#502,.T.);
#830 = ORIENTED_EDGE('',*,*,#831,.T.);
#831 = EDGE_CURVE('',#495,#197,#832,.T.);
#832 = LINE('',#833,#834);
#833 = CARTESIAN_POINT('',(6.,54.6,17.));
#834 = VECTOR('',#835,1.);
#835 = DIRECTION('',(0.,1.,0.));
#836 = ORIENTED_EDGE('',*,*,#196,.F.);
#837 = PLANE('',#838);
#838 = AXIS2_PLACEMENT_3D('',#839,#840,#841);
#839 = CARTESIAN_POINT('',(3.,61.6,17.));
#840 = DIRECTION('',(0.,0.,1.));
#841 = DIRECTION('',(1.,0.,-0.));
#842 = ADVANCED_FACE('',(#843),#866,.T.);
#843 = FACE_BOUND('',#844,.T.);
#844 = EDGE_LOOP('',(#845,#846,#847,#855,#861,#862,#863,#864,#865));
#845 = ORIENTED_EDGE('',*,*,#494,.F.);
#846 = ORIENTED_EDGE('',*,*,#454,.F.);
#847 = ORIENTED_EDGE('',*,*,#848,.F.);
#848 = EDGE_CURVE('',#849,#447,#851,.T.);
#849 = VERTEX_POINT('',#850);
#850 = CARTESIAN_POINT('',(6.,78.522774424948,-82.39436803437));
#851 = LINE('',#852,#853);
#852 = CARTESIAN_POINT('',(6.,90.,-89.02074730968));
#853 = VECTOR('',#854,1.);
#854 = DIRECTION('',(0.,-0.866025403784,0.5));
#855 = ORIENTED_EDGE('',*,*,#856,.T.);
#856 = EDGE_CURVE('',#849,#125,#857,.T.);
#857 = LINE('',#858,#859);
#858 = CARTESIAN_POINT('',(6.,78.522774424948,-82.39436803437));
#859 = VECTOR('',#860,1.);
#860 = DIRECTION('',(0.,0.5,0.866025403784));
#861 = ORIENTED_EDGE('',*,*,#124,.T.);
#862 = ORIENTED_EDGE('',*,*,#58,.T.);
#863 = ORIENTED_EDGE('',*,*,#173,.T.);
#864 = ORIENTED_EDGE('',*,*,#204,.F.);
#865 = ORIENTED_EDGE('',*,*,#831,.F.);
#866 = PLANE('',#867);
#867 = AXIS2_PLACEMENT_3D('',#868,#869,#870);
#868 = CARTESIAN_POINT('',(6.,72.827180523274,-33.42059439457));
#869 = DIRECTION('',(1.,0.,0.));
#870 = DIRECTION('',(-0.,0.,1.));
#871 = ADVANCED_FACE('',(#872,#945),#952,.T.);
#872 = FACE_BOUND('',#873,.T.);
#873 = EDGE_LOOP('',(#874,#875,#884,#892,#900,#909,#918,#926,#934,#941,
    #942,#943,#944));
#874 = ORIENTED_EDGE('',*,*,#398,.F.);
#875 = ORIENTED_EDGE('',*,*,#876,.F.);
#876 = EDGE_CURVE('',#877,#391,#879,.T.);
#877 = VERTEX_POINT('',#878);
#878 = CARTESIAN_POINT('',(4.840572387366E-14,89.477225575052,
    -88.71892335471));
#879 = CIRCLE('',#880,7.);
#880 = AXIS2_PLACEMENT_3D('',#881,#882,#883);
#881 = CARTESIAN_POINT('',(3.,84.,-85.55664569454));
#882 = DIRECTION('',(0.,0.5,0.866025403784));
#883 = DIRECTION('',(0.,0.866025403784,-0.5));
#884 = ORIENTED_EDGE('',*,*,#885,.F.);
#885 = EDGE_CURVE('',#886,#877,#888,.T.);
#886 = VERTEX_POINT('',#887);
#887 = CARTESIAN_POINT('',(0.,90.,-89.02074730968));
#888 = LINE('',#889,#890);
#889 = CARTESIAN_POINT('',(0.,90.,-89.02074730968));
#890 = VECTOR('',#891,1.);
#891 = DIRECTION('',(0.,-0.866025403784,0.5));
#892 = ORIENTED_EDGE('',*,*,#893,.T.);
#893 = EDGE_CURVE('',#886,#894,#896,.T.);
#894 = VERTEX_POINT('',#895);
#895 = CARTESIAN_POINT('',(1.999999999999,90.,-89.02074730968));
#896 = LINE('',#897,#898);
#897 = CARTESIAN_POINT('',(0.,90.,-89.02074730968));
#898 = VECTOR('',#899,1.);
#899 = DIRECTION('',(1.,0.,0.));
#900 = ORIENTED_EDGE('',*,*,#901,.F.);
#901 = EDGE_CURVE('',#902,#894,#904,.T.);
#902 = VERTEX_POINT('',#903);
#903 = CARTESIAN_POINT('',(3.,90.062177826491,-89.05664569454));
#904 = CIRCLE('',#905,7.);
#905 = AXIS2_PLACEMENT_3D('',#906,#907,#908);
#906 = CARTESIAN_POINT('',(3.,84.,-85.55664569454));
#907 = DIRECTION('',(0.,0.5,0.866025403784));
#908 = DIRECTION('',(0.,0.866025403784,-0.5));
#909 = ORIENTED_EDGE('',*,*,#910,.F.);
#910 = EDGE_CURVE('',#911,#902,#913,.T.);
#911 = VERTEX_POINT('',#912);
#912 = CARTESIAN_POINT('',(4.000000000001,90.,-89.02074730968));
#913 = CIRCLE('',#914,7.);
#914 = AXIS2_PLACEMENT_3D('',#915,#916,#917);
#915 = CARTESIAN_POINT('',(3.,84.,-85.55664569454));
#916 = DIRECTION('',(0.,0.5,0.866025403784));
#917 = DIRECTION('',(0.,0.866025403784,-0.5));
#918 = ORIENTED_EDGE('',*,*,#919,.T.);
#919 = EDGE_CURVE('',#911,#920,#922,.T.);
#920 = VERTEX_POINT('',#921);
#921 = CARTESIAN_POINT('',(6.,90.,-89.02074730968));
#922 = LINE('',#923,#924);
#923 = CARTESIAN_POINT('',(0.,90.,-89.02074730968));
#924 = VECTOR('',#925,1.);
#925 = DIRECTION('',(1.,0.,0.));
#926 = ORIENTED_EDGE('',*,*,#927,.T.);
#927 = EDGE_CURVE('',#920,#928,#930,.T.);
#928 = VERTEX_POINT('',#929);
#929 = CARTESIAN_POINT('',(6.,89.477225575052,-88.71892335471));
#930 = LINE('',#931,#932);
#931 = CARTESIAN_POINT('',(6.,90.,-89.02074730968));
#932 = VECTOR('',#933,1.);
#933 = DIRECTION('',(0.,-0.866025403784,0.5));
#934 = ORIENTED_EDGE('',*,*,#935,.F.);
#935 = EDGE_CURVE('',#849,#928,#936,.T.);
#936 = CIRCLE('',#937,7.);
#937 = AXIS2_PLACEMENT_3D('',#938,#939,#940);
#938 = CARTESIAN_POINT('',(3.,84.,-85.55664569454));
#939 = DIRECTION('',(0.,0.5,0.866025403784));
#940 = DIRECTION('',(0.,0.866025403784,-0.5));
#941 = ORIENTED_EDGE('',*,*,#848,.T.);
#942 = ORIENTED_EDGE('',*,*,#446,.F.);
#943 = ORIENTED_EDGE('',*,*,#477,.F.);
#944 = ORIENTED_EDGE('',*,*,#429,.F.);
#945 = FACE_BOUND('',#946,.T.);
#946 = EDGE_LOOP('',(#947,#948,#949,#950,#951));
#947 = ORIENTED_EDGE('',*,*,#324,.F.);
#948 = ORIENTED_EDGE('',*,*,#333,.F.);
#949 = ORIENTED_EDGE('',*,*,#342,.F.);
#950 = ORIENTED_EDGE('',*,*,#351,.F.);
#951 = ORIENTED_EDGE('',*,*,#360,.F.);
#952 = PLANE('',#953);
#953 = AXIS2_PLACEMENT_3D('',#954,#955,#956);
#954 = CARTESIAN_POINT('',(3.,84.000229255549,-85.55677805529));
#955 = DIRECTION('',(-0.,-0.5,-0.866025403784));
#956 = DIRECTION('',(0.,-0.866025403784,0.5));
#957 = ADVANCED_FACE('',(#958),#983,.T.);
#958 = FACE_BOUND('',#959,.T.);
#959 = EDGE_LOOP('',(#960,#968,#976,#982));
#960 = ORIENTED_EDGE('',*,*,#961,.T.);
#961 = EDGE_CURVE('',#877,#962,#964,.T.);
#962 = VERTEX_POINT('',#963);
#963 = CARTESIAN_POINT('',(0.,95.506993486341,-78.27505897451));
#964 = LINE('',#965,#966);
#965 = CARTESIAN_POINT('',(0.,89.477225575052,-88.71892335471));
#966 = VECTOR('',#967,1.);
#967 = DIRECTION('',(0.,0.5,0.866025403784));
#968 = ORIENTED_EDGE('',*,*,#969,.T.);
#969 = EDGE_CURVE('',#962,#970,#972,.T.);
#970 = VERTEX_POINT('',#971);
#971 = CARTESIAN_POINT('',(0.,96.,-80.02074730968));
#972 = LINE('',#973,#974);
#973 = CARTESIAN_POINT('',(0.,68.6,17.));
#974 = VECTOR('',#975,1.);
#975 = DIRECTION('',(0.,0.271783332376,-0.962358467642));
#976 = ORIENTED_EDGE('',*,*,#977,.T.);
#977 = EDGE_CURVE('',#970,#886,#978,.T.);
#978 = LINE('',#979,#980);
#979 = CARTESIAN_POINT('',(0.,96.,-80.02074730968));
#980 = VECTOR('',#981,1.);
#981 = DIRECTION('',(0.,-0.554700196225,-0.832050294338));
#982 = ORIENTED_EDGE('',*,*,#885,.T.);
#983 = PLANE('',#984);
#984 = AXIS2_PLACEMENT_3D('',#985,#986,#987);
#985 = CARTESIAN_POINT('',(0.,73.337516095933,-34.8636074775));
#986 = DIRECTION('',(-1.,-0.,-0.));
#987 = DIRECTION('',(0.,0.,-1.));
#988 = ADVANCED_FACE('',(#989),#1024,.T.);
#989 = FACE_BOUND('',#990,.T.);
#990 = EDGE_LOOP('',(#991,#992,#1001,#1010,#1018));
#991 = ORIENTED_EDGE('',*,*,#969,.F.);
#992 = ORIENTED_EDGE('',*,*,#993,.F.);
#993 = EDGE_CURVE('',#994,#962,#996,.T.);
#994 = VERTEX_POINT('',#995);
#995 = CARTESIAN_POINT('',(3.,95.763185624723,-79.18221053366));
#996 = ELLIPSE('',#997,9.769025297008,7.);
#997 = AXIS2_PLACEMENT_3D('',#998,#999,#1000);
#998 = CARTESIAN_POINT('',(3.,93.108127375441,-69.78090631847));
#999 = DIRECTION('',(-0.,0.962358467642,0.271783332376));
#1000 = DIRECTION('',(0.,-0.271783332376,0.962358467642));
#1001 = ORIENTED_EDGE('',*,*,#1002,.F.);
#1002 = EDGE_CURVE('',#1003,#994,#1005,.T.);
#1003 = VERTEX_POINT('',#1004);
#1004 = CARTESIAN_POINT('',(6.,95.506993486341,-78.27505897451));
#1005 = ELLIPSE('',#1006,9.769025297008,7.);
#1006 = AXIS2_PLACEMENT_3D('',#1007,#1008,#1009);
#1007 = CARTESIAN_POINT('',(3.,93.108127375441,-69.78090631847));
#1008 = DIRECTION('',(-0.,0.962358467642,0.271783332376));
#1009 = DIRECTION('',(0.,-0.271783332376,0.962358467642));
#1010 = ORIENTED_EDGE('',*,*,#1011,.T.);
#1011 = EDGE_CURVE('',#1003,#1012,#1014,.T.);
#1012 = VERTEX_POINT('',#1013);
#1013 = CARTESIAN_POINT('',(6.,96.,-80.02074730968));
#1014 = LINE('',#1015,#1016);
#1015 = CARTESIAN_POINT('',(6.,68.6,17.));
#1016 = VECTOR('',#1017,1.);
#1017 = DIRECTION('',(0.,0.271783332376,-0.962358467642));
#1018 = ORIENTED_EDGE('',*,*,#1019,.F.);
#1019 = EDGE_CURVE('',#970,#1012,#1020,.T.);
#1020 = LINE('',#1021,#1022);
#1021 = CARTESIAN_POINT('',(0.,96.,-80.02074730968));
#1022 = VECTOR('',#1023,1.);
#1023 = DIRECTION('',(1.,0.,0.));
#1024 = PLANE('',#1025);
#1025 = AXIS2_PLACEMENT_3D('',#1026,#1027,#1028);
#1026 = CARTESIAN_POINT('',(0.,68.6,17.));
#1027 = DIRECTION('',(-0.,0.962358467642,0.271783332376));
#1028 = DIRECTION('',(0.,0.271783332376,-0.962358467642));
#1029 = ADVANCED_FACE('',(#1030),#1058,.T.);
#1030 = FACE_BOUND('',#1031,.T.);
#1031 = EDGE_LOOP('',(#1032,#1033,#1034,#1040,#1041,#1050,#1057));
#1032 = ORIENTED_EDGE('',*,*,#977,.F.);
#1033 = ORIENTED_EDGE('',*,*,#1019,.T.);
#1034 = ORIENTED_EDGE('',*,*,#1035,.T.);
#1035 = EDGE_CURVE('',#1012,#920,#1036,.T.);
#1036 = LINE('',#1037,#1038);
#1037 = CARTESIAN_POINT('',(6.,96.,-80.02074730968));
#1038 = VECTOR('',#1039,1.);
#1039 = DIRECTION('',(0.,-0.554700196225,-0.832050294338));
#1040 = ORIENTED_EDGE('',*,*,#919,.F.);
#1041 = ORIENTED_EDGE('',*,*,#1042,.F.);
#1042 = EDGE_CURVE('',#1043,#911,#1045,.T.);
#1043 = VERTEX_POINT('',#1044);
#1044 = CARTESIAN_POINT('',(3.,90.618802153517,-88.0925440794));
#1045 = ELLIPSE('',#1046,108.76436584154,7.);
#1046 = AXIS2_PLACEMENT_3D('',#1047,#1048,#1049);
#1047 = CARTESIAN_POINT('',(3.,30.287187078898,-178.5899666913));
#1048 = DIRECTION('',(0.,0.832050294338,-0.554700196225));
#1049 = DIRECTION('',(0.,0.554700196225,0.832050294338));
#1050 = ORIENTED_EDGE('',*,*,#1051,.F.);
#1051 = EDGE_CURVE('',#894,#1043,#1052,.T.);
#1052 = ELLIPSE('',#1053,108.76436584154,7.);
#1053 = AXIS2_PLACEMENT_3D('',#1054,#1055,#1056);
#1054 = CARTESIAN_POINT('',(3.,30.287187078898,-178.5899666913));
#1055 = DIRECTION('',(0.,0.832050294338,-0.554700196225));
#1056 = DIRECTION('',(0.,0.554700196225,0.832050294338));
#1057 = ORIENTED_EDGE('',*,*,#893,.F.);
#1058 = PLANE('',#1059);
#1059 = AXIS2_PLACEMENT_3D('',#1060,#1061,#1062);
#1060 = CARTESIAN_POINT('',(0.,96.,-80.02074730968));
#1061 = DIRECTION('',(0.,0.832050294338,-0.554700196225));
#1062 = DIRECTION('',(0.,-0.554700196225,-0.832050294338));
#1063 = ADVANCED_FACE('',(#1064),#1075,.F.);
#1064 = FACE_BOUND('',#1065,.F.);
#1065 = EDGE_LOOP('',(#1066,#1072,#1073,#1074));
#1066 = ORIENTED_EDGE('',*,*,#1067,.T.);
#1067 = EDGE_CURVE('',#928,#1003,#1068,.T.);
#1068 = LINE('',#1069,#1070);
#1069 = CARTESIAN_POINT('',(6.,89.477225575052,-88.71892335471));
#1070 = VECTOR('',#1071,1.);
#1071 = DIRECTION('',(0.,0.5,0.866025403784));
#1072 = ORIENTED_EDGE('',*,*,#1011,.T.);
#1073 = ORIENTED_EDGE('',*,*,#1035,.T.);
#1074 = ORIENTED_EDGE('',*,*,#927,.T.);
#1075 = PLANE('',#1076);
#1076 = AXIS2_PLACEMENT_3D('',#1077,#1078,#1079);
#1077 = CARTESIAN_POINT('',(6.,73.337516095933,-34.8636074775));
#1078 = DIRECTION('',(-1.,-0.,-0.));
#1079 = DIRECTION('',(0.,0.,-1.));
#1080 = ADVANCED_FACE('',(#1081),#1106,.T.);
#1081 = FACE_BOUND('',#1082,.T.);
#1082 = EDGE_LOOP('',(#1083,#1084,#1092,#1100));
#1083 = ORIENTED_EDGE('',*,*,#510,.F.);
#1084 = ORIENTED_EDGE('',*,*,#1085,.F.);
#1085 = EDGE_CURVE('',#1086,#511,#1088,.T.);
#1086 = VERTEX_POINT('',#1087);
#1087 = CARTESIAN_POINT('',(5.5,-5.6,-5.7));
#1088 = LINE('',#1089,#1090);
#1089 = CARTESIAN_POINT('',(5.5,-1.,-5.7));
#1090 = VECTOR('',#1091,1.);
#1091 = DIRECTION('',(-0.,1.,0.));
#1092 = ORIENTED_EDGE('',*,*,#1093,.F.);
#1093 = EDGE_CURVE('',#1094,#1086,#1096,.T.);
#1094 = VERTEX_POINT('',#1095);
#1095 = CARTESIAN_POINT('',(0.5,-5.6,-5.7));
#1096 = LINE('',#1097,#1098);
#1097 = CARTESIAN_POINT('',(0.5,-5.6,-5.7));
#1098 = VECTOR('',#1099,1.);
#1099 = DIRECTION('',(1.,0.,0.));
#1100 = ORIENTED_EDGE('',*,*,#1101,.T.);
#1101 = EDGE_CURVE('',#1094,#513,#1102,.T.);
#1102 = LINE('',#1103,#1104);
#1103 = CARTESIAN_POINT('',(0.5,-22.,-5.7));
#1104 = VECTOR('',#1105,1.);
#1105 = DIRECTION('',(-0.,1.,0.));
#1106 = PLANE('',#1107);
#1107 = AXIS2_PLACEMENT_3D('',#1108,#1109,#1110);
#1108 = CARTESIAN_POINT('',(3.,24.5,-5.7));
#1109 = DIRECTION('',(-0.,-0.,-1.));
#1110 = DIRECTION('',(-1.,0.,0.));
#1111 = ADVANCED_FACE('',(#1112),#1137,.F.);
#1112 = FACE_BOUND('',#1113,.F.);
#1113 = EDGE_LOOP('',(#1114,#1124,#1130,#1131));
#1114 = ORIENTED_EDGE('',*,*,#1115,.T.);
#1115 = EDGE_CURVE('',#1116,#1118,#1120,.T.);
#1116 = VERTEX_POINT('',#1117);
#1117 = CARTESIAN_POINT('',(0.5,-5.6,-7.4));
#1118 = VERTEX_POINT('',#1119);
#1119 = CARTESIAN_POINT('',(5.5,-5.6,-7.4));
#1120 = LINE('',#1121,#1122);
#1121 = CARTESIAN_POINT('',(0.5,-5.6,-7.4));
#1122 = VECTOR('',#1123,1.);
#1123 = DIRECTION('',(1.,0.,0.));
#1124 = ORIENTED_EDGE('',*,*,#1125,.T.);
#1125 = EDGE_CURVE('',#1118,#1086,#1126,.T.);
#1126 = LINE('',#1127,#1128);
#1127 = CARTESIAN_POINT('',(5.5,-5.6,-7.4));
#1128 = VECTOR('',#1129,1.);
#1129 = DIRECTION('',(0.,0.,1.));
#1130 = ORIENTED_EDGE('',*,*,#1093,.F.);
#1131 = ORIENTED_EDGE('',*,*,#1132,.F.);
#1132 = EDGE_CURVE('',#1116,#1094,#1133,.T.);
#1133 = LINE('',#1134,#1135);
#1134 = CARTESIAN_POINT('',(0.5,-5.6,-7.4));
#1135 = VECTOR('',#1136,1.);
#1136 = DIRECTION('',(0.,0.,1.));
#1137 = PLANE('',#1138);
#1138 = AXIS2_PLACEMENT_3D('',#1139,#1140,#1141);
#1139 = CARTESIAN_POINT('',(0.5,-5.6,-7.4));
#1140 = DIRECTION('',(0.,-1.,0.));
#1141 = DIRECTION('',(0.,0.,1.));
#1142 = ADVANCED_FACE('',(#1143),#1168,.F.);
#1143 = FACE_BOUND('',#1144,.F.);
#1144 = EDGE_LOOP('',(#1145,#1155,#1161,#1162));
#1145 = ORIENTED_EDGE('',*,*,#1146,.T.);
#1146 = EDGE_CURVE('',#1147,#1149,#1151,.T.);
#1147 = VERTEX_POINT('',#1148);
#1148 = CARTESIAN_POINT('',(0.5,-9.,-7.4));
#1149 = VERTEX_POINT('',#1150);
#1150 = CARTESIAN_POINT('',(5.5,-9.,-7.4));
#1151 = LINE('',#1152,#1153);
#1152 = CARTESIAN_POINT('',(0.5,-9.,-7.4));
#1153 = VECTOR('',#1154,1.);
#1154 = DIRECTION('',(1.,0.,0.));
#1155 = ORIENTED_EDGE('',*,*,#1156,.T.);
#1156 = EDGE_CURVE('',#1149,#1118,#1157,.T.);
#1157 = LINE('',#1158,#1159);
#1158 = CARTESIAN_POINT('',(5.5,-9.,-7.4));
#1159 = VECTOR('',#1160,1.);
#1160 = DIRECTION('',(0.,1.,0.));
#1161 = ORIENTED_EDGE('',*,*,#1115,.F.);
#1162 = ORIENTED_EDGE('',*,*,#1163,.F.);
#1163 = EDGE_CURVE('',#1147,#1116,#1164,.T.);
#1164 = LINE('',#1165,#1166);
#1165 = CARTESIAN_POINT('',(0.5,-9.,-7.4));
#1166 = VECTOR('',#1167,1.);
#1167 = DIRECTION('',(0.,1.,0.));
#1168 = PLANE('',#1169);
#1169 = AXIS2_PLACEMENT_3D('',#1170,#1171,#1172);
#1170 = CARTESIAN_POINT('',(0.5,-9.,-7.4));
#1171 = DIRECTION('',(0.,0.,1.));
#1172 = DIRECTION('',(0.,1.,0.));
#1173 = ADVANCED_FACE('',(#1174),#1199,.F.);
#1174 = FACE_BOUND('',#1175,.F.);
#1175 = EDGE_LOOP('',(#1176,#1186,#1192,#1193));
#1176 = ORIENTED_EDGE('',*,*,#1177,.T.);
#1177 = EDGE_CURVE('',#1178,#1180,#1182,.T.);
#1178 = VERTEX_POINT('',#1179);
#1179 = CARTESIAN_POINT('',(0.5,-15.,-5.7));
#1180 = VERTEX_POINT('',#1181);
#1181 = CARTESIAN_POINT('',(5.5,-15.,-5.7));
#1182 = LINE('',#1183,#1184);
#1183 = CARTESIAN_POINT('',(0.5,-15.,-5.7));
#1184 = VECTOR('',#1185,1.);
#1185 = DIRECTION('',(1.,0.,0.));
#1186 = ORIENTED_EDGE('',*,*,#1187,.T.);
#1187 = EDGE_CURVE('',#1180,#1149,#1188,.T.);
#1188 = LINE('',#1189,#1190);
#1189 = CARTESIAN_POINT('',(5.5,-15.,-5.7));
#1190 = VECTOR('',#1191,1.);
#1191 = DIRECTION('',(0.,0.962126726315,-0.272602572456));
#1192 = ORIENTED_EDGE('',*,*,#1146,.F.);
#1193 = ORIENTED_EDGE('',*,*,#1194,.F.);
#1194 = EDGE_CURVE('',#1178,#1147,#1195,.T.);
#1195 = LINE('',#1196,#1197);
#1196 = CARTESIAN_POINT('',(0.5,-15.,-5.7));
#1197 = VECTOR('',#1198,1.);
#1198 = DIRECTION('',(0.,0.962126726315,-0.272602572456));
#1199 = PLANE('',#1200);
#1200 = AXIS2_PLACEMENT_3D('',#1201,#1202,#1203);
#1201 = CARTESIAN_POINT('',(0.5,-15.,-5.7));
#1202 = DIRECTION('',(-0.,0.272602572456,0.962126726315));
#1203 = DIRECTION('',(0.,0.962126726315,-0.272602572456));
#1204 = ADVANCED_FACE('',(#1205),#1230,.T.);
#1205 = FACE_BOUND('',#1206,.T.);
#1206 = EDGE_LOOP('',(#1207,#1208,#1216,#1224));
#1207 = ORIENTED_EDGE('',*,*,#1177,.T.);
#1208 = ORIENTED_EDGE('',*,*,#1209,.F.);
#1209 = EDGE_CURVE('',#1210,#1180,#1212,.T.);
#1210 = VERTEX_POINT('',#1211);
#1211 = CARTESIAN_POINT('',(5.5,-30.8,-5.7));
#1212 = LINE('',#1213,#1214);
#1213 = CARTESIAN_POINT('',(5.5,-22.,-5.7));
#1214 = VECTOR('',#1215,1.);
#1215 = DIRECTION('',(-0.,1.,0.));
#1216 = ORIENTED_EDGE('',*,*,#1217,.T.);
#1217 = EDGE_CURVE('',#1210,#1218,#1220,.T.);
#1218 = VERTEX_POINT('',#1219);
#1219 = CARTESIAN_POINT('',(0.5,-30.8,-5.7));
#1220 = LINE('',#1221,#1222);
#1221 = CARTESIAN_POINT('',(0.,-30.8,-5.7));
#1222 = VECTOR('',#1223,1.);
#1223 = DIRECTION('',(-1.,-0.,0.));
#1224 = ORIENTED_EDGE('',*,*,#1225,.T.);
#1225 = EDGE_CURVE('',#1218,#1178,#1226,.T.);
#1226 = LINE('',#1227,#1228);
#1227 = CARTESIAN_POINT('',(0.5,-48.6,-5.7));
#1228 = VECTOR('',#1229,1.);
#1229 = DIRECTION('',(-0.,1.,0.));
#1230 = PLANE('',#1231);
#1231 = AXIS2_PLACEMENT_3D('',#1232,#1233,#1234);
#1232 = CARTESIAN_POINT('',(3.,-22.9,-5.7));
#1233 = DIRECTION('',(-0.,-0.,-1.));
#1234 = DIRECTION('',(-1.,0.,0.));
#1235 = ADVANCED_FACE('',(#1236),#1261,.F.);
#1236 = FACE_BOUND('',#1237,.F.);
#1237 = EDGE_LOOP('',(#1238,#1248,#1254,#1255));
#1238 = ORIENTED_EDGE('',*,*,#1239,.T.);
#1239 = EDGE_CURVE('',#1240,#1242,#1244,.T.);
#1240 = VERTEX_POINT('',#1241);
#1241 = CARTESIAN_POINT('',(0.5,-30.8,-4.4));
#1242 = VERTEX_POINT('',#1243);
#1243 = CARTESIAN_POINT('',(5.5,-30.8,-4.4));
#1244 = LINE('',#1245,#1246);
#1245 = CARTESIAN_POINT('',(-0.5,-30.8,-4.4));
#1246 = VECTOR('',#1247,1.);
#1247 = DIRECTION('',(1.,0.,-0.));
#1248 = ORIENTED_EDGE('',*,*,#1249,.F.);
#1249 = EDGE_CURVE('',#1210,#1242,#1250,.T.);
#1250 = LINE('',#1251,#1252);
#1251 = CARTESIAN_POINT('',(5.5,-30.8,-5.85));
#1252 = VECTOR('',#1253,1.);
#1253 = DIRECTION('',(0.,0.,1.));
#1254 = ORIENTED_EDGE('',*,*,#1217,.T.);
#1255 = ORIENTED_EDGE('',*,*,#1256,.T.);
#1256 = EDGE_CURVE('',#1218,#1240,#1257,.T.);
#1257 = LINE('',#1258,#1259);
#1258 = CARTESIAN_POINT('',(0.5,-30.8,-5.85));
#1259 = VECTOR('',#1260,1.);
#1260 = DIRECTION('',(0.,0.,1.));
#1261 = PLANE('',#1262);
#1262 = AXIS2_PLACEMENT_3D('',#1263,#1264,#1265);
#1263 = CARTESIAN_POINT('',(-0.5,-30.8,-6.));
#1264 = DIRECTION('',(-0.,1.,0.));
#1265 = DIRECTION('',(0.,0.,1.));
#1266 = ADVANCED_FACE('',(#1267),#1292,.F.);
#1267 = FACE_BOUND('',#1268,.F.);
#1268 = EDGE_LOOP('',(#1269,#1270,#1278,#1286));
#1269 = ORIENTED_EDGE('',*,*,#1239,.F.);
#1270 = ORIENTED_EDGE('',*,*,#1271,.T.);
#1271 = EDGE_CURVE('',#1240,#1272,#1274,.T.);
#1272 = VERTEX_POINT('',#1273);
#1273 = CARTESIAN_POINT('',(0.5,-36.4,-4.4));
#1274 = LINE('',#1275,#1276);
#1275 = CARTESIAN_POINT('',(0.5,-42.5,-4.4));
#1276 = VECTOR('',#1277,1.);
#1277 = DIRECTION('',(0.,-1.,0.));
#1278 = ORIENTED_EDGE('',*,*,#1279,.T.);
#1279 = EDGE_CURVE('',#1272,#1280,#1282,.T.);
#1280 = VERTEX_POINT('',#1281);
#1281 = CARTESIAN_POINT('',(5.5,-36.4,-4.4));
#1282 = LINE('',#1283,#1284);
#1283 = CARTESIAN_POINT('',(-0.5,-36.4,-4.4));
#1284 = VECTOR('',#1285,1.);
#1285 = DIRECTION('',(1.,0.,-0.));
#1286 = ORIENTED_EDGE('',*,*,#1287,.F.);
#1287 = EDGE_CURVE('',#1242,#1280,#1288,.T.);
#1288 = LINE('',#1289,#1290);
#1289 = CARTESIAN_POINT('',(5.5,-42.5,-4.4));
#1290 = VECTOR('',#1291,1.);
#1291 = DIRECTION('',(0.,-1.,0.));
#1292 = PLANE('',#1293);
#1293 = AXIS2_PLACEMENT_3D('',#1294,#1295,#1296);
#1294 = CARTESIAN_POINT('',(-0.5,-36.4,-4.4));
#1295 = DIRECTION('',(0.,0.,1.));
#1296 = DIRECTION('',(1.,0.,-0.));
#1297 = ADVANCED_FACE('',(#1298),#1323,.T.);
#1298 = FACE_BOUND('',#1299,.T.);
#1299 = EDGE_LOOP('',(#1300,#1301,#1309,#1317));
#1300 = ORIENTED_EDGE('',*,*,#1279,.T.);
#1301 = ORIENTED_EDGE('',*,*,#1302,.F.);
#1302 = EDGE_CURVE('',#1303,#1280,#1305,.T.);
#1303 = VERTEX_POINT('',#1304);
#1304 = CARTESIAN_POINT('',(5.5,-36.4,-5.7));
#1305 = LINE('',#1306,#1307);
#1306 = CARTESIAN_POINT('',(5.5,-36.4,-5.85));
#1307 = VECTOR('',#1308,1.);
#1308 = DIRECTION('',(0.,0.,1.));
#1309 = ORIENTED_EDGE('',*,*,#1310,.T.);
#1310 = EDGE_CURVE('',#1303,#1311,#1313,.T.);
#1311 = VERTEX_POINT('',#1312);
#1312 = CARTESIAN_POINT('',(0.5,-36.4,-5.7));
#1313 = LINE('',#1314,#1315);
#1314 = CARTESIAN_POINT('',(0.,-36.4,-5.7));
#1315 = VECTOR('',#1316,1.);
#1316 = DIRECTION('',(-1.,-0.,0.));
#1317 = ORIENTED_EDGE('',*,*,#1318,.T.);
#1318 = EDGE_CURVE('',#1311,#1272,#1319,.T.);
#1319 = LINE('',#1320,#1321);
#1320 = CARTESIAN_POINT('',(0.5,-36.4,-5.85));
#1321 = VECTOR('',#1322,1.);
#1322 = DIRECTION('',(0.,0.,1.));
#1323 = PLANE('',#1324);
#1324 = AXIS2_PLACEMENT_3D('',#1325,#1326,#1327);
#1325 = CARTESIAN_POINT('',(-0.5,-36.4,-6.));
#1326 = DIRECTION('',(-0.,1.,0.));
#1327 = DIRECTION('',(0.,0.,1.));
#1328 = ADVANCED_FACE('',(#1329),#1354,.F.);
#1329 = FACE_BOUND('',#1330,.F.);
#1330 = EDGE_LOOP('',(#1331,#1339,#1347,#1353));
#1331 = ORIENTED_EDGE('',*,*,#1332,.F.);
#1332 = EDGE_CURVE('',#1333,#1311,#1335,.T.);
#1333 = VERTEX_POINT('',#1334);
#1334 = CARTESIAN_POINT('',(0.5,-48.6,-5.7));
#1335 = LINE('',#1336,#1337);
#1336 = CARTESIAN_POINT('',(0.5,-48.6,-5.7));
#1337 = VECTOR('',#1338,1.);
#1338 = DIRECTION('',(-0.,1.,0.));
#1339 = ORIENTED_EDGE('',*,*,#1340,.T.);
#1340 = EDGE_CURVE('',#1333,#1341,#1343,.T.);
#1341 = VERTEX_POINT('',#1342);
#1342 = CARTESIAN_POINT('',(5.5,-48.6,-5.7));
#1343 = LINE('',#1344,#1345);
#1344 = CARTESIAN_POINT('',(0.5,-48.6,-5.7));
#1345 = VECTOR('',#1346,1.);
#1346 = DIRECTION('',(1.,0.,-0.));
#1347 = ORIENTED_EDGE('',*,*,#1348,.T.);
#1348 = EDGE_CURVE('',#1341,#1303,#1349,.T.);
#1349 = LINE('',#1350,#1351);
#1350 = CARTESIAN_POINT('',(5.5,-48.6,-5.7));
#1351 = VECTOR('',#1352,1.);
#1352 = DIRECTION('',(-0.,1.,0.));
#1353 = ORIENTED_EDGE('',*,*,#1310,.T.);
#1354 = PLANE('',#1355);
#1355 = AXIS2_PLACEMENT_3D('',#1356,#1357,#1358);
#1356 = CARTESIAN_POINT('',(0.5,-48.6,-5.7));
#1357 = DIRECTION('',(0.,0.,1.));
#1358 = DIRECTION('',(1.,0.,-0.));
#1359 = ADVANCED_FACE('',(#1360),#1385,.F.);
#1360 = FACE_BOUND('',#1361,.F.);
#1361 = EDGE_LOOP('',(#1362,#1363,#1371,#1379));
#1362 = ORIENTED_EDGE('',*,*,#1340,.F.);
#1363 = ORIENTED_EDGE('',*,*,#1364,.T.);
#1364 = EDGE_CURVE('',#1333,#1365,#1367,.T.);
#1365 = VERTEX_POINT('',#1366);
#1366 = CARTESIAN_POINT('',(0.5,-48.6,-2.3));
#1367 = LINE('',#1368,#1369);
#1368 = CARTESIAN_POINT('',(0.5,-48.6,-5.7));
#1369 = VECTOR('',#1370,1.);
#1370 = DIRECTION('',(0.,0.,1.));
#1371 = ORIENTED_EDGE('',*,*,#1372,.T.);
#1372 = EDGE_CURVE('',#1365,#1373,#1375,.T.);
#1373 = VERTEX_POINT('',#1374);
#1374 = CARTESIAN_POINT('',(5.5,-48.6,-2.3));
#1375 = LINE('',#1376,#1377);
#1376 = CARTESIAN_POINT('',(0.5,-48.6,-2.3));
#1377 = VECTOR('',#1378,1.);
#1378 = DIRECTION('',(1.,0.,-0.));
#1379 = ORIENTED_EDGE('',*,*,#1380,.F.);
#1380 = EDGE_CURVE('',#1341,#1373,#1381,.T.);
#1381 = LINE('',#1382,#1383);
#1382 = CARTESIAN_POINT('',(5.5,-48.6,-5.7));
#1383 = VECTOR('',#1384,1.);
#1384 = DIRECTION('',(0.,0.,1.));
#1385 = PLANE('',#1386);
#1386 = AXIS2_PLACEMENT_3D('',#1387,#1388,#1389);
#1387 = CARTESIAN_POINT('',(0.5,-48.6,-5.7));
#1388 = DIRECTION('',(-0.,1.,0.));
#1389 = DIRECTION('',(0.,0.,1.));
#1390 = ADVANCED_FACE('',(#1391),#1419,.T.);
#1391 = FACE_BOUND('',#1392,.T.);
#1392 = EDGE_LOOP('',(#1393,#1394,#1395,#1396,#1397,#1398,#1399,#1400,
    #1401,#1402,#1408,#1409,#1410,#1411,#1412,#1413,#1414,#1415,#1416,
    #1417,#1418));
#1393 = ORIENTED_EDGE('',*,*,#566,.F.);
#1394 = ORIENTED_EDGE('',*,*,#598,.F.);
#1395 = ORIENTED_EDGE('',*,*,#628,.F.);
#1396 = ORIENTED_EDGE('',*,*,#653,.F.);
#1397 = ORIENTED_EDGE('',*,*,#684,.F.);
#1398 = ORIENTED_EDGE('',*,*,#721,.F.);
#1399 = ORIENTED_EDGE('',*,*,#753,.T.);
#1400 = ORIENTED_EDGE('',*,*,#784,.F.);
#1401 = ORIENTED_EDGE('',*,*,#814,.F.);
#1402 = ORIENTED_EDGE('',*,*,#1403,.F.);
#1403 = EDGE_CURVE('',#1373,#807,#1404,.T.);
#1404 = LINE('',#1405,#1406);
#1405 = CARTESIAN_POINT('',(5.5,-48.6,-2.3));
#1406 = VECTOR('',#1407,1.);
#1407 = DIRECTION('',(-0.,1.,0.));
#1408 = ORIENTED_EDGE('',*,*,#1380,.F.);
#1409 = ORIENTED_EDGE('',*,*,#1348,.T.);
#1410 = ORIENTED_EDGE('',*,*,#1302,.T.);
#1411 = ORIENTED_EDGE('',*,*,#1287,.F.);
#1412 = ORIENTED_EDGE('',*,*,#1249,.F.);
#1413 = ORIENTED_EDGE('',*,*,#1209,.T.);
#1414 = ORIENTED_EDGE('',*,*,#1187,.T.);
#1415 = ORIENTED_EDGE('',*,*,#1156,.T.);
#1416 = ORIENTED_EDGE('',*,*,#1125,.T.);
#1417 = ORIENTED_EDGE('',*,*,#1085,.T.);
#1418 = ORIENTED_EDGE('',*,*,#536,.T.);
#1419 = PLANE('',#1420);
#1420 = AXIS2_PLACEMENT_3D('',#1421,#1422,#1423);
#1421 = CARTESIAN_POINT('',(5.5,2.284009545007,-4.017063308401));
#1422 = DIRECTION('',(1.,0.,0.));
#1423 = DIRECTION('',(-0.,0.,1.));
#1424 = ADVANCED_FACE('',(#1425),#1436,.T.);
#1425 = FACE_BOUND('',#1426,.T.);
#1426 = EDGE_LOOP('',(#1427,#1433,#1434,#1435));
#1427 = ORIENTED_EDGE('',*,*,#1428,.F.);
#1428 = EDGE_CURVE('',#1365,#799,#1429,.T.);
#1429 = LINE('',#1430,#1431);
#1430 = CARTESIAN_POINT('',(0.5,-48.6,-2.3));
#1431 = VECTOR('',#1432,1.);
#1432 = DIRECTION('',(-0.,1.,0.));
#1433 = ORIENTED_EDGE('',*,*,#1372,.T.);
#1434 = ORIENTED_EDGE('',*,*,#1403,.T.);
#1435 = ORIENTED_EDGE('',*,*,#806,.T.);
#1436 = PLANE('',#1437);
#1437 = AXIS2_PLACEMENT_3D('',#1438,#1439,#1440);
#1438 = CARTESIAN_POINT('',(0.5,-48.6,-2.3));
#1439 = DIRECTION('',(0.,0.,1.));
#1440 = DIRECTION('',(1.,0.,-0.));
#1441 = ADVANCED_FACE('',(#1442),#1465,.T.);
#1442 = FACE_BOUND('',#1443,.T.);
#1443 = EDGE_LOOP('',(#1444,#1445,#1446,#1447,#1448,#1449,#1450,#1451,
    #1452,#1453,#1454,#1455,#1456,#1457,#1458,#1459,#1460,#1461,#1462,
    #1463,#1464));
#1444 = ORIENTED_EDGE('',*,*,#550,.T.);
#1445 = ORIENTED_EDGE('',*,*,#520,.F.);
#1446 = ORIENTED_EDGE('',*,*,#1101,.F.);
#1447 = ORIENTED_EDGE('',*,*,#1132,.F.);
#1448 = ORIENTED_EDGE('',*,*,#1163,.F.);
#1449 = ORIENTED_EDGE('',*,*,#1194,.F.);
#1450 = ORIENTED_EDGE('',*,*,#1225,.F.);
#1451 = ORIENTED_EDGE('',*,*,#1256,.T.);
#1452 = ORIENTED_EDGE('',*,*,#1271,.T.);
#1453 = ORIENTED_EDGE('',*,*,#1318,.F.);
#1454 = ORIENTED_EDGE('',*,*,#1332,.F.);
#1455 = ORIENTED_EDGE('',*,*,#1364,.T.);
#1456 = ORIENTED_EDGE('',*,*,#1428,.T.);
#1457 = ORIENTED_EDGE('',*,*,#798,.T.);
#1458 = ORIENTED_EDGE('',*,*,#768,.T.);
#1459 = ORIENTED_EDGE('',*,*,#746,.F.);
#1460 = ORIENTED_EDGE('',*,*,#705,.T.);
#1461 = ORIENTED_EDGE('',*,*,#691,.T.);
#1462 = ORIENTED_EDGE('',*,*,#660,.T.);
#1463 = ORIENTED_EDGE('',*,*,#612,.T.);
#1464 = ORIENTED_EDGE('',*,*,#591,.T.);
#1465 = PLANE('',#1466);
#1466 = AXIS2_PLACEMENT_3D('',#1467,#1468,#1469);
#1467 = CARTESIAN_POINT('',(0.5,2.284009545007,-4.017063308401));
#1468 = DIRECTION('',(-1.,-0.,-0.));
#1469 = DIRECTION('',(0.,0.,-1.));
#1470 = ADVANCED_FACE('',(#1471),#1483,.T.);
#1471 = FACE_BOUND('',#1472,.T.);
#1472 = EDGE_LOOP('',(#1473,#1474,#1475,#1476,#1477,#1478,#1479,#1480,
    #1481,#1482));
#1473 = ORIENTED_EDGE('',*,*,#132,.F.);
#1474 = ORIENTED_EDGE('',*,*,#856,.F.);
#1475 = ORIENTED_EDGE('',*,*,#935,.T.);
#1476 = ORIENTED_EDGE('',*,*,#1067,.T.);
#1477 = ORIENTED_EDGE('',*,*,#1002,.T.);
#1478 = ORIENTED_EDGE('',*,*,#993,.T.);
#1479 = ORIENTED_EDGE('',*,*,#961,.F.);
#1480 = ORIENTED_EDGE('',*,*,#876,.T.);
#1481 = ORIENTED_EDGE('',*,*,#390,.T.);
#1482 = ORIENTED_EDGE('',*,*,#141,.F.);
#1483 = CYLINDRICAL_SURFACE('',#1484,7.);
#1484 = AXIS2_PLACEMENT_3D('',#1485,#1486,#1487);
#1485 = CARTESIAN_POINT('',(3.,84.,-85.55664569454));
#1486 = DIRECTION('',(0.,0.5,0.866025403784));
#1487 = DIRECTION('',(0.,0.866025403784,-0.5));
#1488 = ADVANCED_FACE('',(#1489),#1495,.T.);
#1489 = FACE_BOUND('',#1490,.T.);
#1490 = EDGE_LOOP('',(#1491,#1492,#1493,#1494));
#1491 = ORIENTED_EDGE('',*,*,#1042,.T.);
#1492 = ORIENTED_EDGE('',*,*,#910,.T.);
#1493 = ORIENTED_EDGE('',*,*,#901,.T.);
#1494 = ORIENTED_EDGE('',*,*,#1051,.T.);
#1495 = CYLINDRICAL_SURFACE('',#1496,7.);
#1496 = AXIS2_PLACEMENT_3D('',#1497,#1498,#1499);
#1497 = CARTESIAN_POINT('',(3.,84.,-85.55664569454));
#1498 = DIRECTION('',(0.,0.5,0.866025403784));
#1499 = DIRECTION('',(0.,0.866025403784,-0.5));
#1500 = ( GEOMETRIC_REPRESENTATION_CONTEXT(3) 
GLOBAL_UNCERTAINTY_ASSIGNED_CONTEXT((#1504)) 
GLOBAL_UNIT_ASSIGNED_CONTEXT((#1501,#1502,#1503)) REPRESENTATION_CONTEXT
('Context #1','3D Context with UNIT and UNCERTAINTY') );
#1501 = ( LENGTH_UNIT() NAMED_UNIT(*) SI_UNIT(.MILLI.,.METRE.) );
#1502 = ( NAMED_UNIT(*) PLANE_ANGLE_UNIT() SI_UNIT($,.RADIAN.) );
#1503 = ( NAMED_UNIT(*) SI_UNIT($,.STERADIAN.) SOLID_ANGLE_UNIT() );
#1504 = UNCERTAINTY_MEASURE_WITH_UNIT(LENGTH_MEASURE(2.E-07),#1501,
  'distance_accuracy_value','confusion accuracy');
#1505 = PRODUCT_RELATED_PRODUCT_CATEGORY('part',$,(#7));
ENDSEC;
END-ISO-10303-21;
